<svg id="Layer_1" data-name="Layer 1" xmlns="http://www.w3.org/2000/svg" xmlns:xlink="http://www.w3.org/1999/xlink" viewBox="0 0 900 1600"><defs><clipPath id="clip-path"><rect x="201.19" y="21.86" width="500" height="500" fill="none"/></clipPath></defs><rect x="-0.05" width="901.24" height="1600" fill="#5ca7a9"/><g clip-path="url(#clip-path)"><g clip-path="url(#clip-path)"><path d="M452,33.13c-131.33,0-238,106.7-238,238s106.71,238,238,238,238-106.71,238-238-106.71-238-238-238m18.24,73.41a201.53,201.53,0,0,1,0,329.23ZM433.32,434a201.8,201.8,0,0,1,0-325.58ZM250.46,271.16c0-100.78,74.33-184.68,171.46-199.27-65.21,42.86-108.07,115.82-108.07,199.27S357.17,428,421.92,470.43c-97.13-14.59-171.46-98-171.46-199.27M485.3,470c64.76-42.86,107.16-115.82,107.16-198.81,0-83.45-43.32-156.41-108.07-199.27,95.76,15.5,169.18,99,169.18,199.27C653.57,371,580.61,454,485.3,470" fill="#fff"/><polygon points="266.42 299.88 266.42 252.92 277.82 252.92 277.82 289.85 296.06 289.85 296.06 299.88 266.42 299.88" fill="#fff"/><path d="M403.22,299.89l-3.64-9.12H381.34l-3.65,9.12H365.38l19.6-47h10.95l19.61,47Zm-12.76-34.2-5.93,16h11.85Z" fill="#fff"/><path d="M516.31,300.34l-10.49-18.69h-4.1v18.69H490.78V252.46H509a35.66,35.66,0,0,1,6.84.91,23,23,0,0,1,5.92,2.28,10,10,0,0,1,4.11,4.56,15.29,15.29,0,0,1,1.37,6.84,12.75,12.75,0,0,1-2.74,8.21,13.38,13.38,0,0,1-7.3,4.56l12.32,20.52Zm-.45-33.29a6.42,6.42,0,0,0-.92-2.73,3.57,3.57,0,0,0-1.82-1.83c-.91-.45-1.37-.45-2.28-.91h-8.66v10.95h5.47a5.71,5.71,0,0,0,2.73-.46,6.53,6.53,0,0,0,2.74-.91,3.54,3.54,0,0,0,1.82-1.83c.46,0,.92-.91.92-2.28" fill="#fff"/><path d="M634.42,299.89l-3.65-9.12H612.53l-3.65,9.12H596.57l19.61-47h10.94l19.61,47Zm-12.32-34.2-5.92,16H628Z" fill="#fff"/></g></g><circle cx="274.26" cy="575.94" r="24.09" fill="#fff"/><circle cx="391.42" cy="575.94" r="24.09" fill="#fff"/><circle cx="508.58" cy="575.94" r="24.09" fill="#fff"/><circle cx="625.74" cy="575.94" r="24.09" fill="#fff"/><rect x="85.33" y="1241.16" width="725.71" height="281.12" rx="12" fill="#fff"/><path d="M157.63,1355.6l-28.2,25.53a1.64,1.64,0,0,0,.12,2.54l29.36,22" fill="none" stroke="#adc961" stroke-miterlimit="10" stroke-width="2"/><path d="M742,1355.36l28.2,25.52a1.66,1.66,0,0,1-.12,2.55l-29.36,22" fill="none" stroke="#adc961" stroke-miterlimit="10" stroke-width="2"/><text transform="translate(387.74 1377.38)" font-size="17.75" fill="#adc961" font-family="Futura-Bold, Futura" font-weight="700"><tspan xml:space="preserve"> The Elemen</tspan><tspan x="112.74" y="0" letter-spacing="0em">t</tspan><tspan x="119.45" y="0" letter-spacing="0em">s of </tspan><tspan x="159.92" y="0" letter-spacing="0.01em">T</tspan><tspan x="169.55" y="0" letter-spacing="0em">ypo</tspan><tspan x="206.63" y="0" letter-spacing="0.02em">g</tspan><tspan x="219.33" y="0" letter-spacing="0.01em">r</tspan><tspan x="227.71" y="0">aphic </tspan><tspan x="284.54" y="0" letter-spacing="0.01em">S</tspan><tspan x="296.18" y="0">t</tspan><tspan x="302.81" y="0" letter-spacing="0.01em">y</tspan><tspan x="315.2" y="0">le</tspan><tspan x="0" y="24.86"> </tspan><tspan x="6.04" y="24.86" letter-spacing="-0.03em">b</tspan><tspan x="18" y="24.86">y </tspan><tspan x="36.25" y="24.86" letter-spacing="-0.02em">R</tspan><tspan x="48.57" y="24.86">obe</tspan><tspan x="84.93" y="24.86" letter-spacing="0.02em">r</tspan><tspan x="93.54" y="24.86" letter-spacing="0em">t B</tspan><tspan x="118.49" y="24.86" letter-spacing="0em">r</tspan><tspan x="126.76" y="24.86" letter-spacing="0em">inghu</tspan><tspan x="180" y="24.86" letter-spacing="0em">r</tspan><tspan x="188.22" y="24.86" letter-spacing="0.01em">s</tspan><tspan x="197.51" y="24.86">t</tspan></text><rect x="304.69" y="891.08" width="290.63" height="111.09" rx="55.54" fill="#adc961"/><text transform="translate(376.84 960.54)" font-size="43.27" fill="#fff" font-family="MyriadPro-Regular, Myriad Pro"><tspan letter-spacing="-0.01em">C</tspan><tspan x="24.62" y="0">ourses</tspan></text><rect x="468.47" y="746.26" width="290.63" height="111.09" rx="55.54" fill="#adc961"/><text transform="translate(564.92 816.6)" font-size="43.27" fill="#fff" font-family="MyriadPro-Regular, Myriad Pro">Shop</text><rect x="140.91" y="745.57" width="290.63" height="111.09" rx="55.54" fill="#adc961"/><text transform="translate(212.89 816.6)" font-size="43.27" fill="#fff" font-family="MyriadPro-Regular, Myriad Pro"><tspan letter-spacing="-0.03em">W</tspan><tspan x="35.18" y="0">ebsi</tspan><tspan x="108.74" y="0" letter-spacing="-0.01em">t</tspan><tspan x="122.8" y="0" letter-spacing="0em">e</tspan></text><text transform="translate(111.63 1164.25)" font-size="30" fill="#fff" font-family="Futura-Bold, Futura" font-weight="700"><tspan letter-spacing="-0.01em">R</tspan><tspan x="20.94" y="0">ecommended Boo</tspan><tspan x="309.33" y="0" letter-spacing="0.01em">k</tspan><tspan x="330.69" y="0">s </tspan><tspan x="356.16" y="0" letter-spacing="0.01em">f</tspan><tspan x="368.16" y="0">or </tspan><tspan x="413.3" y="0" letter-spacing="-0.03em">W</tspan><tspan x="446.67" y="0">eb D</tspan><tspan x="520.88" y="0" letter-spacing="-0.02em">ev</tspan><tspan x="558.41" y="0">elope</tspan><tspan x="648.41" y="0" letter-spacing="0em">r</tspan><tspan x="662.3" y="0">s</tspan><tspan x="161.22" y="36" xml:space="preserve"> &amp; </tspan><tspan x="207.27" y="36" letter-spacing="-0.03em">W</tspan><tspan x="240.63" y="36" letter-spacing="0em">eb </tspan><tspan x="291.27" y="36" letter-spacing="0.01em">T</tspan><tspan x="307.53" y="36">ypo</tspan><tspan x="370.2" y="36" letter-spacing="0.02em">g</tspan><tspan x="391.65" y="36" letter-spacing="0.01em">r</tspan><tspan x="405.81" y="36">aphe</tspan><tspan x="487.19" y="36" letter-spacing="0em">r</tspan><tspan x="501.08" y="36">s</tspan></text><rect x="185.58" y="1292.39" width="175.23" height="175.23" fill="#ccc4c4"/></svg>