<svg id="Layer_1" data-name="Layer 1" xmlns="http://www.w3.org/2000/svg" xmlns:xlink="http://www.w3.org/1999/xlink" viewBox="0 0 900 1600"><defs><clipPath id="clip-path"><rect x="35.1" y="29.08" width="170.17" height="170.17" fill="none"/></clipPath></defs><rect x="-0.05" width="901.24" height="1600" fill="#5ca7a9"/><g clip-path="url(#clip-path)"><g clip-path="url(#clip-path)"><path d="M120.47,32.91a81,81,0,1,0,81,81,81.08,81.08,0,0,0-81-81m6.21,25a68.59,68.59,0,0,1,0,112ZM114.1,169.33a68.69,68.69,0,0,1,0-110.81Zm-62.23-55.4A68.68,68.68,0,0,1,110.22,46.1a80.93,80.93,0,0,0,0,135.65,68.56,68.56,0,0,1-58.35-67.82m79.93,67.66a81,81,0,0,0-.31-135.49,68.67,68.67,0,0,1,.31,135.49" fill="#fff"/><polygon points="57.3 123.7 57.3 107.72 61.18 107.72 61.18 120.29 67.39 120.29 67.39 123.7 57.3 123.7" fill="#fff"/><path d="M103.86,123.7l-1.24-3.1H96.41l-1.24,3.1H91l6.67-16h3.73l6.67,16Zm-4.34-11.64-2,5.44h4Z" fill="#fff"/><path d="M142.35,123.86l-3.57-6.36h-1.4v6.36h-3.72v-16.3h6.21a12.52,12.52,0,0,1,2.33.31,8,8,0,0,1,2,.78,3.4,3.4,0,0,1,1.4,1.55,5.2,5.2,0,0,1,.47,2.33,4.26,4.26,0,0,1-.94,2.79,4.52,4.52,0,0,1-2.48,1.55l4.19,7Zm-.15-11.33a2.27,2.27,0,0,0-.31-.93,1.23,1.23,0,0,0-.63-.62c-.31-.16-.46-.16-.77-.31h-3v3.72h1.86a2,2,0,0,0,.93-.15,2.27,2.27,0,0,0,.93-.31,1.25,1.25,0,0,0,.63-.63c.15,0,.31-.31.31-.77" fill="#fff"/><path d="M182.55,123.7l-1.24-3.1H175.1l-1.24,3.1h-4.19l6.67-16h3.72l6.68,16Zm-4.19-11.64-2,5.44h4Z" fill="#fff"/></g></g><text transform="translate(227.66 503.81)" font-size="97.34" fill="#fff" font-family="Futura-Bold, Futura" font-weight="700">Cou<tspan x="198.18" y="0" letter-spacing="0em">r</tspan><tspan x="243.24" y="0">ses</tspan></text><rect x="233.72" y="592.81" width="418.73" height="100.2" rx="50.1" fill="#adc961"/><rect x="233.9" y="859.67" width="425.04" height="100.2" rx="50.1" fill="#adc961"/><rect x="237.99" y="997.49" width="416.86" height="100.2" rx="50.1" fill="#adc961"/><rect x="236.42" y="727.7" width="420.36" height="100.2" rx="50.1" fill="#adc961"/><text transform="translate(274.31 657.28)" font-size="43.3" fill="#fff" font-family="Futura-Medium, Futura" font-weight="500"><tspan letter-spacing="-0.06em">W</tspan><tspan x="43.4" y="0">eb </tspan><tspan x="106.68" y="0" letter-spacing="-0.04em">T</tspan><tspan x="125.62" y="0">ypog</tspan><tspan x="227.06" y="0" letter-spacing="-0.01em">r</tspan><tspan x="242.96" y="0">ap</tspan><tspan x="294.88" y="0" letter-spacing="-0.02em">h</tspan><tspan x="317.93" y="0">y</tspan><tspan x="27.2" y="135.31">M</tspan><tspan x="68.83" y="135.31" letter-spacing="0.01em">o</tspan><tspan x="95.11" y="135.31">tion Design</tspan><tspan x="-18.86" y="270.61">2D </tspan><tspan x="52.66" y="270.61" letter-spacing="-0.01em">F</tspan><tspan x="74.29" y="270.61">o</tspan><tspan x="100.32" y="270.61" letter-spacing="0.02em">r</tspan><tspan x="117.17" y="270.61">m &amp; Su</tspan><tspan x="258.62" y="270.61" letter-spacing="0.03em">r</tspan><tspan x="276.26" y="270.61" letter-spacing="0.02em">f</tspan><tspan x="289.77" y="270.61">ace</tspan><tspan x="20.6" y="405.92">A</tspan><tspan x="52.67" y="405.92" letter-spacing="0.04em">r</tspan><tspan x="70.43" y="405.92">t of </tspan><tspan x="147.88" y="405.92" letter-spacing="0.02em">t</tspan><tspan x="160.58" y="405.92">he Book</tspan></text></svg>