<?xml version="1.0" encoding="utf-8"?>
<!-- Generator: Adobe Illustrator 24.3.0, SVG Export Plug-In . SVG Version: 6.00 Build 0)  -->
<svg version="1.1" id="Layer_1" xmlns="http://www.w3.org/2000/svg" xmlns:xlink="http://www.w3.org/1999/xlink" x="0px" y="0px"
	 viewBox="0 0 576 792" style="enable-background:new 0 0 576 792;" xml:space="preserve">
<style type="text/css">
	.st0{fill:#FF8224;}
	.st1{fill:#C1531B;}
	.st2{font-family:'Battlefin-Bold';}
	.st3{font-size:40px;}
	.st4{fill:#000101;}
	.st5{font-family:'Roboto-Regular';}
	.st6{font-size:10px;}
	.st7{fill:#C14B1B;}
	.st8{font-family:'Roboto-Bold';}
	.st9{font-size:12px;}
	.st10{fill:#FFFFFF;}
	.st11{font-size:20px;}
	.st12{letter-spacing:-2;}
	.st13{letter-spacing:-1;}
	.st14{font-family:'Roboto-Medium';}
	.st15{font-size:15px;}
	.st16{fill:none;stroke:#000000;}
	.st17{fill:none;stroke:#FFFFFF;}
	.st18{clip-path:url(#SVGID_2_);enable-background:new    ;}
	.st19{clip-path:url(#SVGID_4_);fill:#FFFFFF;}
	.st20{clip-path:url(#SVGID_6_);fill:#FFFFFF;}
</style>
<rect x="309.9" class="st0" width="265.5" height="792"/>
<text transform="matrix(1 0 0 1 36.3169 64.2197)" class="st1 st2 st3">Maegan </text>
<text transform="matrix(1 0 0 1 36.3169 112.2197)" class="st1 st2 st3">Champagne</text>
<text transform="matrix(1 0 0 1 36 208.7383)"><tspan x="0" y="0" class="st4 st5 st6">I’m great at using Adobe Illust</tspan><tspan x="132.1" y="0" class="st4 st5 st6">r</tspan><tspan x="135.2" y="0" class="st4 st5 st6">a</tspan><tspan x="140.7" y="0" class="st4 st5 st6">t</tspan><tspan x="143.8" y="0" class="st4 st5 st6">or and InDesign. </tspan></text>
<text transform="matrix(1 0 0 1 36 227.7383)" class="st4 st5 st6">While working, I use my extensive knowledge and </text>
<text transform="matrix(1 0 0 1 36 246.7383)"><tspan x="0" y="0" class="st4 st5 st6">p</tspan><tspan x="5.6" y="0" class="st4 st5 st6">r</tspan><tspan x="8.8" y="0" class="st4 st5 st6">actice with color theory and the principles of </tspan></text>
<text transform="matrix(1 0 0 1 36 265.7383)"><tspan x="0" y="0" class="st4 st5 st6">design. Using the design p</tspan><tspan x="116.7" y="0" class="st4 st5 st6">r</tspan><tspan x="120" y="0" class="st4 st5 st6">ocess helps execute the </tspan></text>
<text transform="matrix(1 0 0 1 36 284.7383)"><tspan x="0" y="0" class="st4 st5 st6">best end result for my p</tspan><tspan x="104.9" y="0" class="st4 st5 st6">r</tspan><tspan x="108.1" y="0" class="st4 st5 st6">ojects. When working on a </tspan></text>
<text transform="matrix(1 0 0 1 36 303.7383)"><tspan x="0" y="0" class="st4 st5 st6">p</tspan><tspan x="5.6" y="0" class="st4 st5 st6">r</tspan><tspan x="8.9" y="0" class="st4 st5 st6">oject, I design well thought-out compositions while </tspan></text>
<text transform="matrix(1 0 0 1 36 322.7383)"><tspan x="0" y="0" class="st4 st5 st6">ze</tspan><tspan x="10.3" y="0" class="st4 st5 st6">r</tspan><tspan x="13.5" y="0" class="st4 st5 st6">oing in on detail and precision. Along with my </tspan></text>
<text transform="matrix(1 0 0 1 36 341.7383)"><tspan x="0" y="0" class="st4 st5 st6">l</tspan><tspan x="2.4" y="0" class="st4 st5 st6">o</tspan><tspan x="8.1" y="0" class="st4 st5 st6">ve of typog</tspan><tspan x="57.2" y="0" class="st4 st5 st6">r</tspan><tspan x="60.4" y="0" class="st4 st5 st6">aphy, I am interested in extending my </tspan></text>
<text transform="matrix(1 0 0 1 36 360.7383)"><tspan x="0" y="0" class="st4 st5 st6">knowledge of type as well as corpo</tspan><tspan x="155.5" y="0" class="st4 st5 st6">r</tspan><tspan x="158.7" y="0" class="st4 st5 st6">ate design and </tspan></text>
<text transform="matrix(1 0 0 1 36 379.7383)"><tspan x="0" y="0" class="st4 st5 st6">illust</tspan><tspan x="21.2" y="0" class="st4 st5 st6">r</tspan><tspan x="24.4" y="0" class="st4 st5 st6">ation. If you hire me I will contribute great work </tspan></text>
<text transform="matrix(1 0 0 1 36 398.7383)" class="st4 st5 st6">ethic, communication and leadership skills as well as </text>
<text transform="matrix(1 0 0 1 36 417.7383)"><tspan x="0" y="0" class="st4 st5 st6">the ability </tspan><tspan x="45.4" y="0" class="st4 st5 st6">t</tspan><tspan x="48.5" y="0" class="st4 st5 st6">o work with a team. </tspan></text>
<text transform="matrix(1 0 0 1 333.0469 215.834)"><tspan x="0" y="0" class="st7 st8 st9">UMass Da</tspan><tspan x="54.4" y="0" class="st7 st8 st9">r</tspan><tspan x="59.1" y="0" class="st7 st8 st9">tmouth</tspan></text>
<text transform="matrix(1 0 0 1 333.0469 234.834)"><tspan x="0" y="0" class="st10 st5 st6">B</tspan><tspan x="6.2" y="0" class="st10 st5 st6">F</tspan><tspan x="10.9" y="0" class="st10 st5 st6">A G</tspan><tspan x="26.7" y="0" class="st10 st5 st6">r</tspan><tspan x="29.9" y="0" class="st10 st5 st6">aphic Design</tspan></text>
<text transform="matrix(1 0 0 1 333.0469 253.834)" class="st10 st5 st6">2019 - present</text>
<text transform="matrix(1 0 0 1 333.0469 272.834)"><tspan x="0" y="0" class="st10 st5 st6">G</tspan><tspan x="6.8" y="0" class="st10 st5 st6">P</tspan><tspan x="12.5" y="0" class="st10 st5 st6">A: 3.9</tspan></text>
<text transform="matrix(1 0 0 1 333.0469 291.834)"><tspan x="0" y="0" class="st10 st5 st6">G</tspan><tspan x="6.8" y="0" class="st10 st5 st6">r</tspan><tspan x="10" y="0" class="st10 st5 st6">aduation: 2024</tspan></text>
<text transform="matrix(1 0 0 1 333.0469 320.834)" class="st7 st8 st9">Old Colony Regional VTHS</text>
<text transform="matrix(1 0 0 1 333.0469 339.834)" class="st10 st5 st6">2015 - 2019</text>
<text transform="matrix(1 0 0 1 333.0469 188.1514)"><tspan x="0" y="0" class="st7 st2 st11">EDU</tspan><tspan x="44.3" y="0" class="st7 st2 st11">C</tspan><tspan x="58.1" y="0" class="st7 st2 st11 st12">A</tspan><tspan x="71.3" y="0" class="st7 st2 st11">TION</tspan></text>
<text transform="matrix(1 0 0 1 333.0469 590.2842)" class="st7 st8 st9">Book Keeper</text>
<text transform="matrix(1 0 0 1 333.0469 609.2842)"><tspan x="0" y="0" class="st10 st5 st6">Handy Andy</tspan><tspan x="53.3" y="0" class="st10 st5 st6">’</tspan><tspan x="54.8" y="0" class="st10 st5 st6">s Quality </tspan><tspan x="95.6" y="0" class="st10 st5 st6">V</tspan><tspan x="101.7" y="0" class="st10 st5 st6">ac </tspan></text>
<text transform="matrix(1 0 0 1 333.0469 628.2842)" class="st10 st5 st6">2014 - present</text>
<text transform="matrix(1 0 0 1 333.0469 655.2842)"><tspan x="0" y="0" class="st10 st5 st6">A</tspan><tspan x="6.4" y="0" class="st10 st5 st6">t Handy Andy</tspan><tspan x="65.5" y="0" class="st10 st5 st6">’</tspan><tspan x="67" y="0" class="st10 st5 st6">s I use Quickbooks software </tspan></text>
<text transform="matrix(1 0 0 1 333.0469 674.2842)"><tspan x="0" y="0" class="st10 st5 st6">t</tspan><tspan x="3.2" y="0" class="st10 st5 st6">o pay bills, and keep t</tspan><tspan x="98.2" y="0" class="st10 st5 st6">r</tspan><tspan x="101.3" y="0" class="st10 st5 st6">ack of daily income. </tspan></text>
<text transform="matrix(1 0 0 1 333.0469 693.2842)"><tspan x="0" y="0" class="st10 st5 st6">Quickbooks allows me </tspan><tspan x="102.5" y="0" class="st10 st5 st6">t</tspan><tspan x="105.7" y="0" class="st10 st5 st6">o pay the sales </tspan></text>
<text transform="matrix(1 0 0 1 333.0469 712.2842)" class="st10 st5 st6">tax, take care of credit card charges and </text>
<text transform="matrix(1 0 0 1 333.0469 731.2842)"><tspan x="0" y="0" class="st10 st5 st6">pu</tspan><tspan x="11.1" y="0" class="st10 st5 st6">r</tspan><tspan x="14.4" y="0" class="st10 st5 st6">chases and monthly payments.</tspan></text>
<text transform="matrix(1 0 0 1 333.0469 561.2695)"><tspan x="0" y="0" class="st7 st2 st11 st13">W</tspan><tspan x="20.6" y="0" class="st7 st2 st11">ORK EXPERIENCE</tspan></text>
<text transform="matrix(1 0 0 1 36.3066 188.1499)" class="st1 st2 st11">ABOUT ME</text>
<text transform="matrix(1 0 0 1 36.0098 502.9922)"><tspan x="0" y="0" class="st4 st8 st6">P</tspan><tspan x="6.5" y="0" class="st4 st8 st6">r</tspan><tspan x="9.9" y="0" class="st4 st8 st6">ofessional</tspan></text>
<text transform="matrix(1 0 0 1 36.0098 521.9922)"><tspan x="0" y="0" class="st4 st5 st6">Adobe Illust</tspan><tspan x="52.8" y="0" class="st4 st5 st6">r</tspan><tspan x="55.9" y="0" class="st4 st5 st6">a</tspan><tspan x="61.4" y="0" class="st4 st5 st6">t</tspan><tspan x="64.6" y="0" class="st4 st5 st6">o</tspan><tspan x="70.3" y="0" class="st4 st5 st6">r</tspan><tspan x="73.1" y="0" class="st4 st5 st6">, Pho</tspan><tspan x="95" y="0" class="st4 st5 st6">t</tspan><tspan x="98.2" y="0" class="st4 st5 st6">oshop, InDesign, XD</tspan></text>
<text transform="matrix(1 0 0 1 36.0098 540.9922)"><tspan x="0" y="0" class="st4 st5 st6">UX / UI - Mobile App D</tspan><tspan x="98.2" y="0" class="st4 st5 st6">e</tspan><tspan x="103.4" y="0" class="st4 st5 st6">velopment</tspan></text>
<text transform="matrix(1 0 0 1 36.0098 559.9922)"><tspan x="0" y="0" class="st4 st5 st6">Corpo</tspan><tspan x="26.9" y="0" class="st4 st5 st6">r</tspan><tspan x="30.1" y="0" class="st4 st5 st6">ate B</tspan><tspan x="52.8" y="0" class="st4 st5 st6">r</tspan><tspan x="56" y="0" class="st4 st5 st6">anding</tspan></text>
<text transform="matrix(1 0 0 1 36.0098 578.9922)"><tspan x="0" y="0" class="st4 st5 st6">Typog</tspan><tspan x="27.6" y="0" class="st4 st5 st6">r</tspan><tspan x="30.8" y="0" class="st4 st5 st6">aphy</tspan></text>
<text transform="matrix(1 0 0 1 36.0098 597.9922)" class="st4 st5 st6">Quickbooks</text>
<text transform="matrix(1 0 0 1 36.0098 619.9922)" class="st4 st8 st6">Soft Skills</text>
<text transform="matrix(1 0 0 1 36.0098 638.9922)"><tspan x="0" y="0" class="st4 st5 st6">W</tspan><tspan x="8.7" y="0" class="st4 st5 st6">ork Ethic</tspan></text>
<text transform="matrix(1 0 0 1 36.0098 657.9922)" class="st4 st5 st6">Communication</text>
<text transform="matrix(1 0 0 1 36.0098 676.9922)" class="st4 st5 st6">Leadership</text>
<text transform="matrix(1 0 0 1 36.0098 695.9922)" class="st4 st5 st6">Teamwork</text>
<text transform="matrix(1 0 0 1 36.0098 714.9922)" class="st4 st5 st6">Creativity</text>
<text transform="matrix(1 0 0 1 36.0098 733.9922)" class="st4 st5 st6">Empathy</text>
<text transform="matrix(1 0 0 1 36.0098 752.9922)"><tspan x="0" y="0" class="st4 st5 st6">Moti</tspan><tspan x="20.1" y="0" class="st4 st5 st6">v</tspan><tspan x="24.9" y="0" class="st4 st5 st6">ation</tspan></text>
<text transform="matrix(1 0 0 1 36.0098 479.1602)" class="st1 st2 st11">SKILLS</text>
<text transform="matrix(1 0 0 1 375.8096 61.4785)" class="st10 st5 st6">508-985-3911 </text>
<text transform="matrix(1 0 0 1 375.8096 83.4785)" class="st10 st5 st6">mmchamp00@gmail.com</text>
<text transform="matrix(1 0 0 1 375.8096 105.4785)" class="st10 st5 st6">Acushnet Ma</text>
<text transform="matrix(1 0 0 1 36.3115 140.4121)"><tspan x="0" y="0" class="st1 st14 st15">G</tspan><tspan x="10.2" y="0" class="st1 st14 st15">r</tspan><tspan x="15.3" y="0" class="st1 st14 st15">aphic Designer &amp;</tspan><tspan x="128.5" y="0" class="st1 st14 st15"> </tspan><tspan x="131.8" y="0" class="st1 st14 st15">Typog</tspan><tspan x="173.7" y="0" class="st1 st14 st15">r</tspan><tspan x="178.8" y="0" class="st1 st14 st15">apher</tspan></text>
<text transform="matrix(1 0 0 1 333.3701 374.8096)" class="st7 st2 st11">COURSES</text>
<text transform="matrix(1 0 0 1 333.3604 399.3281)" class="st10 st5 st6">Digital Essentials</text>
<text transform="matrix(1 0 0 1 333.3604 418.3281)"><tspan x="0" y="0" class="st10 st5 st6">2D </tspan><tspan x="14.6" y="0" class="st10 st5 st6">F</tspan><tspan x="20.1" y="0" class="st10 st5 st6">orm and Su</tspan><tspan x="70.9" y="0" class="st10 st5 st6">r</tspan><tspan x="74.4" y="0" class="st10 st5 st6">face</tspan></text>
<text transform="matrix(1 0 0 1 333.3604 437.3281)"><tspan x="0" y="0" class="st10 st5 st6">Int</tspan><tspan x="11.5" y="0" class="st10 st5 st6">r</tspan><tspan x="14.8" y="0" class="st10 st5 st6">o </tspan><tspan x="23" y="0" class="st10 st5 st6">t</tspan><tspan x="26.1" y="0" class="st10 st5 st6">o G</tspan><tspan x="41.1" y="0" class="st10 st5 st6">r</tspan><tspan x="44.3" y="0" class="st10 st5 st6">aphic Design</tspan></text>
<text transform="matrix(1 0 0 1 333.3604 456.3281)"><tspan x="0" y="0" class="st10 st5 st6">Typog</tspan><tspan x="27.6" y="0" class="st10 st5 st6">r</tspan><tspan x="30.8" y="0" class="st10 st5 st6">aphy</tspan></text>
<text transform="matrix(1 0 0 1 333.3604 475.3281)"><tspan x="0" y="0" class="st10 st5 st6">Web</tspan><tspan x="19.8" y="0" class="st10 st5 st6"> </tspan><tspan x="22.1" y="0" class="st10 st5 st6">Typog</tspan><tspan x="49.7" y="0" class="st10 st5 st6">r</tspan><tspan x="52.9" y="0" class="st10 st5 st6">aphy</tspan></text>
<text transform="matrix(1 0 0 1 333.3604 494.3281)" class="st10 st5 st6">Information Design</text>
<text transform="matrix(1 0 0 1 333.3604 513.3281)"><tspan x="0" y="0" class="st10 st5 st6">Human Centered Design</tspan><tspan x="108.1" y="0" class="st10 st5 st6"> </tspan><tspan x="110.3" y="0" class="st10 st5 st6">Thinking</tspan></text>
<line class="st16" x1="36.3" y1="453.2" x2="241.5" y2="453.2"/>
<line class="st17" x1="333.4" y1="529.8" x2="513.6" y2="529.8"/>
<g>
	<defs>
		<rect id="SVGID_1_" x="345" y="91.2" width="24.7" height="20"/>
	</defs>
	<clipPath id="SVGID_2_">
		<use xlink:href="#SVGID_1_"  style="overflow:visible;"/>
	</clipPath>
	<g class="st18">
		<g>
			<defs>
				<rect id="SVGID_3_" x="-32768" y="-31975" width="65535" height="65535"/>
			</defs>
			<clipPath id="SVGID_4_">
				<use xlink:href="#SVGID_3_"  style="overflow:visible;"/>
			</clipPath>
			<path class="st19" d="M357.9,95.9l-7.6,6.3c0,0,0,0,0,0c0,0,0,0,0,0v6.4c0,0.2,0.1,0.4,0.3,0.6c0.2,0.2,0.4,0.3,0.6,0.3h5.1v-5.1
				h3.4v5.1h5.1c0.2,0,0.4-0.1,0.6-0.3c0.2-0.2,0.3-0.4,0.3-0.6v-6.4c0,0,0-0.1,0-0.1L357.9,95.9z"/>
			<path class="st19" d="M368.4,100.7l-2.9-2.4v-5.4c0-0.1,0-0.2-0.1-0.3c-0.1-0.1-0.2-0.1-0.3-0.1h-2.5c-0.1,0-0.2,0-0.3,0.1
				c-0.1,0.1-0.1,0.2-0.1,0.3v2.6l-3.2-2.7c-0.3-0.2-0.6-0.3-1-0.3c-0.4,0-0.7,0.1-1,0.3l-9.5,7.9c-0.1,0.1-0.1,0.2-0.1,0.3
				c0,0.1,0,0.2,0.1,0.3l0.8,1c0.1,0.1,0.2,0.1,0.3,0.1c0.1,0,0.2,0,0.3-0.1l9.2-7.7l9.2,7.7c0.1,0.1,0.2,0.1,0.3,0.1h0
				c0.1,0,0.2-0.1,0.3-0.1l0.8-1c0.1-0.1,0.1-0.2,0.1-0.3C368.6,100.9,368.5,100.8,368.4,100.7"/>
		</g>
	</g>
</g>
<g>
	<defs>
		<rect id="SVGID_5_" width="576" height="792"/>
	</defs>
	<clipPath id="SVGID_6_">
		<use xlink:href="#SVGID_5_"  style="overflow:visible;"/>
	</clipPath>
	<path class="st20" d="M362,79.5l6.7-5.7v11.4L362,79.5z M354.8,80l3,2.6c0.1,0.1,0.2,0.1,0.3,0.1c0.1,0,0.2,0,0.3-0.1l3-2.6
		l6.6,5.7h-19.8L354.8,80z M361.2,79.2C361.2,79.2,361.1,79.2,361.2,79.2c-0.1,0-0.1,0.1-0.1,0.1l-2.9,2.5l-9.9-8.5H368L361.2,79.2z
		 M347.6,73.8l6.6,5.7l-6.6,5.7V73.8z M369.4,86.1c0,0,0-0.1,0-0.1V73c0,0,0-0.1,0-0.1v0c0,0-0.1-0.1-0.1-0.1c0,0-0.1-0.1-0.1-0.1
		c-0.1,0-0.1,0-0.1,0h0h-21.9h0c-0.1,0-0.1,0-0.1,0c-0.1,0-0.1,0-0.1,0.1c0,0-0.1,0.1-0.1,0.1v0c-0.1,0-0.1,0.1-0.1,0.1V86
		c0,0,0,0.1,0,0.1v0c0,0,0.1,0.1,0.1,0.1c0,0,0,0,0.1,0l0,0c0,0,0,0,0.1,0h0c0.1,0,0.1,0,0.2,0h21.8c0.1,0,0.1,0,0.2,0h0
		c0,0,0,0,0.1,0c0,0,0,0,0,0c0,0,0,0,0,0C369.4,86.2,369.4,86.2,369.4,86.1C369.4,86.2,369.4,86.1,369.4,86.1"/>
	<path class="st20" d="M364.5,55.7c-0.4,0-0.7-0.3-0.8-0.7c-0.3-2.9-2.6-5.2-5.4-5.6c-0.4-0.1-0.7-0.4-0.7-0.9
		c0.1-0.4,0.4-0.7,0.9-0.7c3.6,0.4,6.4,3.4,6.8,7C365.3,55.2,365,55.6,364.5,55.7C364.5,55.7,364.5,55.7,364.5,55.7 M361.4,55.7
		c-0.4,0-0.7-0.3-0.8-0.7c-0.2-1.2-1.2-2.2-2.4-2.4c-0.4-0.1-0.7-0.5-0.6-0.9c0.1-0.4,0.5-0.7,0.9-0.6c1.9,0.4,3.3,1.9,3.6,3.8
		c0.1,0.4-0.2,0.8-0.6,0.9C361.5,55.7,361.4,55.7,361.4,55.7 M349.7,50.2c-0.2,0-0.4,0.2-0.5,0.3c-0.1,0.2-0.2,0.3-0.2,0.5
		c0.3,2.5,1.1,4.7,2.3,6.6c1.1,1.8,2.6,3.4,4.4,4.5c2,1.3,4.1,2.1,6.3,2.3l0.1,0c0.4,0,0.8-0.4,0.8-0.8v-2.4c0-0.4-0.2-0.8-0.6-0.8
		c-0.9-0.1-1.6-0.3-2.3-0.6c-0.3-0.2-0.7,0-0.9,0.2l-1,1c-0.2,0.3-0.6,0.3-0.9,0.1c-2.1-1.2-3.8-2.9-4.9-5.1
		c-0.2-0.3-0.1-0.7,0.1-0.9l1-1c0.2-0.2,0.3-0.5,0.1-0.8c-0.3-0.8-0.5-1.6-0.6-2.5c0-0.4-0.4-0.6-0.8-0.6H349.7z M362.2,66H362
		c-2.5-0.2-4.9-1.1-7.1-2.6c-2-1.3-3.6-3-4.9-5c-1.3-2.1-2.2-4.5-2.5-7.2c-0.1-0.6,0.1-1.2,0.5-1.7c0.4-0.5,1-0.8,1.6-0.9l2.5,0
		c1.2,0,2.2,0.9,2.3,2.1c0.1,0.7,0.3,1.4,0.5,2.1c0.3,0.8,0.1,1.8-0.5,2.5l-0.6,0.6c0.9,1.5,2.1,2.7,3.5,3.6l0.6-0.6
		c0.8-0.7,1.7-0.8,2.5-0.5c0.6,0.2,1.2,0.4,1.9,0.5c1.1,0.1,2,1.1,2,2.4v2.4C364.5,64.9,363.4,66,362.2,66"/>
</g>
</svg>
