<?xml version="1.0" encoding="utf-8"?>
<!-- Generator: Adobe Illustrator 24.3.0, SVG Export Plug-In . SVG Version: 6.00 Build 0)  -->
<svg version="1.1" id="Layer_1" xmlns="http://www.w3.org/2000/svg" xmlns:xlink="http://www.w3.org/1999/xlink" x="0px" y="0px"
	 viewBox="0 0 905 4316" style="enable-background:new 0 0 905 4316;" xml:space="preserve">
<style type="text/css">
	.st0{fill:#C1531B;}
	.st1{fill:#7F2629;}
	.st2{fill:#C76C61;}
	.st3{fill:#231F20;}
	.st4{fill:#69C9CD;}
</style>
<g>
	<g>
		<path d="M94.9,467.2c0,0-12.4-21.8,1-39c13.1,14,0.9,38.3,0.9,38.3L94.9,467.2z"/>
	</g>
	<g>
		<path d="M75.5,493.9c0,0,18.1-17.5,38-8.7c-10.3,16.2-36.9,10.4-36.9,10.4L75.5,493.9z"/>
	</g>
	<g>
		<path d="M42.9,568.8c0,0,13.4-21.3,34.9-17.4c-6.2,18.2-33.4,18.9-33.4,18.9L42.9,568.8z"/>
	</g>
	<g>
		<path d="M38.8,639.5c0,0,9.1-23.4,30.9-23.8c-2.6,19-29.1,24.9-29.1,24.9L38.8,639.5z"/>
	</g>
	<g>
		<path d="M62.8,724.6c0,0,2.4-25,23.3-31.2c2.6,19-21.4,31.8-21.4,31.8L62.8,724.6z"/>
	</g>
	<g>
		<path d="M107.5,804.5c0,0-3.8-24.8,14.9-36c7.3,17.8-12.8,36.1-12.8,36.1L107.5,804.5z"/>
	</g>
	<g>
		<path d="M145.8,877.2c0,0-3.8-24.8,14.9-36c7.3,17.8-12.8,36.1-12.8,36.1L145.8,877.2z"/>
	</g>
	<g>
		<path d="M174.9,953.1c0,0-3.8-24.8,14.9-36c7.3,17.8-12.8,36.1-12.8,36.1L174.9,953.1z"/>
	</g>
	<g>
		<path d="M156.9,1046.3c0,0,12.8-21.6,34.4-18.3c-5.7,18.3-32.9,19.7-32.9,19.7L156.9,1046.3z"/>
	</g>
	<g>
		<path d="M149.9,423.8c0,0-12.4-21.8,1-39c13.1,14,0.9,38.3,0.9,38.3L149.9,423.8z"/>
	</g>
	<g>
		<path d="M187.6,361.8c0,0-26.3-10.9-26.4-32.1c21.4,4.2,27.7,30.5,27.7,30.5L187.6,361.8z"/>
	</g>
	<g>
		<path d="M179.7,400.7c0,0,22.8-17.1,41-6.4c-14.5,16.3-40.3,8.3-40.3,8.3L179.7,400.7z"/>
	</g>
	<g>
		<path d="M55.3,532.4c0,0-18.8-16.7-11.5-37.2c16.9,9.1,13.2,36,13.2,36L55.3,532.4z"/>
	</g>
	<g>
		<path d="M35.3,615.7c0,0-23.2-9.7-22.9-31.5c19,3.1,24.1,29.8,24.1,29.8L35.3,615.7z"/>
	</g>
	<g>
		<path d="M48.2,693.3c0,0-24.1-7.2-26.2-28.9c19.2,1,27.2,27,27.2,27L48.2,693.3z"/>
	</g>
	<g>
		<path d="M90.9,781.6c0,0-25-2.3-31.3-23.2c19-2.7,31.9,21.2,31.9,21.2L90.9,781.6z"/>
	</g>
	<g>
		<path d="M131.6,852.4c0,0-25.1-0.9-32.6-21.4c18.8-3.8,33.1,19.4,33.1,19.4L131.6,852.4z"/>
	</g>
	<g>
		<path d="M164.7,924.3c0,0-25.1-0.9-32.6-21.4c18.8-3.8,33.1,19.4,33.1,19.4L164.7,924.3z"/>
	</g>
	<g>
		<path d="M171.5,1010.1c0,0-21.1-13.6-17.1-35c18.1,6.4,18.6,33.6,18.6,33.6L171.5,1010.1z"/>
	</g>
	<g>
		<path d="M130.9,1072.7c0,0-13.9-20.9-1.6-38.9c14.1,13.1,3.5,38.2,3.5,38.2L130.9,1072.7z"/>
	</g>
	<g>
		<path d="M186.3,163.5c-10,4.8-16.2,11.6-17.8,19.8c-1.5,7.9,0.9,10.6,11.4,12.7l40.6,8c7.9,1.5,10.6-0.2,12-7.2
			c1.2-6.2,0.7-10.8-1.4-14.7c0.1,2.3,0,3.3-0.2,4.5c-1.3,6.3-8,10.4-15.3,9s-11.6-8.2-10-16.2c1.5-7.9,8-12.3,16-10.7
			c12,2.4,17.2,14.8,13.7,32.6c-5.2,26.4-24.7,42.7-46.1,38.5c-10.7-2.1-19.6-8.9-24.2-18.8c-4.2-8.5-5-18.5-2.6-31.1
			c3-15.4,10-24.4,22.8-29.5L186.3,163.5z"/>
	</g>
	<g>
		<path d="M424.7,1118.2c-4.8,10-5.5,19.1-1.6,26.5c3.7,7.1,7.3,7.8,16.8,2.8l36.8-19c7.1-3.7,8.2-6.7,4.9-13.1
			c-2.9-5.6-6.1-8.9-10.3-10.6c1.5,1.7,2.1,2.6,2.6,3.6c3,5.8,0.2,13.1-6.4,16.5c-6.7,3.4-14.2,0.8-17.9-6.5
			c-3.7-7.1-1.4-14.6,5.9-18.4c10.9-5.6,22.7,0.9,31,17c12.3,23.9,7.2,48.8-12.2,58.8c-9.7,5-20.9,5.2-30.7,0.3
			c-8.6-4-15.5-11.4-21.3-22.7c-7.2-13.9-7.3-25.3-0.5-37.3L424.7,1118.2z"/>
	</g>
	<g>
		<path d="M184.8,631.5c4.7-10,5.3-19.2,1.4-26.5c-3.7-7.1-7.3-7.7-16.8-2.7l-36.6,19.3c-7.1,3.7-8.2,6.8-4.8,13.1
			c2.9,5.6,6.2,8.9,10.3,10.5c-1.5-1.7-2.1-2.5-2.7-3.6c-3-5.7-0.3-13.1,6.3-16.6s14.1-0.9,18,6.3c3.7,7.1,1.5,14.6-5.7,18.4
			c-10.9,5.7-22.7-0.7-31.1-16.7c-12.5-23.8-7.6-48.7,11.7-58.9c9.6-5.1,20.8-5.4,30.7-0.6c8.6,3.9,15.6,11.3,21.5,22.6
			c7.3,13.9,7.5,25.3,0.8,37.3L184.8,631.5z"/>
	</g>
	<g>
		<path class="st0" d="M149.7,478.3l2.8,19.6l-2.3,0.3c-1.3-5.2-3.3-7-7.1-6.4c-1.5,0.2-3.3,1.1-5.4,2.6l-4.9,3.5l18.4,7.1l-0.7-4.9
			l2.3-0.3l5.4,37.6l-2.3,0.3l-0.4-3l-48-18.9L95,524.9c5.9,0.3,10,4,10.8,9.6c0.9,6.2-3.3,11.5-9.7,12.5c-6.3,0.9-11.5-3-12.4-9.4
			c-0.8-5.2,1.9-9.7,8.5-14.4l47.1-33c6-4.2,8.1-7,8.2-11.5L149.7,478.3z"/>
	</g>
	<g>
		<path class="st0" d="M337,946.7l8.9,17.7l-2.1,1c-2.9-4.5-5.4-5.6-8.8-3.9c-1.3,0.7-2.8,2.1-4.3,4.2l-3.5,4.8l19.7,1l-2.2-4.4
			l2.1-1l17,34l-2.1,1l-1.3-2.7l-51.5-2.9l-9.1,12.4c5.7-1.5,10.8,0.7,13.3,5.7c2.8,5.6,0.5,12-5.3,14.9c-5.7,2.8-11.9,0.8-14.7-5
			c-2.4-4.7-1.3-9.8,3.6-16.3l34.3-46.1c4.4-5.9,5.5-9.2,4.2-13.6L337,946.7z"/>
	</g>
	<g>
		<path d="M510.2,1399.1c-3.6-145-86.8-298.2-174.8-460.3C263.1,806,188.5,668.6,161.8,536.1c-40.7-202.3,30.5-405.3,76.5-508.2
			l-5.5-2.5c-46.3,103.6-117.9,308-76.9,511.9C182.7,670.7,257.6,808.5,330,941.8c87.7,161.5,170.6,313.9,174.1,457.5L510.2,1399.1z
			"/>
	</g>
	<g>
		<path d="M210.3,576.2l2.2-5.6C163.3,551.2,152,462,151.9,461.1l-6,0.7C146.4,465.6,157.7,555.5,210.3,576.2z"/>
	</g>
	<g>
		<path d="M158,505.7l-0.6-0.6l-3.2-14.2l3.6-0.1c2.2-0.1,53.5-1.7,70.1,32.7l1.6,3.3l-3.5,1c-4.4,1.2-8.7,1.8-12.9,2
			C182.2,530.9,159.1,506.9,158,505.7z M161.8,496.8l1.2,5.4c4,3.9,28.4,26.1,57.7,20.5C206.8,499.9,172.9,497.1,161.8,496.8z"/>
	</g>
	<g>
		<path d="M214.4,345.9l3-5.3c-46.1-26.1-44.8-116-44.8-116.9l-6-0.1C166.5,227.5,165.2,318.1,214.4,345.9z"/>
	</g>
	<g>
		<path d="M172.4,268.8l-0.5-0.7l-1.1-14.5l3.6,0.4c2.2,0.2,53.2,5.8,64.8,42.1l1.1,3.5l-3.6,0.4c-1.7,0.2-3.3,0.3-4.9,0.4
			C196.3,301.8,173.4,270.2,172.4,268.8z M177.4,260.5l0.4,5.5c3.4,4.4,24.2,29.6,53.9,28.4c0.1,0,0.3,0,0.4,0
			C221.6,269.8,188.5,262.3,177.4,260.5z"/>
	</g>
	<g>
		<path d="M423.8,996.6c0.3,0,0.6,0,1,0l-0.3-6c-0.3,0-0.6,0-0.8,0c-52.5,2.1-99.6-73.4-100.1-74.1l-5.1,3.2
			C320.4,922.8,367.8,998.9,423.8,996.6z"/>
	</g>
	<g>
		<path d="M347.7,954.4l-0.8-0.3l-8.8-11.6l3.2-1.6c1.9-1,47.9-23.9,77.3,0.3l2.8,2.3l-2.8,2.3c-12,10-25.6,13.4-37.7,13.9
			C363.2,960.5,348.7,954.8,347.7,954.4z M347.4,944.7l3.3,4.4c5.2,1.9,36.7,11.9,61-5.5C389.6,928.7,357.7,940.3,347.4,944.7z"/>
	</g>
	<g>
		<path class="st1" d="M133.5,189.8l12.7,21.7l-2.9,1.7l-4.5-7.7l-44.3,25.8c-2.1-5.7-3.8-9.5-9.3-19l-2.1-3.6l2.9-1.7l4.6,7.8
			l23-13.4c5.7-3.3,7.4-5,9.1-8c2.2-4.1,2.2-9.6,0.2-13.1c-1-1.8-2.6-2.9-4.4-3.1c-1.9-0.3-2.9,0.1-7.7,2.9l-34.4,20
			c-2.1-5.7-3.8-9.5-9.3-19l-2.1-3.6l2.9-1.7l4.6,7.8l27.5-16c6.9-4,10.4-5.1,14.3-4.4c3.9,0.5,7.5,3.5,10.3,8.3
			c4.3,7.4,4.6,13.5,1,22.9L133.5,189.8z"/>
	</g>
	<g>
		<path class="st1" d="M246,604l4.2-7.8l3.2,1.7l-15.7,29.4l-3.2-1.7l3-5.7l-36.1-48.4l1.8-3.4l51.3,5.3c6.9,0.8,7.4,0.4,10.1-4.3
			l1.6-2.9l3.2,1.7L258,589.2l-3.2-1.7l2.5-4.7c1.6-3,1.7-4.3,0.3-5.1c-0.6-0.3-1.3-0.6-3.5-0.7l-30.4-3.1L246,604z"/>
	</g>
	<g>
		<g>
			<path class="st1" d="M476.3,1003.4c-3,16.3-17.3,26.9-32.3,24.2c-15.3-2.8-24.7-17.8-21.6-34.3c3-16.3,17.2-27.1,32.1-24.3
				C469.9,971.9,479.4,986.7,476.3,1003.4z M472.8,1002.7c0.8-4.3-0.2-8.2-3-10.7c-2.4-2.3-7.4-3.9-18.4-6c-9.4-1.7-15-2.1-18-1.3
				c-3.9,1.2-6.7,4.6-7.5,9.3c-0.8,4.3,0.2,8.2,3,10.7c2.4,2.3,7.5,4,18.1,5.9c9.8,1.8,15.3,2.2,18.3,1.4
				C469.1,1010.8,471.9,1007.4,472.8,1002.7z"/>
		</g>
	</g>
	<g>
		<path d="M570.5,1376l1-5.9c-52.1-9.1-81.1-94.2-81.4-95.1l-5.7,1.9C485.6,1280.5,514.8,1366.3,570.5,1376z"/>
	</g>
	<g>
		<path d="M505,1317.4l-0.7-0.5l-5.9-13.3l3.5-0.9c2.1-0.5,52.1-12.4,75.2,17.9l2.2,2.9l-3.2,1.6c-8.2,4.1-16.4,5.9-24.2,6.2
			C526.9,1332.5,506.2,1318.2,505,1317.4z M506.9,1307.9l2.2,5c4.7,3,32.9,20,60.7,8.5C551.7,1301.9,517.9,1306,506.9,1307.9z"/>
	</g>
	<g>
		<path d="M126,183.7c59.4-5.6,87.4-93.8,88.5-97.6l-6.1-1.9c-0.3,0.9-27.9,87.9-83,93.1L126,183.7z"/>
	</g>
	<g>
		<path d="M119.6,129.2l-3.1-1.7l2.2-2.8c23.6-30.1,77.4-13.5,79.7-12.7l3.2,1l-5.8,13.3l-0.8,0.5c-1,0.6-16.9,10.4-38.3,11.3
			C145.4,138.6,132.5,136.5,119.6,129.2z M193.3,116.9c-11.2-2.9-48.6-10.6-67.5,8.8c30.2,14.8,60-0.6,65.2-3.5L193.3,116.9z"/>
	</g>
	<g>
		<path d="M185.6,767.8c41.7-42.7,6.1-128.1,4.5-131.7l-5.9,2.5c0.4,0.8,35.5,85.1-3.2,124.7L185.6,767.8z"/>
	</g>
	<g>
		<path d="M142,727.5c-1.5-38.3,50.4-60.3,52.6-61.2l3.1-1.3l4.2,13.9l-0.3,0.9c-0.6,1.7-14,42.5-56,50.6l-3.5,0.7L142,727.5z
			 M193.8,673.3c-10.4,5-43.9,23.3-45.8,50.4c32.6-8.2,45.4-39.3,47.5-44.8L193.8,673.3z"/>
	</g>
	<g>
		<path class="st2" d="M345,1194.2l7.9,4.1l-1.6,3.2l-29.6-15.3l1.6-3.2l5.7,3l47.9-36.8l3.4,1.8l-4.6,51.4
			c-0.7,6.9-0.3,7.4,4.5,10.1l2.9,1.5l-1.6,3.2l-21.7-11.2l1.6-3.2l4.7,2.4c3.1,1.6,4.3,1.6,5.1,0.2c0.3-0.6,0.5-1.3,0.7-3.5
			l2.7-30.5L345,1194.2z"/>
	</g>
	<g>
		<path class="st2" d="M576.2,1360.5l13.6-21.2l2.9,1.8l-4.8,7.5l43.2,27.6c-4.1,4.4-6.7,7.8-12.6,17l-2.3,3.5l-2.9-1.8l4.9-7.6
			l-22.5-14.4c-5.6-3.6-7.8-4.4-11.3-4.5c-4.6-0.1-9.6,2.4-11.7,5.8c-1.1,1.7-1.4,3.6-0.7,5.3c0.6,1.8,1.4,2.5,6.1,5.5l33.5,21.4
			c-4.1,4.4-6.7,7.8-12.6,17l-2.3,3.5l-2.9-1.8l4.9-7.6l-26.8-17.1c-6.7-4.3-9.3-6.9-10.5-10.7c-1.3-3.7-0.3-8.3,2.6-12.9
			c4.6-7.2,9.9-10.2,19.9-11.3L576.2,1360.5z"/>
	</g>
	<g>
		<g>
			<path class="st2" d="M254,379.6c-11.4,12.1-29.1,13.3-40.2,2.8c-11.3-10.7-11.1-28.3,0.3-40.5c11.4-12.1,29.1-13.5,40.1-3.1
				C265.8,349.6,265.7,367.2,254,379.6z M251.5,377c3-3.2,4.2-7,3.2-10.6c-0.8-3.3-4.1-7.3-12.2-14.9c-7-6.6-11.5-9.9-14.4-10.8
				c-3.9-1.1-8.1,0.2-11.4,3.7c-3,3.2-4.2,7-3.2,10.6c0.8,3.3,4.2,7.4,12,14.8c7.3,6.8,11.7,10.1,14.6,11
				C244,381.9,248.2,380.5,251.5,377z"/>
		</g>
	</g>
	<g>
		<path class="st2" d="M195.3,767.6L219,776l-1.1,3.2l-8.4-3l-17.1,48.3c-5.2-3-9.1-4.8-19.4-8.5l-4-1.4l1.1-3.2l8.5,3l8.9-25.1
			c2.2-6.2,2.5-8.6,1.8-12c-1-4.5-4.5-8.8-8.3-10.1c-1.9-0.7-3.8-0.5-5.4,0.5c-1.6,1-2.1,2-4,7.2l-13.3,37.5
			c-5.2-3-9.1-4.8-19.4-8.5l-4-1.4l1.1-3.2l8.5,3l10.6-30c2.7-7.5,4.6-10.6,8.1-12.6c3.3-2.1,8-2.2,13.2-0.3
			c8,2.8,12.2,7.3,15.6,16.9L195.3,767.6z"/>
	</g>
	<g>
		<path d="M378,1157.3c41.7-42.7,6.1-128.1,4.5-131.7l-5.9,2.5c0.4,0.8,35.5,85.1-3.2,124.7L378,1157.3z"/>
	</g>
	<g>
		<path d="M334.4,1117.1c-1.5-38.3,50.4-60.3,52.6-61.2l3.1-1.3l4.2,13.9l-0.3,0.9c-0.6,1.7-14,42.5-56,50.5l-3.5,0.7L334.4,1117.1z
			 M386.3,1062.8c-10.4,5-43.9,23.2-45.8,50.3c32.6-8.2,45.4-39.3,47.5-44.8L386.3,1062.8z"/>
	</g>
	<g>
		<g>
			<path d="M286.3,135C233.7,118,232,30.4,231.9,26.7l-0.1-5.3l17.1,9.6l0.4,0.2c0.5,0.4,50.9,40,40.9,101.2l-0.6,3.5L286.3,135z
				 M238.2,32c1.2,18.6,8.2,80.3,46.6,96c6.6-53.9-36.1-89.3-39-91.7L238.2,32z"/>
		</g>
		<g>
			<path d="M254.1,84.5c3.2-8.6,3.6-16.2,1.2-26.3c-1.2-4.9-3-9.5-5.7-14.4c-2.5-4.5-4.2-6.6-7.7-9.8l0.8-1.2
				c11.1,5.7,17.6,13.1,20,22.9c2.3,9.4-0.1,19.2-7.2,29.6L254.1,84.5z"/>
		</g>
	</g>
	<g>
		<g>
			<path d="M83.9,437.3c-13.8-53.5,59.3-101.8,62.4-103.8l4.4-2.9l1,19.6l0,0.4c-0.1,0.6-6.7,64.4-63.7,88.7l-3.2,1.4L83.9,437.3z
				 M145.2,341.6c-15.1,11-63.5,49.8-56.3,90.6c49.1-23.2,56.3-78.2,56.7-82L145.2,341.6z"/>
		</g>
		<g>
			<path d="M109.4,383.1c9-1.9,15.7-5.6,22.8-13.1c3.5-3.6,6.4-7.6,9.1-12.5c2.4-4.5,3.4-7.1,4.2-11.7l1.5,0
				c1.1,12.4-1.7,21.9-8.7,29.1c-6.7,6.9-16.3,10.2-28.8,9.7L109.4,383.1z"/>
		</g>
	</g>
	<g>
		<g>
			<path d="M428.3,1305.4c-30.3-46.2,23.3-115.5,25.6-118.4l3.2-4.1l7.2,18.2l0.1,0.4c0.2,0.6,14.5,63.1-31.7,104.5l-2.6,2.3
				L428.3,1305.4z M455.4,1195.1c-10.7,15.3-44,67.6-24,103.9c39-37.8,28-92.2,27.2-95.9L455.4,1195.1z"/>
		</g>
		<g>
			<path d="M434.9,1246c7.9-4.7,13-10.4,17.4-19.7c2.1-4.6,3.6-9.3,4.5-14.8c0.9-5,0.9-7.8,0.1-12.4l1.4-0.5
				c5.1,11.4,5.5,21.3,1.2,30.3c-4.1,8.7-12.2,14.9-24.2,18.5L434.9,1246z"/>
		</g>
	</g>
	<g>
		<g>
			<path d="M239.3,771.6l-2.8-4.6l20.2-0.5l0.4,0c0.7,0.1,66,8.5,89.5,68l1.3,3.4l-3.5,0.8c-3.5,0.8-6.9,1.3-10.4,1.4
				C283.3,842.2,241.2,774.7,239.3,771.6z M256.6,772.7l-8.9,0.2c10.9,15.9,49.3,67,91.7,60.4C316.8,782.1,260.4,773.3,256.6,772.7z
				"/>
		</g>
		<g>
			<path d="M289.4,811.1c-1.7-9.3-5.4-16.3-12.8-23.9c-3.6-3.7-7.7-6.8-12.6-9.7c-4.6-2.6-7.2-3.6-12-4.6l0.1-1.5
				c12.8-0.9,22.5,2.3,29.7,9.7c7,7.1,10.1,17.1,9.2,30L289.4,811.1z"/>
		</g>
	</g>
	<g>
		<g>
			<path d="M147.1,395.6c25.1,7.8,41.1,22.8,46.7,43.6s-0.6,35.4-16.6,39.7c-13.7,3.7-26.2-2.8-29.5-15.2
				c-3.2-11.9,3.4-23.9,14.8-27c4.1-1.1,9.1-0.7,12.7,1c3.6,1.5,3.9,1.7,4.8,1.4c1.4-0.4,1.7-1.9,1.1-4
				c-3.6-13.5-17.3-25.5-36.8-32.5L147.1,395.6z"/>
		</g>
	</g>
	<g>
		<g>
			<path d="M206.5,678.5c26.3-0.6,46.2,8.6,58.1,26.6c11.9,18,10.7,33.8-3.1,42.9c-11.8,7.8-25.7,5.7-32.8-5
				c-6.8-10.3-4.4-23.8,5.5-30.3c3.5-2.3,8.4-3.6,12.4-3.1c3.9,0.3,4.2,0.3,5-0.2c1.2-0.8,1-2.4-0.2-4.1
				c-7.7-11.6-24.5-18.7-45.3-19.2L206.5,678.5z"/>
		</g>
	</g>
	<g>
		<g>
			<path d="M467,1210.6c26.3-0.6,46.2,8.6,58.1,26.6c11.9,18,10.7,33.8-3.1,42.9c-11.8,7.8-25.7,5.7-32.8-5
				c-6.8-10.3-4.4-23.8,5.5-30.3c3.5-2.3,8.4-3.6,12.4-3.1c3.9,0.3,4.2,0.3,5-0.2c1.2-0.8,1-2.4-0.2-4.1
				c-7.7-11.6-24.5-18.7-45.3-19.2L467,1210.6z"/>
		</g>
	</g>
	<g>
		<g>
			<path d="M149.8,326.2c-23.3-12.1-36.4-29.8-38.1-51.3c-1.7-21.5,6.9-34.7,23.5-36.1c14.2-1.1,25.3,7.5,26.3,20.2
				c1,12.3-7.6,22.9-19.4,23.9c-4.2,0.3-9.1-0.9-12.4-3.3c-3.3-2.1-3.5-2.3-4.5-2.3c-1.4,0.1-2,1.6-1.8,3.7
				c1.1,13.9,12.5,28.2,30.4,38.6L149.8,326.2z"/>
		</g>
	</g>
	<g>
		<g>
			<path d="M321.5,921.8c-25.9,4.6-47-1.4-61.5-17.3c-14.5-15.9-15.7-31.7-3.5-42.9c10.5-9.5,24.6-9.5,33.2-0.1
				c8.3,9.1,8,22.8-0.8,30.8c-3.1,2.9-7.8,4.8-11.8,5c-3.9,0.3-4.2,0.3-4.9,0.9c-1.1,1-0.6,2.5,0.8,4.1c9.4,10.3,27.1,14.7,47.7,12
				L321.5,921.8z"/>
		</g>
	</g>
	<g>
		<g>
			<path class="st1" d="M117.2,370.4c2.6,0.2,2.8,0.1,3.7-0.5c0.9-0.7,1-1.2,0.7-2.2c-0.2-1.1-0.2-1.1-6.6-9.6l-7.3-9.9
				c-5.8-7.9-6.1-8.4-5.7-11.9c0.4-3.9,3.3-8.2,7.6-11.4c7.3-5.4,16.9-6,20.4-1.3c1.7,2.3,1.3,5.1-0.9,6.7c-2,1.5-4.8,1.1-6.5-1.2
				c-0.7-1-1-1.9-0.8-3.7c0-0.7,0-1-0.3-1.3c-1.3-1.8-6.3-1.2-9.5,1.2c-1.9,1.4-3.3,3.6-3.4,5.3c-0.1,1.9,0.4,2.9,4.2,8l4.6,6.2
				c5.9-4.3,10-6.3,14.2-7.5c6.8-1.7,12.2-0.3,15.4,4.1c3.6,4.9,2.4,11.1-3.1,15.2c-4.7,3.5-10.7,4.1-16.6,1.5
				c2.9,5,2.1,9.3-2.2,12.4c-2.3,1.7-4.6,2.3-8.1,1.8L117.2,370.4z M119.9,348.3c3.5,4.7,5.9,7,8.1,8c3.3,1.6,6.6,1.4,9.2-0.6
				c3.3-2.5,3.6-6.1,0.8-9.9c-2.2-3-5.2-4.2-9-3.9c-3.1,0.2-5.7,1.3-10.5,4.6L119.9,348.3z"/>
		</g>
	</g>
	<g>
		<g>
			<path class="st1" d="M431.3,1232.4c2.6,0.2,2.8,0.1,3.7-0.5c0.9-0.7,1-1.2,0.7-2.2c-0.2-1.1-0.2-1.1-6.6-9.6l-7.3-9.9
				c-5.8-7.9-6.1-8.4-5.7-11.9c0.4-3.9,3.3-8.2,7.6-11.4c7.3-5.4,16.9-6,20.4-1.3c1.7,2.3,1.3,5.1-0.9,6.7c-2,1.5-4.8,1.1-6.5-1.2
				c-0.7-1-1-1.9-0.8-3.7c0-0.7,0-1-0.3-1.3c-1.3-1.8-6.3-1.2-9.5,1.2c-1.9,1.4-3.3,3.6-3.4,5.3c-0.1,1.9,0.4,2.9,4.2,8l4.6,6.2
				c5.9-4.3,10-6.3,14.2-7.5c6.8-1.7,12.2-0.3,15.4,4.1c3.6,4.9,2.4,11.1-3.1,15.2c-4.7,3.5-10.7,4.1-16.6,1.5
				c2.9,5,2.1,9.3-2.2,12.4c-2.3,1.7-4.6,2.3-8.1,1.8L431.3,1232.4z M434,1210.2c3.5,4.7,5.9,7,8.1,8c3.3,1.6,6.6,1.4,9.2-0.6
				c3.3-2.5,3.6-6.1,0.8-9.9c-2.2-3-5.2-4.2-9-3.9c-3.1,0.2-5.7,1.3-10.5,4.6L434,1210.2z"/>
		</g>
	</g>
	<g>
		<g>
			<path class="st3" d="M237.3,777.6l1.4,74.9c0.1,7.7,0.2,9,0.6,10.7c0.9,2.9,2.7,4.6,5,4.5c1.9,0,2.7-0.9,2.7-3.1
				c0-0.4,0-0.9-0.2-1.2c-0.5-2.5-0.5-2.6-0.5-3.5c-0.1-3.6,2.2-6.1,5.7-6.2c3.6-0.1,6,2.5,6.1,6.6c0.1,5.8-5.5,10.2-13,10.4
				c-6.2,0.1-12.4-3.2-15.9-8.8c-2.7-4.3-3.5-8.8-3.7-21.2l-1.2-65.7l22.7-0.4l0.1,2.9L237.3,777.6z M230.5,737c4.6-0.1,8,3.3,8.1,8
				c0.1,4.8-3.3,8.5-7.8,8.5c-4.5,0.1-8.2-3.5-8.3-8.1C222.5,740.8,226,737.1,230.5,737z"/>
		</g>
	</g>
	<g>
		<g>
			<path class="st3" d="M503.8,1311.7l6.4,75.8c0.7,7.8,0.8,9.1,1.4,10.8c1.1,2.9,3,4.5,5.4,4.3c1.9-0.2,2.7-1.1,2.5-3.3
				c0-0.4-0.1-0.9-0.2-1.2c-0.6-2.5-0.7-2.6-0.7-3.5c-0.3-3.7,1.8-6.3,5.3-6.6c3.7-0.3,6.2,2.1,6.6,6.2c0.5,5.9-4.9,10.7-12.5,11.4
				c-6.3,0.5-12.8-2.5-16.8-7.9c-3-4.2-4.1-8.7-5.2-21.3l-5.6-66.6l23-1.9l0.2,2.9L503.8,1311.7z M494.1,1271.1
				c4.7-0.4,8.4,2.8,8.8,7.5c0.4,4.8-2.8,8.8-7.3,9.2c-4.5,0.4-8.5-3-8.9-7.7C486.2,1275.4,489.6,1271.5,494.1,1271.1z"/>
		</g>
	</g>
	<g>
		<g>
			<path class="st4" d="M498.2,1119.4c24.3-19.7,43-41.7,64.2-75.9c10.3-16.7,19.2-33.7,27.6-52.9c7.7-17.7,10.9-27.1,14.4-42.9
				l3.8-2.2c-0.7,36.9-10.9,70.7-31.4,103.9c-19.7,31.9-46.1,56.9-79,74.7L498.2,1119.4z"/>
		</g>
		<g>
			<path class="st4" d="M607.6,950.1c-25.7,17.8-46,38.4-69.7,70.9c-11.5,15.9-21.7,32.1-31.5,50.7c-9.1,17.1-13,26.2-17.6,41.7
				l-4,1.9c3.4-36.7,16.2-69.7,39.1-101.2c22.1-30.3,50.3-53.2,84.4-68.5L607.6,950.1z"/>
		</g>
		<g>
			<path class="st4" d="M578.4,1007.9c-16.8,11.6-30,25-45.4,46.2c-7.5,10.3-14.1,20.9-20.6,33.1c-5.9,11.1-8.4,17.1-11.5,27.2
				l-2.6,1.2c2.2-24,10.6-45.4,25.5-66c14.4-19.8,32.8-34.7,55-44.7L578.4,1007.9z"/>
		</g>
	</g>
	<g>
		<g>
			<path class="st4" d="M500.7,1151.8c28.7,12.4,56.9,18.8,97,21.6c19.6,1.4,38.7,1.4,59.7-0.1c19.3-1.4,29.1-2.9,44.7-7.1l3.7,2.4
				c-33,16.5-67.7,23.1-106.6,20.3c-37.4-2.7-71.8-14.5-102.8-35.4L500.7,1151.8z"/>
		</g>
		<g>
			<path class="st4" d="M701.5,1170.1c-27.7-14.5-55.4-23-95.1-28.9c-19.4-2.9-38.5-4.3-59.5-4.4c-19.3-0.1-29.2,0.7-45.1,3.7
				l-3.5-2.7c34.1-14,69.2-18,107.8-12.3c37.1,5.5,70.5,19.8,99.9,43L701.5,1170.1z"/>
		</g>
		<g>
			<path class="st4" d="M636.7,1171.1c-18.1-9.5-36.1-15-62-18.8c-12.7-1.9-25.1-2.8-38.8-2.9c-12.6-0.1-19.1,0.4-29.4,2.4l-2.3-1.7
				c22.3-9.1,45.1-11.7,70.3-8c24.2,3.6,46,12.9,65.1,28L636.7,1171.1z"/>
		</g>
	</g>
	<g>
		<path d="M92.9,1105.3c0.9-0.4,87.7-42.7,87.8-125.7c0-47.5-36.4-112-71.6-174.4c-27.1-48-52.7-93.4-62.4-130.6
			C26.7,597,50,487.4,148.6,429.8c25.1-14.7,39.6-33.5,43-56c6.6-43.8-31-85.2-32.6-87l-4.4,4.1c0.4,0.4,37.2,41.1,31,82
			c-3.1,20.6-16.6,37.9-40,51.6C44.2,483.8,20.3,596.4,40.9,676c9.8,38,35.6,83.7,62.9,132.1c34.8,61.7,70.8,125.5,70.8,171.5
			c0,79.2-83.5,119.9-84.3,120.3L92.9,1105.3z"/>
	</g>
</g>
<g>
	<g>
		<path d="M143.4,3252.6c0,0-12.4-21.8,1-39c13.1,14,0.9,38.3,0.9,38.3L143.4,3252.6z"/>
	</g>
	<g>
		<path d="M124,3279.3c0,0,18.1-17.5,38-8.7c-10.3,16.2-36.9,10.4-36.9,10.4L124,3279.3z"/>
	</g>
	<g>
		<path d="M91.4,3354.1c0,0,13.4-21.3,34.9-17.4c-6.2,18.2-33.4,18.9-33.4,18.9L91.4,3354.1z"/>
	</g>
	<g>
		<path d="M87.3,3424.9c0,0,9.1-23.4,30.9-23.8c-2.6,19-29.1,24.9-29.1,24.9L87.3,3424.9z"/>
	</g>
	<g>
		<path d="M111.3,3510c0,0,2.4-25,23.3-31.2c2.6,19-21.4,31.8-21.4,31.8L111.3,3510z"/>
	</g>
	<g>
		<path d="M156,3589.9c0,0-3.8-24.8,14.9-36c7.3,17.8-12.8,36.1-12.8,36.1L156,3589.9z"/>
	</g>
	<g>
		<path d="M194.3,3662.5c0,0-3.8-24.8,14.9-36c7.3,17.8-12.8,36.1-12.8,36.1L194.3,3662.5z"/>
	</g>
	<g>
		<path d="M223.4,3738.4c0,0-3.8-24.8,14.9-36c7.3,17.8-12.8,36.1-12.8,36.1L223.4,3738.4z"/>
	</g>
	<g>
		<path d="M205.4,3831.7c0,0,12.8-21.6,34.4-18.3c-5.7,18.3-32.9,19.7-32.9,19.7L205.4,3831.7z"/>
	</g>
	<g>
		<path d="M198.4,3209.2c0,0-12.4-21.8,1-39c13.1,14,0.9,38.3,0.9,38.3L198.4,3209.2z"/>
	</g>
	<g>
		<path d="M236.1,3147.2c0,0-26.3-10.9-26.4-32.1c21.4,4.2,27.7,30.5,27.7,30.5L236.1,3147.2z"/>
	</g>
	<g>
		<path d="M228.2,3186c0,0,22.8-17.1,41-6.4c-14.5,16.3-40.3,8.3-40.3,8.3L228.2,3186z"/>
	</g>
	<g>
		<path d="M103.8,3317.8c0,0-18.8-16.7-11.5-37.2c16.9,9.1,13.2,36,13.2,36L103.8,3317.8z"/>
	</g>
	<g>
		<path d="M83.7,3401.1c0,0-23.2-9.7-22.9-31.5c19,3.1,24.1,29.8,24.1,29.8L83.7,3401.1z"/>
	</g>
	<g>
		<path d="M96.7,3478.6c0,0-24.1-7.2-26.2-28.9c19.2,1,27.2,27,27.2,27L96.7,3478.6z"/>
	</g>
	<g>
		<path d="M139.4,3567c0,0-25-2.3-31.3-23.2c19-2.7,31.9,21.2,31.9,21.2L139.4,3567z"/>
	</g>
	<g>
		<path d="M180.1,3637.7c0,0-25.1-0.9-32.6-21.4c18.8-3.8,33.1,19.4,33.1,19.4L180.1,3637.7z"/>
	</g>
	<g>
		<path d="M213.2,3709.7c0,0-25.1-0.9-32.6-21.4c18.8-3.8,33.1,19.4,33.1,19.4L213.2,3709.7z"/>
	</g>
	<g>
		<path d="M220,3795.4c0,0-21.1-13.6-17.1-35c18.1,6.4,18.6,33.6,18.6,33.6L220,3795.4z"/>
	</g>
	<g>
		<path d="M179.4,3858c0,0-13.9-20.9-1.6-38.9c14.1,13.1,3.5,38.2,3.5,38.2L179.4,3858z"/>
	</g>
	<g>
		<path d="M234.7,2948.8c-10,4.8-16.2,11.6-17.8,19.8c-1.5,7.9,0.9,10.6,11.4,12.7l40.6,8c7.9,1.5,10.6-0.2,12-7.2
			c1.2-6.2,0.7-10.8-1.4-14.7c0.1,2.3,0,3.3-0.2,4.5c-1.3,6.3-8,10.4-15.3,9s-11.6-8.2-10-16.2c1.5-7.9,8-12.3,16-10.7
			c12,2.4,17.2,14.8,13.7,32.6c-5.2,26.4-24.7,42.7-46.1,38.5c-10.7-2.1-19.6-8.9-24.2-18.8c-4.2-8.5-5-18.5-2.6-31.1
			c3-15.4,10-24.4,22.8-29.5L234.7,2948.8z"/>
	</g>
	<g>
		<path d="M473.2,3903.6c-4.8,10-5.5,19.1-1.6,26.5c3.7,7.1,7.3,7.8,16.8,2.8l36.8-19c7.1-3.7,8.2-6.7,4.9-13.1
			c-2.9-5.6-6.1-8.9-10.3-10.6c1.5,1.7,2.1,2.6,2.6,3.6c3,5.8,0.2,13.1-6.4,16.5c-6.7,3.4-14.2,0.8-17.9-6.5
			c-3.7-7.1-1.4-14.6,5.9-18.4c10.9-5.6,22.7,0.9,31,17c12.3,23.9,7.2,48.8-12.2,58.8c-9.7,5-20.9,5.2-30.7,0.3
			c-8.6-4-15.5-11.4-21.3-22.7c-7.2-13.9-7.3-25.3-0.5-37.3L473.2,3903.6z"/>
	</g>
	<g>
		<path d="M233.3,3416.8c4.7-10,5.3-19.2,1.4-26.5c-3.7-7.1-7.3-7.7-16.8-2.7l-36.6,19.3c-7.1,3.7-8.2,6.8-4.8,13.1
			c2.9,5.6,6.2,8.9,10.3,10.5c-1.5-1.7-2.1-2.5-2.7-3.6c-3-5.7-0.3-13.1,6.3-16.6c6.6-3.5,14.1-0.9,18,6.3
			c3.7,7.1,1.5,14.6-5.7,18.4c-10.9,5.7-22.7-0.7-31.1-16.7c-12.5-23.8-7.6-48.7,11.7-58.9c9.6-5.1,20.8-5.4,30.7-0.6
			c8.6,3.9,15.6,11.3,21.5,22.6c7.3,13.9,7.5,25.3,0.8,37.3L233.3,3416.8z"/>
	</g>
	<g>
		<path class="st0" d="M198.2,3263.7l2.8,19.6l-2.3,0.3c-1.3-5.2-3.3-7-7.1-6.4c-1.5,0.2-3.3,1.1-5.4,2.6l-4.9,3.5l18.4,7.1
			l-0.7-4.9l2.3-0.3l5.4,37.6l-2.3,0.3l-0.4-3l-48-18.9l-12.6,8.9c5.9,0.3,10,4,10.8,9.6c0.9,6.2-3.3,11.5-9.7,12.5
			c-6.3,0.9-11.5-3-12.4-9.4c-0.8-5.2,1.9-9.7,8.5-14.4l47.1-33c6-4.2,8.1-7,8.2-11.5L198.2,3263.7z"/>
	</g>
	<g>
		<path class="st0" d="M385.5,3732.1l8.9,17.7l-2.1,1c-2.9-4.5-5.4-5.6-8.8-3.9c-1.3,0.7-2.8,2.1-4.3,4.2l-3.5,4.8l19.7,1l-2.2-4.4
			l2.1-1l17,34l-2.1,1l-1.3-2.7l-51.5-2.9l-9.1,12.4c5.7-1.5,10.8,0.7,13.3,5.7c2.8,5.6,0.5,12-5.3,14.9c-5.7,2.8-11.9,0.8-14.7-5
			c-2.4-4.7-1.3-9.8,3.6-16.3l34.3-46.1c4.4-5.9,5.5-9.2,4.2-13.6L385.5,3732.1z"/>
	</g>
	<g>
		<path d="M558.7,4184.5c-3.6-145-86.8-298.2-174.8-460.3c-72.2-132.9-146.9-270.3-173.5-402.8c-40.7-202.3,30.5-405.3,76.5-508.2
			l-5.5-2.5c-46.3,103.6-117.9,308-76.9,511.9c26.8,133.3,101.7,271.2,174.1,404.4c87.7,161.5,170.6,313.9,174.1,457.5L558.7,4184.5
			z"/>
	</g>
	<g>
		<path d="M258.8,3361.6l2.2-5.6c-49.2-19.4-60.6-108.6-60.7-109.5l-6,0.7C194.8,3251,206.2,3340.9,258.8,3361.6z"/>
	</g>
	<g>
		<path d="M206.5,3291.1l-0.6-0.6l-3.2-14.2l3.6-0.1c2.2-0.1,53.5-1.7,70.1,32.7l1.6,3.3l-3.5,1c-4.4,1.2-8.7,1.8-12.9,2
			C230.7,3316.2,207.6,3292.2,206.5,3291.1z M210.3,3282.1l1.2,5.4c4,3.9,28.4,26.1,57.7,20.5
			C255.3,3285.2,221.4,3282.4,210.3,3282.1z"/>
	</g>
	<g>
		<path d="M262.9,3131.3l3-5.3c-46.1-26.1-44.8-116-44.8-116.9l-6-0.1C215,3012.8,213.7,3103.4,262.9,3131.3z"/>
	</g>
	<g>
		<path d="M220.9,3054.2l-0.5-0.7l-1.1-14.5l3.6,0.4c2.2,0.2,53.2,5.8,64.8,42.1l1.1,3.5l-3.6,0.4c-1.7,0.2-3.3,0.3-4.9,0.4
			C244.8,3087.2,221.9,3055.6,220.9,3054.2z M225.9,3045.8l0.4,5.5c3.4,4.4,24.2,29.6,53.9,28.4c0.1,0,0.3,0,0.4,0
			C270.1,3055.2,237,3047.7,225.9,3045.8z"/>
	</g>
	<g>
		<path d="M472.3,3781.9c0.3,0,0.6,0,1,0l-0.3-6c-0.3,0-0.6,0-0.8,0c-52.5,2.1-99.6-73.4-100.1-74.1l-5.1,3.2
			C368.9,3708.2,416.3,3784.2,472.3,3781.9z"/>
	</g>
	<g>
		<path d="M396.2,3739.8l-0.8-0.3l-8.8-11.6l3.2-1.6c1.9-1,47.9-23.9,77.3,0.3l2.8,2.3l-2.8,2.3c-12,10-25.6,13.4-37.7,13.9
			C411.7,3745.8,397.2,3740.2,396.2,3739.8z M395.9,3730.1l3.3,4.4c5.2,1.9,36.7,11.9,61-5.5C438.1,3714,406.2,3725.7,395.9,3730.1z
			"/>
	</g>
	<g>
		<path class="st1" d="M182,2975.1l12.7,21.7l-2.9,1.7l-4.5-7.7l-44.3,25.8c-2.1-5.7-3.8-9.5-9.3-19l-2.1-3.6l2.9-1.7l4.6,7.8
			l23-13.4c5.7-3.3,7.4-5,9.1-8c2.2-4.1,2.2-9.6,0.2-13.1c-1-1.8-2.6-2.9-4.4-3.1c-1.9-0.3-2.9,0.1-7.7,2.9l-34.4,20
			c-2.1-5.7-3.8-9.5-9.3-19l-2.1-3.6l2.9-1.7l4.6,7.8l27.5-16c6.9-4,10.4-5.1,14.3-4.4c3.9,0.5,7.5,3.5,10.3,8.3
			c4.3,7.4,4.6,13.5,1,22.9L182,2975.1z"/>
	</g>
	<g>
		<path class="st1" d="M294.5,3389.3l4.2-7.8l3.2,1.7l-15.7,29.4l-3.2-1.7l3-5.7l-36.1-48.4l1.8-3.4l51.3,5.3
			c6.9,0.8,7.4,0.4,10.1-4.3l1.6-2.9l3.2,1.7l-11.5,21.5l-3.2-1.7l2.5-4.7c1.6-3,1.7-4.3,0.3-5.1c-0.6-0.3-1.3-0.6-3.5-0.7
			l-30.4-3.1L294.5,3389.3z"/>
	</g>
	<g>
		<g>
			<path class="st1" d="M524.7,3788.8c-3,16.3-17.3,26.9-32.3,24.2c-15.3-2.8-24.7-17.8-21.6-34.3c3-16.3,17.2-27.1,32.1-24.3
				C518.4,3757.2,527.8,3772.1,524.7,3788.8z M521.2,3788c0.8-4.3-0.2-8.2-3-10.7c-2.4-2.3-7.4-3.9-18.4-6c-9.4-1.7-15-2.1-18-1.3
				c-3.9,1.2-6.7,4.6-7.5,9.3c-0.8,4.3,0.2,8.2,3,10.7c2.4,2.3,7.5,4,18.1,5.9c9.8,1.8,15.3,2.2,18.3,1.4
				C517.6,3796.1,520.4,3792.7,521.2,3788z"/>
		</g>
	</g>
	<g>
		<path d="M619,4161.4l1-5.9c-52.1-9.1-81.1-94.2-81.4-95.1l-5.7,1.9C534.1,4065.9,563.2,4151.6,619,4161.4z"/>
	</g>
	<g>
		<path d="M553.5,4102.8l-0.7-0.5l-5.9-13.3l3.5-0.9c2.1-0.5,52.1-12.4,75.2,17.9l2.2,2.9l-3.2,1.6c-8.2,4.1-16.4,5.9-24.2,6.2
			C575.4,4117.8,554.6,4103.6,553.5,4102.8z M555.4,4093.3l2.2,5c4.7,3,32.9,20,60.7,8.5C600.2,4087.3,566.4,4091.3,555.4,4093.3z"
			/>
	</g>
	<g>
		<path d="M174.5,2969c59.4-5.6,87.4-93.8,88.5-97.6l-6.1-1.9c-0.3,0.9-27.9,87.9-83,93.1L174.5,2969z"/>
	</g>
	<g>
		<path d="M168.1,2914.6l-3.1-1.7l2.2-2.8c23.6-30.1,77.4-13.5,79.7-12.7l3.2,1l-5.8,13.3l-0.8,0.5c-1,0.6-16.9,10.4-38.3,11.3
			C193.9,2924,181,2921.9,168.1,2914.6z M241.8,2902.2c-11.2-2.9-48.6-10.6-67.5,8.8c30.2,14.8,60-0.6,65.2-3.5L241.8,2902.2z"/>
	</g>
	<g>
		<path d="M234.1,3553.2c41.7-42.7,6.1-128.1,4.5-131.7l-5.9,2.5c0.4,0.8,35.5,85.1-3.2,124.7L234.1,3553.2z"/>
	</g>
	<g>
		<path d="M190.5,3512.9c-1.5-38.3,50.4-60.3,52.6-61.2l3.1-1.3l4.2,13.9l-0.3,0.9c-0.6,1.7-14,42.5-56,50.6l-3.5,0.7L190.5,3512.9z
			 M242.3,3458.6c-10.4,5-43.9,23.3-45.8,50.4c32.6-8.2,45.4-39.3,47.5-44.8L242.3,3458.6z"/>
	</g>
	<g>
		<path class="st2" d="M393.5,3979.5l7.9,4.1l-1.6,3.2l-29.6-15.3l1.6-3.2l5.7,3l47.9-36.8l3.4,1.8l-4.6,51.4
			c-0.7,6.9-0.3,7.4,4.5,10.1l2.9,1.5l-1.6,3.2l-21.7-11.2l1.6-3.2l4.7,2.4c3.1,1.6,4.3,1.6,5.1,0.2c0.3-0.6,0.5-1.3,0.7-3.5
			l2.7-30.5L393.5,3979.5z"/>
	</g>
	<g>
		<path class="st2" d="M624.7,4145.8l13.6-21.2l2.9,1.8l-4.8,7.5l43.2,27.6c-4.1,4.4-6.7,7.8-12.6,17l-2.3,3.5l-2.9-1.8l4.9-7.6
			l-22.5-14.4c-5.6-3.6-7.8-4.4-11.3-4.5c-4.6-0.1-9.6,2.4-11.7,5.8c-1.1,1.7-1.4,3.6-0.7,5.3c0.6,1.8,1.4,2.5,6.1,5.5l33.5,21.4
			c-4.1,4.4-6.7,7.8-12.6,17l-2.3,3.5l-2.9-1.8l4.9-7.6l-26.8-17.1c-6.7-4.3-9.3-6.9-10.5-10.7c-1.3-3.7-0.3-8.3,2.6-12.9
			c4.6-7.2,9.9-10.2,19.9-11.3L624.7,4145.8z"/>
	</g>
	<g>
		<g>
			<path class="st2" d="M302.5,3164.9c-11.4,12.1-29.1,13.3-40.2,2.8c-11.3-10.7-11.1-28.3,0.3-40.5c11.4-12.1,29.1-13.5,40.1-3.1
				C314.3,3135,314.1,3152.5,302.5,3164.9z M300,3162.4c3-3.2,4.2-7,3.2-10.6c-0.8-3.3-4.1-7.3-12.2-14.9c-7-6.6-11.5-9.9-14.4-10.8
				c-3.9-1.1-8.1,0.2-11.4,3.7c-3,3.2-4.2,7-3.2,10.6c0.8,3.3,4.2,7.4,12,14.8c7.3,6.8,11.7,10.1,14.6,11
				C292.5,3167.2,296.7,3165.9,300,3162.4z"/>
		</g>
	</g>
	<g>
		<path class="st2" d="M243.8,3552.9l23.7,8.4l-1.1,3.2l-8.4-3l-17.1,48.3c-5.2-3-9.1-4.8-19.4-8.5l-4-1.4l1.1-3.2l8.5,3l8.9-25.1
			c2.2-6.2,2.5-8.6,1.8-12c-1-4.5-4.5-8.8-8.3-10.1c-1.9-0.7-3.8-0.5-5.4,0.5c-1.6,1-2.1,2-4,7.2l-13.3,37.5
			c-5.2-3-9.1-4.8-19.4-8.5l-4-1.4l1.1-3.2l8.5,3l10.6-30c2.7-7.5,4.6-10.6,8.1-12.6c3.3-2.1,8-2.2,13.2-0.3
			c8,2.8,12.2,7.3,15.6,16.9L243.8,3552.9z"/>
	</g>
	<g>
		<path d="M426.5,3942.7c41.7-42.7,6.1-128.1,4.5-131.7l-5.9,2.5c0.4,0.8,35.5,85.1-3.2,124.7L426.5,3942.7z"/>
	</g>
	<g>
		<path d="M382.9,3902.4c-1.5-38.3,50.4-60.3,52.6-61.2l3.1-1.3l4.2,13.9l-0.3,0.9c-0.6,1.7-14,42.5-56,50.5l-3.5,0.7L382.9,3902.4z
			 M434.8,3848.2c-10.4,5-43.9,23.2-45.8,50.3c32.6-8.2,45.4-39.3,47.5-44.8L434.8,3848.2z"/>
	</g>
	<g>
		<g>
			<path d="M334.8,2920.3c-52.6-16.9-54.3-104.5-54.4-108.2l-0.1-5.3l17.1,9.6l0.4,0.2c0.5,0.4,50.9,40,40.9,101.2l-0.6,3.5
				L334.8,2920.3z M286.7,2817.4c1.2,18.6,8.2,80.3,46.6,96c6.6-53.9-36.1-89.3-39-91.7L286.7,2817.4z"/>
		</g>
		<g>
			<path d="M302.6,2869.9c3.2-8.6,3.6-16.2,1.2-26.3c-1.2-4.9-3-9.5-5.7-14.4c-2.5-4.5-4.2-6.6-7.7-9.8l0.8-1.2
				c11.1,5.7,17.6,13.1,20,22.9c2.3,9.4-0.1,19.2-7.2,29.6L302.6,2869.9z"/>
		</g>
	</g>
	<g>
		<g>
			<path d="M132.4,3222.6c-13.8-53.5,59.3-101.8,62.4-103.8l4.4-2.9l1,19.6l0,0.4c-0.1,0.6-6.7,64.4-63.7,88.7l-3.2,1.4
				L132.4,3222.6z M193.7,3126.9c-15.1,11-63.5,49.8-56.3,90.6c49.1-23.2,56.3-78.2,56.7-82L193.7,3126.9z"/>
		</g>
		<g>
			<path d="M157.8,3168.5c9-1.9,15.7-5.6,22.8-13.1c3.5-3.6,6.4-7.6,9.1-12.5c2.4-4.5,3.4-7.1,4.2-11.7l1.5,0
				c1.1,12.4-1.7,21.9-8.7,29.1c-6.7,6.9-16.3,10.2-28.8,9.7L157.8,3168.5z"/>
		</g>
	</g>
	<g>
		<g>
			<path d="M476.8,4090.8c-30.3-46.2,23.3-115.5,25.6-118.4l3.2-4.1l7.2,18.2l0.1,0.4c0.2,0.6,14.5,63.1-31.7,104.5l-2.6,2.3
				L476.8,4090.8z M503.9,3980.4c-10.7,15.3-44,67.6-24,103.9c39-37.8,28-92.2,27.2-95.9L503.9,3980.4z"/>
		</g>
		<g>
			<path d="M483.4,4031.3c7.9-4.7,13-10.4,17.4-19.7c2.1-4.6,3.6-9.3,4.5-14.8c0.9-5,0.9-7.8,0.1-12.4l1.4-0.5
				c5.1,11.4,5.5,21.3,1.2,30.3c-4.1,8.7-12.2,14.9-24.2,18.5L483.4,4031.3z"/>
		</g>
	</g>
	<g>
		<g>
			<path d="M287.8,3557l-2.8-4.6l20.2-0.5l0.4,0c0.7,0.1,66,8.5,89.5,68l1.3,3.4l-3.5,0.8c-3.5,0.8-6.9,1.3-10.4,1.4
				C331.8,3627.5,289.7,3560,287.8,3557z M305.1,3558.1l-8.9,0.2c10.9,15.9,49.3,67,91.7,60.4
				C365.3,3567.4,308.9,3558.6,305.1,3558.1z"/>
		</g>
		<g>
			<path d="M337.9,3596.4c-1.7-9.3-5.4-16.3-12.8-23.9c-3.6-3.7-7.7-6.8-12.6-9.7c-4.6-2.6-7.2-3.6-12-4.6l0.1-1.5
				c12.8-0.9,22.5,2.3,29.7,9.7c7,7.1,10.1,17.1,9.2,30L337.9,3596.4z"/>
		</g>
	</g>
	<g>
		<g>
			<path d="M195.6,3181c25.1,7.8,41.1,22.8,46.7,43.6s-0.6,35.4-16.6,39.7c-13.7,3.7-26.2-2.8-29.5-15.2c-3.2-11.9,3.4-23.9,14.8-27
				c4.1-1.1,9.1-0.7,12.7,1c3.6,1.5,3.9,1.7,4.8,1.4c1.4-0.4,1.7-1.9,1.1-4c-3.6-13.5-17.3-25.5-36.8-32.5L195.6,3181z"/>
		</g>
	</g>
	<g>
		<g>
			<path d="M255,3463.8c26.3-0.6,46.2,8.6,58.1,26.6c11.9,18,10.7,33.8-3.1,42.9c-11.8,7.8-25.7,5.7-32.8-5
				c-6.8-10.3-4.4-23.8,5.5-30.3c3.5-2.3,8.4-3.6,12.4-3.1c3.9,0.3,4.2,0.3,5-0.2c1.2-0.8,1-2.4-0.2-4.1
				c-7.7-11.6-24.5-18.7-45.3-19.2L255,3463.8z"/>
		</g>
	</g>
	<g>
		<g>
			<path d="M515.5,3995.9c26.3-0.6,46.2,8.6,58.1,26.6s10.7,33.8-3.1,42.9c-11.8,7.8-25.7,5.7-32.8-5c-6.8-10.3-4.4-23.8,5.5-30.3
				c3.5-2.3,8.4-3.6,12.4-3.1c3.9,0.3,4.2,0.3,5-0.2c1.2-0.8,1-2.4-0.2-4.1c-7.7-11.6-24.5-18.7-45.3-19.2L515.5,3995.9z"/>
		</g>
	</g>
	<g>
		<g>
			<path d="M198.3,3111.5c-23.3-12.1-36.4-29.8-38.1-51.3c-1.7-21.5,6.9-34.7,23.5-36.1c14.2-1.1,25.3,7.5,26.3,20.2
				c1,12.3-7.6,22.9-19.4,23.9c-4.2,0.3-9.1-0.9-12.4-3.3c-3.3-2.1-3.5-2.3-4.5-2.3c-1.4,0.1-2,1.6-1.8,3.7
				c1.1,13.9,12.5,28.2,30.4,38.6L198.3,3111.5z"/>
		</g>
	</g>
	<g>
		<g>
			<path d="M369.9,3707.2c-25.9,4.6-47-1.4-61.5-17.3s-15.7-31.7-3.5-42.9c10.5-9.5,24.6-9.5,33.2-0.1c8.3,9.1,8,22.8-0.8,30.8
				c-3.1,2.9-7.8,4.8-11.8,5c-3.9,0.3-4.2,0.3-4.9,0.9c-1.1,1-0.6,2.5,0.8,4.1c9.4,10.3,27.1,14.7,47.7,12L369.9,3707.2z"/>
		</g>
	</g>
	<g>
		<g>
			<path class="st1" d="M165.6,3155.8c2.6,0.2,2.8,0.1,3.7-0.5s1-1.2,0.7-2.2c-0.2-1.1-0.2-1.1-6.6-9.6l-7.3-9.9
				c-5.8-7.9-6.1-8.4-5.7-11.9c0.4-3.9,3.3-8.2,7.6-11.4c7.3-5.4,16.9-6,20.4-1.3c1.7,2.3,1.3,5.1-0.9,6.7c-2,1.5-4.8,1.1-6.5-1.2
				c-0.7-1-1-1.9-0.8-3.7c0-0.7,0-1-0.3-1.3c-1.3-1.8-6.3-1.2-9.5,1.2c-1.9,1.4-3.3,3.6-3.4,5.3c-0.1,1.9,0.4,2.9,4.2,8l4.6,6.2
				c5.9-4.3,10-6.3,14.2-7.5c6.8-1.7,12.2-0.3,15.4,4.1c3.6,4.9,2.4,11.1-3.1,15.2c-4.7,3.5-10.7,4.1-16.6,1.5
				c2.9,5,2.1,9.3-2.2,12.4c-2.3,1.7-4.6,2.3-8.1,1.8L165.6,3155.8z M168.4,3133.6c3.5,4.7,5.9,7,8.1,8c3.3,1.6,6.6,1.4,9.2-0.6
				c3.3-2.5,3.6-6.1,0.8-9.9c-2.2-3-5.2-4.2-9-3.9c-3.1,0.2-5.7,1.3-10.5,4.6L168.4,3133.6z"/>
		</g>
	</g>
	<g>
		<g>
			<path class="st1" d="M479.8,4017.7c2.6,0.2,2.8,0.1,3.7-0.5s1-1.2,0.7-2.2c-0.2-1.1-0.2-1.1-6.6-9.6l-7.3-9.9
				c-5.8-7.9-6.1-8.4-5.7-11.9c0.4-3.9,3.3-8.2,7.6-11.4c7.3-5.4,16.9-6,20.4-1.3c1.7,2.3,1.3,5.1-0.9,6.7c-2,1.5-4.8,1.1-6.5-1.2
				c-0.7-1-1-1.9-0.8-3.7c0-0.7,0-1-0.3-1.3c-1.3-1.8-6.3-1.2-9.5,1.2c-1.9,1.4-3.3,3.6-3.4,5.3c-0.1,1.9,0.4,2.9,4.2,8l4.6,6.2
				c5.9-4.3,10-6.3,14.2-7.5c6.8-1.7,12.2-0.3,15.4,4.1c3.6,4.9,2.4,11.1-3.1,15.2c-4.7,3.5-10.7,4.1-16.6,1.5
				c2.9,5,2.1,9.3-2.2,12.4c-2.3,1.7-4.6,2.3-8.1,1.8L479.8,4017.7z M482.5,3995.6c3.5,4.7,5.9,7,8.1,8c3.3,1.6,6.6,1.4,9.2-0.6
				c3.3-2.5,3.6-6.1,0.8-9.9c-2.2-3-5.2-4.2-9-3.9c-3.1,0.2-5.7,1.3-10.5,4.6L482.5,3995.6z"/>
		</g>
	</g>
	<g>
		<g>
			<path class="st3" d="M285.8,3563l1.4,74.9c0.1,7.7,0.2,9,0.6,10.7c0.9,2.9,2.7,4.6,5,4.5c1.9,0,2.7-0.9,2.7-3.1
				c0-0.4,0-0.9-0.2-1.2c-0.5-2.5-0.5-2.6-0.5-3.5c-0.1-3.6,2.2-6.1,5.7-6.2c3.6-0.1,6,2.5,6.1,6.6c0.1,5.8-5.5,10.2-13,10.4
				c-6.2,0.1-12.4-3.2-15.9-8.8c-2.7-4.3-3.5-8.8-3.7-21.2l-1.2-65.7l22.7-0.4l0.1,2.9L285.8,3563z M279,3522.4c4.6-0.1,8,3.3,8.1,8
				c0.1,4.8-3.3,8.5-7.8,8.5c-4.5,0.1-8.2-3.5-8.3-8.1C270.9,3526.2,274.5,3522.5,279,3522.4z"/>
		</g>
	</g>
	<g>
		<g>
			<path class="st3" d="M552.3,4097.1l6.4,75.8c0.7,7.8,0.8,9.1,1.4,10.8c1.1,2.9,3,4.5,5.4,4.3c1.9-0.2,2.7-1.1,2.5-3.3
				c0-0.4-0.1-0.9-0.2-1.2c-0.6-2.5-0.7-2.6-0.7-3.5c-0.3-3.7,1.8-6.3,5.3-6.6c3.7-0.3,6.2,2.1,6.6,6.2c0.5,5.9-4.9,10.7-12.5,11.4
				c-6.3,0.5-12.8-2.5-16.8-7.9c-3-4.2-4.1-8.7-5.2-21.3l-5.6-66.6l23-1.9l0.2,2.9L552.3,4097.1z M542.6,4056.4
				c4.7-0.4,8.4,2.8,8.8,7.5c0.4,4.8-2.8,8.8-7.3,9.2c-4.5,0.4-8.5-3-8.9-7.7C534.7,4060.8,538.1,4056.8,542.6,4056.4z"/>
		</g>
	</g>
	<g>
		<g>
			<path class="st4" d="M546.7,3904.7c24.3-19.7,43-41.7,64.2-75.9c10.3-16.7,19.2-33.7,27.6-52.9c7.7-17.7,10.9-27.1,14.4-42.9
				l3.8-2.2c-0.7,36.9-10.9,70.7-31.4,103.9c-19.7,31.9-46.1,56.9-79,74.7L546.7,3904.7z"/>
		</g>
		<g>
			<path class="st4" d="M656.1,3735.4c-25.7,17.8-46,38.4-69.7,70.9c-11.5,15.9-21.7,32.1-31.5,50.7c-9.1,17.1-13,26.2-17.6,41.7
				l-4,1.9c3.4-36.7,16.2-69.7,39.1-101.2c22.1-30.3,50.3-53.2,84.4-68.5L656.1,3735.4z"/>
		</g>
		<g>
			<path class="st4" d="M626.9,3793.3c-16.8,11.6-30,25-45.4,46.2c-7.5,10.3-14.1,20.9-20.6,33.1c-5.9,11.1-8.4,17.1-11.5,27.2
				l-2.6,1.2c2.2-24,10.6-45.4,25.5-66c14.4-19.8,32.8-34.7,55-44.7L626.9,3793.3z"/>
		</g>
	</g>
	<g>
		<g>
			<path class="st4" d="M549.2,3937.1c28.7,12.4,56.9,18.8,97,21.6c19.6,1.4,38.7,1.4,59.7-0.1c19.3-1.4,29.1-2.9,44.7-7.1l3.7,2.4
				c-33,16.5-67.7,23.1-106.6,20.3c-37.4-2.7-71.8-14.5-102.8-35.4L549.2,3937.1z"/>
		</g>
		<g>
			<path class="st4" d="M750,3955.5c-27.7-14.5-55.4-23-95.1-28.9c-19.4-2.9-38.5-4.3-59.5-4.4c-19.3-0.1-29.2,0.7-45.1,3.7
				l-3.5-2.7c34.1-14,69.2-18,107.8-12.3c37.1,5.5,70.5,19.8,99.9,43L750,3955.5z"/>
		</g>
		<g>
			<path class="st4" d="M685.2,3956.5c-18.1-9.5-36.1-15-62-18.8c-12.7-1.9-25.1-2.8-38.8-2.9c-12.6-0.1-19.1,0.4-29.4,2.4l-2.3-1.7
				c22.3-9.1,45.1-11.7,70.3-8c24.2,3.6,46,12.9,65.1,28L685.2,3956.5z"/>
		</g>
	</g>
	<g>
		<path d="M141.4,3890.7c0.9-0.4,87.7-42.7,87.8-125.7c0-47.5-36.4-112-71.6-174.4c-27.1-48-52.7-93.4-62.4-130.6
			c-20.1-77.5,3.2-187.1,101.8-244.7c25.1-14.7,39.6-33.5,43-56c6.6-43.8-31-85.2-32.6-87l-4.4,4.1c0.4,0.4,37.2,41.1,31,82
			c-3.1,20.6-16.6,37.9-40,51.6c-101.3,59.2-125.3,171.8-104.6,251.4c9.8,38,35.6,83.7,62.9,132.1c34.8,61.7,70.8,125.5,70.8,171.5
			c0,79.2-83.5,119.9-84.3,120.3L141.4,3890.7z"/>
	</g>
</g>
<g>
	<g>
		<path d="M786.6,1848c0,0,12.4-21.8-1-39c-13.1,14-0.9,38.3-0.9,38.3L786.6,1848z"/>
	</g>
	<g>
		<path d="M806,1874.7c0,0-18.1-17.5-38-8.7c10.3,16.2,36.9,10.4,36.9,10.4L806,1874.7z"/>
	</g>
	<g>
		<path d="M838.6,1949.6c0,0-13.4-21.3-34.9-17.4c6.2,18.2,33.4,18.9,33.4,18.9L838.6,1949.6z"/>
	</g>
	<g>
		<path d="M842.7,2020.3c0,0-9.1-23.4-30.9-23.8c2.6,19,29.1,24.9,29.1,24.9L842.7,2020.3z"/>
	</g>
	<g>
		<path d="M818.7,2105.4c0,0-2.4-25-23.3-31.2c-2.6,19,21.4,31.8,21.4,31.8L818.7,2105.4z"/>
	</g>
	<g>
		<path d="M774,2185.3c0,0,3.8-24.8-14.9-36c-7.3,17.8,12.8,36.1,12.8,36.1L774,2185.3z"/>
	</g>
	<g>
		<path d="M735.7,2258c0,0,3.8-24.8-14.9-36c-7.3,17.8,12.8,36.1,12.8,36.1L735.7,2258z"/>
	</g>
	<g>
		<path d="M706.6,2333.9c0,0,3.8-24.8-14.9-36c-7.3,17.8,12.8,36.1,12.8,36.1L706.6,2333.9z"/>
	</g>
	<g>
		<path d="M724.6,2427.1c0,0-12.8-21.6-34.4-18.3c5.7,18.3,32.9,19.7,32.9,19.7L724.6,2427.1z"/>
	</g>
	<g>
		<path d="M731.6,1804.6c0,0,12.4-21.8-1-39c-13.1,14-0.9,38.3-0.9,38.3L731.6,1804.6z"/>
	</g>
	<g>
		<path d="M694,1742.6c0,0,26.3-10.9,26.4-32.1c-21.4,4.2-27.7,30.5-27.7,30.5L694,1742.6z"/>
	</g>
	<g>
		<path d="M701.8,1781.5c0,0-22.8-17.1-41-6.4c14.5,16.3,40.3,8.3,40.3,8.3L701.8,1781.5z"/>
	</g>
	<g>
		<path d="M826.2,1913.2c0,0,18.8-16.7,11.5-37.2c-16.9,9.1-13.2,36-13.2,36L826.2,1913.2z"/>
	</g>
	<g>
		<path d="M846.3,1996.5c0,0,23.2-9.7,22.9-31.5c-19,3.1-24.1,29.8-24.1,29.8L846.3,1996.5z"/>
	</g>
	<g>
		<path d="M833.3,2074c0,0,24.1-7.2,26.2-28.9c-19.2,1-27.2,27-27.2,27L833.3,2074z"/>
	</g>
	<g>
		<path d="M790.6,2162.4c0,0,25-2.3,31.3-23.2c-19-2.7-31.9,21.2-31.9,21.2L790.6,2162.4z"/>
	</g>
	<g>
		<path d="M749.9,2233.2c0,0,25.1-0.9,32.6-21.4c-18.8-3.8-33.1,19.4-33.1,19.4L749.9,2233.2z"/>
	</g>
	<g>
		<path d="M716.8,2305.1c0,0,25.1-0.9,32.6-21.4c-18.8-3.8-33.1,19.4-33.1,19.4L716.8,2305.1z"/>
	</g>
	<g>
		<path d="M710,2390.9c0,0,21.1-13.6,17.1-35c-18.1,6.4-18.6,33.6-18.6,33.6L710,2390.9z"/>
	</g>
	<g>
		<path d="M750.6,2453.5c0,0,13.9-20.9,1.6-38.9c-14.1,13.1-3.5,38.2-3.5,38.2L750.6,2453.5z"/>
	</g>
	<g>
		<path d="M696.3,1540.9c12.8,5.1,19.8,14.1,22.8,29.5c2.5,12.5,1.7,22.6-2.6,31.1c-4.6,9.9-13.5,16.7-24.2,18.8
			c-21.4,4.2-40.9-12.1-46.1-38.5c-3.5-17.7,1.7-30.2,13.7-32.6c8-1.6,14.5,2.9,16,10.7c1.6,8-2.6,14.8-10,16.2
			c-7.4,1.4-14.1-2.6-15.3-9c-0.2-1.2-0.3-2.2-0.2-4.5c-2.2,3.9-2.7,8.5-1.4,14.7c1.4,7,4.1,8.7,12,7.2l40.6-8
			c10.5-2.1,12.9-4.8,11.4-12.7c-1.6-8.2-7.8-14.9-17.8-19.8L696.3,1540.9z"/>
	</g>
	<g>
		<path d="M459.7,2497.1c6.9,12,6.7,23.4-0.5,37.3c-5.9,11.4-12.7,18.7-21.3,22.7c-9.8,4.9-21,4.7-30.7-0.3
			c-19.4-10-24.5-34.9-12.2-58.8c8.3-16,20.1-22.6,31-17c7.3,3.7,9.5,11.2,5.9,18.4c-3.7,7.3-11.2,9.9-17.9,6.5s-9.4-10.8-6.4-16.5
			c0.5-1.1,1.2-1.9,2.6-3.6c-4.1,1.7-7.4,5-10.3,10.6c-3.3,6.4-2.2,9.4,4.9,13.1l36.8,19c9.5,4.9,13.1,4.3,16.8-2.8
			c3.8-7.4,3.2-16.6-1.6-26.5L459.7,2497.1z"/>
	</g>
	<g>
		<path d="M693.8,2014.2c-6.8-12-6.5-23.4,0.8-37.3c5.9-11.3,12.9-18.6,21.5-22.6c9.8-4.8,21-4.5,30.7,0.6
			c19.3,10.1,24.3,35.1,11.7,58.9c-8.4,16-20.3,22.4-31.1,16.7c-7.2-3.8-9.4-11.3-5.7-18.4c3.8-7.2,11.3-9.8,18-6.3
			c6.6,3.5,9.3,10.9,6.3,16.6c-0.6,1.1-1.2,1.9-2.7,3.6c4.1-1.7,7.4-5,10.3-10.5c3.3-6.3,2.3-9.4-4.8-13.1l-36.6-19.3
			c-9.5-5-13.1-4.4-16.8,2.7c-3.9,7.4-3.3,16.5,1.4,26.5L693.8,2014.2z"/>
	</g>
	<g>
		<path class="st0" d="M734.1,1859.5c0.2,4.6,2.2,7.3,8.2,11.5l47.1,33c6.7,4.7,9.3,9.1,8.5,14.4c-0.9,6.4-6.1,10.3-12.4,9.4
			c-6.4-0.9-10.6-6.3-9.7-12.5c0.8-5.6,5-9.3,10.8-9.6l-12.6-8.9l-48,18.9l-0.4,3l-2.3-0.3l5.4-37.6l2.3,0.3l-0.7,4.9l18.4-7.1
			l-4.9-3.5c-2.1-1.6-4-2.4-5.4-2.6c-3.8-0.5-5.8,1.3-7.1,6.4l-2.3-0.3l2.8-19.6L734.1,1859.5z"/>
	</g>
	<g>
		<path class="st0" d="M546.6,2328.5c-1.3,4.4-0.2,7.6,4.2,13.6l34.3,46.1c4.8,6.5,5.9,11.6,3.6,16.3c-2.9,5.8-9.1,7.8-14.7,5
			c-5.8-2.9-8.1-9.3-5.3-14.9c2.5-5.1,7.6-7.3,13.3-5.7l-9.1-12.4l-51.5,2.9l-1.3,2.7l-2.1-1l17-34l2.1,1l-2.2,4.4l19.7-1l-3.5-4.8
			c-1.5-2.2-3-3.6-4.3-4.2c-3.4-1.7-5.9-0.6-8.8,3.9l-2.1-1l8.9-17.7L546.6,2328.5z"/>
	</g>
	<g>
		<path d="M371.3,2779.9c3.6-145,86.8-298.2,174.8-460.3c72.2-132.9,146.9-270.3,173.5-402.8c40.7-202.3-30.5-405.3-76.5-508.2
			l5.5-2.5c46.3,103.6,117.9,308,76.9,511.9c-26.8,133.3-101.7,271.2-174.1,404.4c-87.7,161.5-170.6,313.9-174.1,457.5L371.3,2779.9
			z"/>
	</g>
	<g>
		<path d="M671.2,1957l-2.2-5.6c49.2-19.4,60.6-108.6,60.7-109.5l6,0.7C735.2,1846.4,723.8,1936.3,671.2,1957z"/>
	</g>
	<g>
		<path d="M668.4,1910.4c-4.1-0.2-8.5-0.8-12.9-2l-3.5-1l1.6-3.3c16.6-34.4,67.9-32.8,70.1-32.7l3.6,0.1l-3.2,14.2l-0.6,0.6
			C722.4,1887.7,699.3,1911.6,668.4,1910.4z M660.8,1903.4c29.3,5.6,53.8-16.6,57.7-20.5l1.2-5.4
			C708.6,1877.9,674.7,1880.7,660.8,1903.4z"/>
	</g>
	<g>
		<path d="M667.1,1726.7l-3-5.3c46.1-26.1,44.8-116,44.8-116.9l6-0.1C715,1608.3,716.3,1698.8,667.1,1726.7z"/>
	</g>
	<g>
		<path d="M649.7,1681.2c-1.6-0.1-3.3-0.2-4.9-0.4l-3.6-0.4l1.1-3.5c11.6-36.4,62.7-41.9,64.8-42.1l3.6-0.4l-1.1,14.5l-0.5,0.7
			C708.1,1651,685.2,1682.6,649.7,1681.2z M649.4,1675.1c0.1,0,0.3,0,0.4,0c29.7,1.2,50.5-24,53.9-28.4l0.4-5.5
			C693.1,1643.1,659.9,1650.6,649.4,1675.1z"/>
	</g>
	<g>
		<path d="M457.7,2377.4c-0.3,0-0.6,0-1,0l0.3-6c0.3,0,0.6,0,0.8,0c52.5,2.1,99.6-73.4,100.1-74.1l5.1,3.2
			C561.2,2303.6,513.7,2379.6,457.7,2377.4z"/>
	</g>
	<g>
		<path d="M500.5,2340.5c-12.1-0.5-25.7-3.9-37.7-13.9l-2.8-2.3l2.8-2.3c29.4-24.3,75.4-1.3,77.3-0.3l3.2,1.6l-8.8,11.6l-0.8,0.3
			C532.8,2335.6,518.3,2341.3,500.5,2340.5z M469.8,2324.3c24.4,17.4,55.8,7.4,61,5.5l3.3-4.4
			C523.8,2321.1,491.9,2309.5,469.8,2324.3z"/>
	</g>
	<g>
		<path class="st1" d="M756.1,1575.2c-3.6-9.5-3.3-15.6,1-22.9c2.8-4.8,6.4-7.7,10.3-8.3c4-0.7,7.4,0.4,14.3,4.4l27.5,16l4.6-7.8
			l2.9,1.7l-2.1,3.6c-5.5,9.5-7.3,13.3-9.3,19l-34.4-20c-4.8-2.8-5.8-3.2-7.7-2.9c-1.8,0.2-3.4,1.3-4.4,3.1c-2,3.5-2,9,0.2,13.1
			c1.7,3,3.4,4.6,9.1,8l23,13.4l4.6-7.8l2.9,1.7l-2.1,3.6c-5.5,9.5-7.3,13.3-9.3,19l-44.3-25.8l-4.5,7.7l-2.9-1.7l12.7-21.7
			L756.1,1575.2z"/>
	</g>
	<g>
		<path class="st1" d="M657.8,1954.7l-30.4,3.1c-2.2,0.2-2.9,0.4-3.5,0.7c-1.4,0.7-1.4,2,0.3,5.1l2.5,4.7l-3.2,1.7l-11.5-21.5
			l3.2-1.7l1.6,2.9c2.7,4.7,3.2,5.1,10.1,4.3l51.3-5.3l1.8,3.4l-36.1,48.4l3,5.7l-3.2,1.7l-15.7-29.4l3.2-1.7l4.2,7.8L657.8,1954.7z
			"/>
	</g>
	<g>
		<g>
			<path class="st1" d="M427.1,2349.8c14.9-2.8,29,8,32.1,24.3c3,16.5-6.3,31.4-21.6,34.3c-15,2.8-29.3-7.8-32.3-24.2
				C402.2,2367.5,411.6,2352.7,427.1,2349.8z M416.3,2392.7c3,0.8,8.5,0.5,18.3-1.4c10.6-2,15.7-3.6,18.1-5.9
				c2.8-2.5,3.8-6.4,3-10.7c-0.9-4.7-3.7-8.1-7.5-9.3c-3-0.8-8.6-0.4-18,1.3c-11,2-16,3.6-18.4,6c-2.8,2.5-3.8,6.4-3,10.7
				C409.6,2388.2,412.4,2391.5,416.3,2392.7z"/>
		</g>
	</g>
	<g>
		<path d="M311.1,2756.8l-1-5.9c52.1-9.1,81.1-94.2,81.4-95.1l5.7,1.9C396,2661.3,366.8,2747.1,311.1,2756.8z"/>
	</g>
	<g>
		<path d="M329.6,2712.2c-7.8-0.3-16-2.1-24.2-6.2l-3.2-1.6l2.2-2.9c23.1-30.4,73.1-18.4,75.2-17.9l3.5,0.9l-5.9,13.3l-0.7,0.5
			C375.4,2699,354.7,2713.3,329.6,2712.2z M311.7,2702.2c27.8,11.5,56-5.5,60.7-8.5l2.2-5C363.6,2686.8,329.8,2682.7,311.7,2702.2z"
			/>
	</g>
	<g>
		<path d="M755.6,1564.4c-59.4-5.6-87.4-93.8-88.5-97.6l6.1-1.9c0.3,0.9,27.9,87.9,83,93.1L755.6,1564.4z"/>
	</g>
	<g>
		<path d="M724.8,1518.9c-21.3-0.9-37.3-10.7-38.3-11.3l-0.8-0.5l-5.8-13.3l3.2-1c2.3-0.7,56.1-17.4,79.7,12.7l2.2,2.8l-3.1,1.7
			C749,1517.3,736.1,1519.4,724.8,1518.9z M690.5,1503c5.2,2.9,35,18.3,65.2,3.5c-18.9-19.5-56.3-11.7-67.5-8.8L690.5,1503z"/>
	</g>
	<g>
		<path d="M695.9,2148.6c-41.7-42.7-6.1-128.1-4.5-131.7l5.9,2.5c-0.4,0.8-35.5,85.1,3.2,124.7L695.9,2148.6z"/>
	</g>
	<g>
		<path d="M739.4,2111.8l-3.5-0.7c-42.1-8-55.5-48.8-56-50.6l-0.3-0.9l4.2-13.9l3.1,1.3c2.2,0.9,54.1,22.9,52.6,61.2L739.4,2111.8z
			 M686,2059.6c2.1,5.5,14.9,36.6,47.5,44.8c-1.9-27.1-35.4-45.3-45.8-50.4L686,2059.6z"/>
	</g>
	<g>
		<path class="st2" d="M506.9,2552.2l2.7,30.5c0.1,2.2,0.4,2.9,0.7,3.5c0.7,1.4,2,1.4,5.1-0.2l4.7-2.4l1.6,3.2l-21.7,11.2l-1.6-3.2
			l2.9-1.5c4.8-2.6,5.2-3.1,4.5-10.1l-4.6-51.4l3.4-1.8l47.9,36.8l5.7-3l1.6,3.2l-29.6,15.3l-1.6-3.2l7.9-4.1L506.9,2552.2z"/>
	</g>
	<g>
		<path class="st2" d="M297.4,2746.3c10,1.1,15.4,4.2,19.9,11.3c3,4.7,4,9.2,2.6,12.9c-1.2,3.8-3.8,6.4-10.5,10.7l-26.8,17.1
			l4.9,7.6l-2.9,1.8l-2.3-3.5c-5.9-9.2-8.5-12.6-12.6-17l33.5-21.4c4.7-3,5.5-3.7,6.1-5.5c0.7-1.7,0.4-3.6-0.7-5.3
			c-2.2-3.4-7.1-5.9-11.7-5.8c-3.5,0.1-5.7,0.9-11.3,4.5l-22.5,14.4l4.9,7.6l-2.9,1.8l-2.3-3.5c-5.9-9.2-8.5-12.6-12.6-17l43.2-27.6
			l-4.8-7.5l2.9-1.8l13.6,21.2L297.4,2746.3z"/>
	</g>
	<g>
		<g>
			<path class="st2" d="M627.3,1719.6c11-10.4,28.8-9,40.1,3.1c11.5,12.2,11.7,29.9,0.3,40.5c-11.1,10.5-28.9,9.3-40.2-2.8
				C615.9,1748,615.7,1730.4,627.3,1719.6z M641.4,1761.5c2.9-0.9,7.4-4.2,14.6-11c7.8-7.4,11.3-11.5,12-14.8
				c1-3.6-0.2-7.4-3.2-10.6c-3.3-3.5-7.5-4.8-11.4-3.7c-2.9,0.9-7.5,4.3-14.4,10.8c-8.1,7.6-11.5,11.7-12.2,14.9
				c-1,3.6,0.2,7.4,3.2,10.6C633.3,1761.3,637.5,1762.6,641.4,1761.5z"/>
		</g>
	</g>
	<g>
		<path class="st2" d="M689.4,2157.2c3.4-9.5,7.5-14,15.6-16.9c5.2-1.9,9.9-1.8,13.2,0.3c3.5,2.1,5.4,5.1,8.1,12.6l10.6,30l8.5-3
			l1.1,3.2l-4,1.4c-10.3,3.7-14.1,5.4-19.4,8.5l-13.3-37.5c-1.9-5.2-2.3-6.2-4-7.2c-1.5-1-3.4-1.2-5.4-0.5
			c-3.8,1.4-7.3,5.6-8.3,10.1c-0.7,3.4-0.4,5.7,1.8,12l8.9,25.1l8.5-3l1.1,3.2l-4,1.4c-10.3,3.7-14.1,5.4-19.4,8.5l-17.1-48.3
			l-8.4,3l-1.1-3.2l23.7-8.4L689.4,2157.2z"/>
	</g>
	<g>
		<path d="M503.5,2538.1c-41.7-42.7-6.1-128.1-4.5-131.7l5.9,2.5c-0.4,0.8-35.5,85.1,3.2,124.7L503.5,2538.1z"/>
	</g>
	<g>
		<path d="M547,2501.3l-3.5-0.7c-42.1-8-55.5-48.8-56-50.5l-0.3-0.9l4.2-13.9l3.1,1.3c2.2,0.9,54.1,22.9,52.6,61.2L547,2501.3z
			 M493.5,2449.2c2.1,5.5,14.9,36.6,47.5,44.8c-1.9-27.1-35.4-45.3-45.8-50.3L493.5,2449.2z"/>
	</g>
	<g>
		<g>
			<path d="M591.9,1516.8l-0.6-3.5c-9.9-61.2,40.4-100.8,40.9-101.2l0.4-0.2l17.1-9.6l-0.1,5.3c-0.1,3.7-1.8,91.3-54.4,108.2
				L591.9,1516.8z M635.8,1417c-3,2.4-45.6,37.8-39,91.7c38.4-15.7,45.3-77.3,46.6-96L635.8,1417z"/>
		</g>
		<g>
			<path d="M626.1,1466.1c-7.1-10.3-9.5-20.2-7.2-29.6c2.4-9.7,8.9-17.2,20-22.9l0.8,1.2c-3.5,3.2-5.2,5.3-7.7,9.8
				c-2.7,4.8-4.5,9.5-5.7,14.4c-2.4,10-2.1,17.7,1.2,26.3L626.1,1466.1z"/>
		</g>
	</g>
	<g>
		<g>
			<path d="M796.7,1821.4l-3.2-1.4c-57-24.3-63.6-88-63.7-88.7l0-0.4l1-19.6l4.4,2.9c3.1,2,76.2,50.3,62.4,103.8L796.7,1821.4z
				 M735.8,1731c0.4,3.8,7.6,58.8,56.7,82c7.3-40.8-41.2-79.6-56.3-90.6L735.8,1731z"/>
		</g>
		<g>
			<path d="M772.1,1765.4c-12.5,0.5-22.1-2.8-28.8-9.7c-7-7.2-9.8-16.7-8.7-29.1l1.5,0c0.8,4.7,1.7,7.2,4.2,11.7
				c2.6,4.9,5.6,8.9,9.1,12.5c7.2,7.4,13.8,11.2,22.8,13.1L772.1,1765.4z"/>
		</g>
	</g>
	<g>
		<g>
			<path d="M451.3,2689.1l-2.6-2.3c-46.1-41.4-31.8-103.9-31.7-104.5l0.1-0.4l7.2-18.2l3.2,4.1c2.3,2.9,55.9,72.2,25.6,118.4
				L451.3,2689.1z M422.9,2583.9c-0.8,3.7-11.8,58.1,27.2,95.9c20.1-36.3-13.2-88.7-24-103.9L422.9,2583.9z"/>
		</g>
		<g>
			<path d="M446.1,2628.2c-12-3.6-20.1-9.8-24.2-18.5c-4.3-9.1-3.9-18.9,1.2-30.3l1.4,0.5c-0.8,4.7-0.7,7.4,0.1,12.4
				c0.9,5.5,2.4,10.2,4.5,14.8c4.4,9.3,9.5,15.1,17.4,19.7L446.1,2628.2z"/>
		</g>
	</g>
	<g>
		<g>
			<path d="M547.4,2220.9c-3.4-0.1-6.9-0.6-10.4-1.4l-3.5-0.8l1.3-3.4c23.5-59.5,88.9-67.9,89.5-68l0.4,0l20.2,0.5l-2.8,4.6
				C640.3,2155.5,598.2,2223,547.4,2220.9z M542.1,2214.1c42.4,6.6,80.8-44.6,91.7-60.4l-8.9-0.2
				C621.1,2154.1,564.7,2162.9,542.1,2214.1z"/>
		</g>
		<g>
			<path d="M590.5,2191.9c-0.8-12.9,2.3-22.9,9.2-30c7.2-7.4,16.9-10.5,29.7-9.7l0.1,1.5c-4.8,0.9-7.4,2-12,4.6c-5,2.9-9,6-12.6,9.7
				c-7.5,7.6-11.2,14.6-12.8,23.9L590.5,2191.9z"/>
		</g>
	</g>
	<g>
		<g>
			<path d="M737.2,1783.5c-19.5,7-33.2,19.1-36.8,32.5c-0.5,2.1-0.2,3.6,1.1,4c0.9,0.2,1.2,0.1,4.8-1.4c3.6-1.7,8.6-2.1,12.7-1
				c11.4,3.1,18,15.1,14.8,27c-3.3,12.3-15.8,18.8-29.5,15.2c-16-4.3-22.2-18.9-16.6-39.7c5.6-20.8,21.6-35.9,46.7-43.6
				L737.2,1783.5z"/>
		</g>
	</g>
	<g>
		<g>
			<path d="M675.4,2066.9c-20.7,0.5-37.6,7.5-45.3,19.2c-1.2,1.8-1.4,3.3-0.2,4.1c0.8,0.5,1.1,0.5,5,0.2c4-0.5,8.9,0.8,12.4,3.1
				c9.9,6.5,12.3,20,5.5,30.3c-7,10.7-20.9,12.8-32.8,5c-13.8-9.1-15-25-3.1-42.9s31.9-27.2,58.1-26.6L675.4,2066.9z"/>
		</g>
	</g>
	<g>
		<g>
			<path d="M414.9,2599c-20.7,0.5-37.6,7.5-45.3,19.2c-1.2,1.8-1.4,3.3-0.2,4.1c0.8,0.5,1.1,0.5,5,0.2c4-0.5,8.9,0.8,12.4,3.1
				c9.9,6.5,12.3,20,5.5,30.3c-7,10.7-20.9,12.8-32.8,5c-13.8-9.1-15-25-3.1-42.9c11.9-18,31.9-27.2,58.1-26.6L414.9,2599z"/>
		</g>
	</g>
	<g>
		<g>
			<path d="M727.7,1700.5c17.9-10.4,29.3-24.7,30.4-38.6c0.2-2.1-0.4-3.6-1.8-3.7c-0.9-0.1-1.2,0.1-4.5,2.3
				c-3.3,2.3-8.1,3.6-12.4,3.3c-11.8-1-20.4-11.6-19.4-23.9c1-12.7,12.1-21.3,26.3-20.2c16.5,1.3,25.2,14.6,23.5,36.1
				s-14.8,39.2-38.1,51.3L727.7,1700.5z"/>
		</g>
	</g>
	<g>
		<g>
			<path d="M560.9,2295c20.6,2.7,38.3-1.7,47.7-12c1.4-1.6,1.9-3.1,0.8-4.1c-0.7-0.6-1-0.6-4.9-0.9c-4-0.1-8.6-2.1-11.8-5
				c-8.8-8-9.1-21.7-0.8-30.8c8.6-9.5,22.7-9.5,33.2,0.1c12.3,11.1,11,27-3.5,42.9c-14.5,15.9-35.6,22-61.5,17.3L560.9,2295z"/>
		</g>
	</g>
	<g>
		<g>
			<path class="st1" d="M764.4,1753.3c-3.5,0.5-5.8-0.1-8.1-1.8c-4.3-3.2-5.1-7.5-2.2-12.4c-5.9,2.6-11.8,2-16.6-1.5
				c-5.5-4.1-6.8-10.3-3.1-15.2c3.3-4.4,8.7-5.8,15.4-4.1c4.2,1.2,8.2,3.2,14.2,7.5l4.6-6.2c3.8-5.1,4.3-6.1,4.2-8
				c-0.1-1.7-1.5-3.9-3.4-5.3c-3.2-2.3-8.1-3-9.5-1.2c-0.3,0.4-0.3,0.6-0.3,1.3c0.2,1.8-0.1,2.7-0.8,3.7c-1.7,2.2-4.4,2.7-6.5,1.2
				c-2.2-1.6-2.6-4.4-0.9-6.7c3.5-4.7,13.1-4.1,20.4,1.3c4.3,3.2,7.2,7.5,7.6,11.4c0.4,3.5,0.2,4-5.7,11.9l-7.3,9.9
				c-6.3,8.5-6.3,8.5-6.6,9.6c-0.3,1-0.2,1.5,0.7,2.2c0.9,0.7,1.1,0.7,3.7,0.5L764.4,1753.3z M762.9,1727.3
				c-4.8-3.3-7.4-4.4-10.5-4.6c-3.8-0.3-6.8,0.9-9,3.9c-2.8,3.8-2.5,7.4,0.8,9.9c2.6,1.9,5.9,2.1,9.2,0.6c2.2-1,4.7-3.3,8.1-8
				L762.9,1727.3z"/>
		</g>
	</g>
	<g>
		<g>
			<path class="st1" d="M450.3,2615.3c-3.5,0.5-5.8-0.1-8.1-1.8c-4.3-3.2-5.1-7.5-2.2-12.4c-5.9,2.6-11.8,2-16.6-1.5
				c-5.5-4.1-6.8-10.3-3.1-15.2c3.3-4.4,8.7-5.8,15.4-4.1c4.2,1.2,8.2,3.2,14.2,7.5l4.6-6.2c3.8-5.1,4.3-6.1,4.2-8
				c-0.1-1.7-1.5-3.9-3.4-5.3c-3.2-2.3-8.1-3-9.5-1.2c-0.3,0.4-0.3,0.6-0.3,1.3c0.2,1.8-0.1,2.7-0.8,3.7c-1.7,2.2-4.4,2.7-6.5,1.2
				c-2.2-1.6-2.6-4.4-0.9-6.7c3.5-4.7,13.1-4.1,20.4,1.3c4.3,3.2,7.2,7.5,7.6,11.4c0.4,3.5,0.2,4-5.7,11.9l-7.3,9.9
				c-6.3,8.5-6.3,8.5-6.6,9.6c-0.3,1-0.2,1.5,0.7,2.2c0.9,0.7,1.1,0.7,3.7,0.5L450.3,2615.3z M448.8,2589.2
				c-4.8-3.3-7.4-4.4-10.5-4.6c-3.8-0.3-6.8,0.9-9,3.9c-2.8,3.8-2.5,7.4,0.8,9.9c2.6,1.9,5.9,2.1,9.2,0.6c2.2-1,4.7-3.3,8.1-8
				L448.8,2589.2z"/>
		</g>
	</g>
	<g>
		<g>
			<path class="st3" d="M634.5,2158.2l0.1-2.9l22.7,0.4l-1.2,65.7c-0.2,12.4-1,16.9-3.7,21.2c-3.6,5.6-9.7,8.9-15.9,8.8
				c-7.5-0.1-13.1-4.6-13-10.4c0.1-4.1,2.4-6.6,6.1-6.6c3.5,0.1,5.7,2.6,5.7,6.2c0,0.9,0,1-0.5,3.5c-0.2,0.3-0.2,0.7-0.2,1.2
				c0,2.2,0.8,3.1,2.7,3.1c2.3,0,4.1-1.7,5-4.5c0.5-1.7,0.5-3,0.6-10.7l1.4-74.9L634.5,2158.2z M659,2126.2
				c-0.1,4.6-3.8,8.2-8.3,8.1c-4.5-0.1-7.9-3.8-7.8-8.5c0.1-4.6,3.5-8,8.1-8C655.5,2117.9,659.1,2121.6,659,2126.2z"/>
		</g>
	</g>
	<g>
		<g>
			<path class="st3" d="M367.9,2691.7l0.2-2.9l23,1.9l-5.6,66.6c-1.1,12.6-2.2,17.1-5.2,21.3c-4,5.4-10.5,8.4-16.8,7.9
				c-7.6-0.6-13-5.5-12.5-11.4c0.3-4.1,2.9-6.5,6.6-6.2c3.5,0.3,5.7,3,5.3,6.6c-0.1,0.9-0.1,1-0.7,3.5c-0.2,0.3-0.2,0.7-0.2,1.2
				c-0.2,2.2,0.6,3.2,2.5,3.3c2.3,0.2,4.3-1.4,5.4-4.3c0.6-1.7,0.7-3,1.4-10.8l6.4-75.8L367.9,2691.7z M394.9,2660.9
				c-0.4,4.7-4.4,8-8.9,7.7c-4.5-0.4-7.8-4.3-7.3-9.2c0.4-4.7,4.1-7.9,8.8-7.5C391.9,2652.2,395.3,2656.2,394.9,2660.9z"/>
		</g>
	</g>
	<g>
		<g>
			<path class="st4" d="M383.7,2504.8c-32.9-17.8-59.3-42.8-79-74.7c-20.5-33.2-30.8-67-31.4-103.9l3.8,2.2
				c3.5,15.8,6.7,25.2,14.4,42.9c8.4,19.3,17.3,36.2,27.6,52.9c21.1,34.2,39.9,56.2,64.2,75.9L383.7,2504.8z"/>
		</g>
		<g>
			<path class="st4" d="M273.2,2326.3c34.2,15.3,62.3,38.2,84.4,68.5c22.9,31.5,35.7,64.4,39.1,101.2l-4-1.9
				c-4.7-15.5-8.6-24.6-17.6-41.7c-9.8-18.6-20-34.8-31.5-50.7c-23.7-32.5-44-53-69.7-70.9L273.2,2326.3z"/>
		</g>
		<g>
			<path class="st4" d="M302.6,2385.7c22.3,10,40.6,24.9,55,44.7c15,20.6,23.3,42,25.5,66l-2.6-1.2c-3-10.1-5.6-16-11.5-27.2
				c-6.4-12.1-13-22.7-20.6-33.1c-15.4-21.2-28.7-34.6-45.4-46.2L302.6,2385.7z"/>
		</g>
	</g>
	<g>
		<g>
			<path class="st4" d="M385,2534.4c-31,20.9-65.4,32.7-102.8,35.4c-38.9,2.8-73.6-3.8-106.6-20.3l3.7-2.4
				c15.6,4.2,25.4,5.8,44.7,7.1c21,1.5,40.1,1.5,59.7,0.1c40.1-2.9,68.3-9.2,97-21.6L385,2534.4z"/>
		</g>
		<g>
			<path class="st4" d="M175.7,2549.4c29.4-23.2,62.8-37.5,99.9-43c38.6-5.7,73.7-1.7,107.8,12.3l-3.5,2.7
				c-15.9-3-25.8-3.8-45.1-3.7c-21,0.1-40.1,1.6-59.5,4.4c-39.8,5.9-67.4,14.4-95.1,28.9L175.7,2549.4z"/>
		</g>
		<g>
			<path class="st4" d="M242,2550.9c19.2-15.1,40.9-24.5,65.1-28c25.1-3.7,48-1.1,70.3,8l-2.3,1.7c-10.4-2-16.8-2.5-29.4-2.4
				c-13.7,0.1-26.2,1-38.8,2.9c-25.9,3.8-43.9,9.4-62,18.8L242,2550.9z"/>
		</g>
	</g>
	<g>
		<path d="M788.6,2486.1c-0.9-0.4-87.7-42.7-87.8-125.7c0-47.5,36.4-112,71.6-174.4c27.1-48,52.7-93.4,62.4-130.6
			c20.1-77.5-3.2-187.1-101.8-244.7c-25.1-14.7-39.6-33.5-43-56c-6.6-43.8,31-85.2,32.6-87l4.4,4.1c-0.4,0.4-37.2,41.1-31,82
			c3.1,20.6,16.6,37.9,40,51.6c101.3,59.2,125.3,171.8,104.6,251.4c-9.8,38-35.6,83.7-62.9,132.1c-34.8,61.7-70.8,125.5-70.8,171.5
			c0,79.2,83.5,119.9,84.3,120.3L788.6,2486.1z"/>
	</g>
</g>
</svg>
