<?xml version="1.0" encoding="utf-8"?>
<!-- Generator: Adobe Illustrator 24.3.0, SVG Export Plug-In . SVG Version: 6.00 Build 0)  -->
<svg version="1.1" id="Layer_1" xmlns="http://www.w3.org/2000/svg" xmlns:xlink="http://www.w3.org/1999/xlink" x="0px" y="0px"
	 viewBox="0 0 446.3 445.9" style="enable-background:new 0 0 446.3 445.9;" xml:space="preserve">
<style type="text/css">
	.st0{fill:#FFFFFF;}
	.st1{fill:none;stroke:#010101;stroke-width:1.7873;stroke-miterlimit:10;}
	.st2{fill:#C25627;}
	.st3{fill:#010101;}
</style>
<circle class="st0" cx="223.3" cy="223.1" r="222.9"/>
<g>
	<path class="st1" d="M344,323.1l2.6-119.8c0.7-30.7-2.2-53.9-32.4-59.3c-13.4-2.4-26.5-4.9-48.8,10.4"/>
	<path class="st2" d="M253.3,165.2c-7.9,15.3-6.5,26-6.5,98.5v50.2h27.9v9.3h-97.6v-9.3H205V199.6c0-22.3-1.4-32.1-5.1-38.1
		c-3.7-6-12.1-10.2-21.4-10.2c-15.8,0-31.6,9.8-37.6,22.8c-6,12.6-7.9,36.2-7.9,89.7v50.2h27.9v9.3H60v-9.3h31.1V149.9H60v-9.3h73
		v23.2c16.3-19.1,35.3-27.9,59.9-27.9c14.9,0,27.9,3.7,37.6,11.1c6.5,4.6,9.8,8.8,13,19.5 M361.1,313.9h30.7v9.3H291.4v-9.3h27.9"/>
	<path class="st3" d="M344.4,313.1c0.7-1.8,0,0,0.7-1.8c2.6-6.6,3.4-13.7,6.1-20.3c2.4-5.9,6.2-11.2,11-15.5
		c0.2,2.7,0.5,5.5,0.7,8.2c0.4,4,0.7,8.1-0.9,11.8c-1.2,2.8-3.4,5.1-5.7,7.3C351.7,307.6,349.5,308.8,344.4,313.1"/>
	<path class="st3" d="M343.9,313.6c-0.7-11.2-1.5-22.6-6.5-32.7c-3.1-6.1-7.5-11.5-12-16.9c3.7,10.1,3.5,21.2,7.1,31.4
		c2.4,6.7,6.3,12.9,11.4,18"/>
	<path class="st3" d="M345.4,275.8c-13-14-19.9-32.2-17.7-51.1c2.3,4.2,5.2,7.6,7.6,12.2c1.8,3.6,2.7,7.5,3.6,11.4
		C340.7,256.7,343.5,267.4,345.4,275.8"/>
	<path class="st3" d="M344.9,275c-1-3.5,2.1-7.4,3.8-10.6c1.6-3.3,1.8-6.1,4.1-8.9c5.3-6.2,10.5-12.3,15.8-18.5
		c2.9,12.3-3,26.1-13.8,32.5C352.1,271.2,348,276,344.9,275"/>
	<path class="st3" d="M346.8,233.2c-14.9-11.9-22.4-21.1-23-40.2c6.2,1.4,8.4,2.1,11.5,6.3c2.3,3.2,3.7,6.7,5.2,10.5
		C343.5,217.8,343.7,225.2,346.8,233.2"/>
	<path class="st3" d="M318.6,145.9c-4,18.7-8.9,29.5-25.7,38.7c-1.5-6.2-2-8.5,0.5-13.1c1.9-3.6,4.4-6.4,7.1-9.3
		C306.3,155.7,312.8,152.2,318.6,145.9"/>
	<path class="st3" d="M346.1,231.8c-1-3.5,2.1-7.4,3.8-10.6c1.6-3.3,1.8-6.1,4.1-8.9c5.3-6.2,10.5-12.3,15.8-18.5
		c2.9,12.3-3,26.1-13.8,32.5C353.3,228,349.2,232.8,346.1,231.8"/>
	<path class="st3" d="M348,195.2c-17.2-8.1-26.6-15.4-31.7-33.8c6.3-0.1,8.7,0,12.6,3.4c3,2.6,5.2,5.7,7.5,9
		C341.3,181,343.1,188.1,348,195.2"/>
	<path class="st3" d="M347,194.1c-1.8-3.2,0.4-7.6,1.2-11.2c0.8-3.6,0.3-6.3,2-9.6c3.7-7.2,7.4-14.4,11.1-21.7
		c5.7,11.2,3.2,26.1-5.9,34.8C353.1,188.6,350.2,194.2,347,194.1"/>
	<path class="st3" d="M340.1,159.8c-2.2-2.9-0.6-7.6-0.3-11.3s-0.5-6.3,0.7-9.8c2.7-7.6,5.5-15.3,8.2-22.9
		c7.1,10.4,6.5,25.5-1.4,35.3C345.4,153.6,343.3,159.5,340.1,159.8"/>
	<path class="st3" d="M298.1,141.7c-4.1,4.9-5.5,7.5-8.8,12.7s-4.5,8.3-5.5,14.4c-1,6.1-1.9,12.3-4.6,17.9
		c-1.5-3.8-2.8-7.6-3.9-11.6c-1.9-6.6-3.1-14.1,0.1-20.2c2-3.8,5.6-6.7,9.5-8.6c3.9-1.9,8.2-2.9,12.4-3.9"/>
	<path class="st3" d="M273,149.3c-5.5,3.2-6.5,7.8-11.3,11.7c-4.8,3.9-4.5,5.5-7.5,10.9s-9.8,9.3-14.2,13.6
		c-0.2-4.1-0.1-8.1,0.1-12.2c0.4-6.9,1.7-14.4,6.8-19.1c3.2-3,7.5-4.4,11.8-4.9c4.3-0.5,10.4-0.4,14.8,0.1"/>
	<path class="st3" d="M297.5,143.4c1-3.5-0.3-7.3-2-10.5c-5.5-10.5-15.6-18.5-27.1-21.3c2.8,5.8,3.7,12.6,7.3,18
		c1.8,2.6,4.1,4.8,6.5,6.7C286.4,139.6,292.1,143.1,297.5,143.4"/>
	<path class="st3" d="M318.1,146c-4.8-8.1-10.9-18-9.5-27.2c0.8-5.4,3.8-10.4,7.5-14.4c4.5,9.7,9.1,20,7.9,30.7
		C323.5,139.3,321.8,143.8,318.1,146"/>
</g>
</svg>
