<?xml version="1.0" encoding="utf-8"?>
<!-- Generator: Adobe Illustrator 24.3.0, SVG Export Plug-In . SVG Version: 6.00 Build 0)  -->
<svg version="1.1" id="Layer_1" xmlns="http://www.w3.org/2000/svg" xmlns:xlink="http://www.w3.org/1999/xlink" x="0px" y="0px"
	 viewBox="0 0 1500 5167.5" style="enable-background:new 0 0 1500 5167.5;" xml:space="preserve">
<style type="text/css">
	.st0{fill:#010101;}
	.st1{fill:#C1531B;}
	.st2{fill:#7F2629;}
	.st3{fill:#C76C61;}
	.st4{fill:#86321B;}
</style>
<g>
	<g>
		<path class="st0" d="M408.6,1277.9c0,0-12.4-21.8,1-39c13.1,14,0.9,38.3,0.9,38.3L408.6,1277.9z"/>
	</g>
	<g>
		<path class="st0" d="M389.1,1304.7c0,0,18.1-17.5,38-8.7c-10.3,16.2-36.9,10.4-36.9,10.4L389.1,1304.7z"/>
	</g>
	<g>
		<path class="st0" d="M356.6,1379.5c0,0,13.4-21.3,34.9-17.4c-6.2,18.2-33.4,18.9-33.4,18.9L356.6,1379.5z"/>
	</g>
	<g>
		<path class="st0" d="M352.5,1450.3c0,0,9.1-23.4,30.9-23.8c-2.6,19-29.1,24.9-29.1,24.9L352.5,1450.3z"/>
	</g>
	<g>
		<path class="st0" d="M376.5,1535.4c0,0,2.4-25,23.3-31.2c2.6,19-21.4,31.8-21.4,31.8L376.5,1535.4z"/>
	</g>
	<g>
		<path class="st0" d="M421.2,1615.2c0,0-3.8-24.8,14.9-36c7.3,17.8-12.8,36.1-12.8,36.1L421.2,1615.2z"/>
	</g>
	<g>
		<path class="st0" d="M459.4,1687.9c0,0-3.8-24.8,14.9-36c7.3,17.8-12.8,36.1-12.8,36.1L459.4,1687.9z"/>
	</g>
	<g>
		<path class="st0" d="M488.6,1763.8c0,0-3.8-24.8,14.9-36c7.3,17.8-12.8,36.1-12.8,36.1L488.6,1763.8z"/>
	</g>
	<g>
		<path class="st0" d="M470.6,1857.1c0,0,12.8-21.6,34.4-18.3c-5.7,18.3-32.9,19.7-32.9,19.7L470.6,1857.1z"/>
	</g>
	<g>
		<path class="st0" d="M463.5,1234.6c0,0-12.4-21.8,1-39c13.1,14,0.9,38.3,0.9,38.3L463.5,1234.6z"/>
	</g>
	<g>
		<path class="st0" d="M501.2,1172.5c0,0-26.3-10.9-26.4-32.1c21.4,4.2,27.7,30.5,27.7,30.5L501.2,1172.5z"/>
	</g>
	<g>
		<path class="st0" d="M493.3,1211.4c0,0,22.8-17.1,41-6.4c-14.5,16.3-40.3,8.3-40.3,8.3L493.3,1211.4z"/>
	</g>
	<g>
		<path class="st0" d="M369,1343.2c0,0-18.8-16.7-11.5-37.2c16.9,9.1,13.2,36,13.2,36L369,1343.2z"/>
	</g>
	<g>
		<path class="st0" d="M348.9,1426.5c0,0-23.2-9.7-22.9-31.5c19,3.1,24.1,29.8,24.1,29.8L348.9,1426.5z"/>
	</g>
	<g>
		<path class="st0" d="M361.9,1504c0,0-24.1-7.2-26.2-28.9c19.2,1,27.2,27,27.2,27L361.9,1504z"/>
	</g>
	<g>
		<path class="st0" d="M404.6,1592.3c0,0-25-2.3-31.3-23.2c19-2.7,31.9,21.2,31.9,21.2L404.6,1592.3z"/>
	</g>
	<g>
		<path class="st0" d="M445.3,1663.1c0,0-25.1-0.9-32.6-21.4c18.8-3.8,33.1,19.4,33.1,19.4L445.3,1663.1z"/>
	</g>
	<g>
		<path class="st0" d="M478.4,1735.1c0,0-25.1-0.9-32.6-21.4c18.8-3.8,33.1,19.4,33.1,19.4L478.4,1735.1z"/>
	</g>
	<g>
		<path class="st0" d="M485.2,1820.8c0,0-21.1-13.6-17.1-35c18.1,6.4,18.6,33.6,18.6,33.6L485.2,1820.8z"/>
	</g>
	<g>
		<path class="st0" d="M444.6,1883.4c0,0-13.9-20.9-1.6-38.9c14.1,13.1,3.5,38.2,3.5,38.2L444.6,1883.4z"/>
	</g>
	<g>
		<path class="st0" d="M499.9,974.2c-10,4.8-16.2,11.6-17.8,19.8c-1.5,7.9,0.9,10.6,11.4,12.7l40.6,8c7.9,1.5,10.6-0.2,12-7.2
			c1.2-6.2,0.7-10.8-1.4-14.7c0.1,2.3,0,3.3-0.2,4.5c-1.3,6.3-8,10.4-15.3,9s-11.6-8.2-10-16.2c1.5-7.9,8-12.3,16-10.7
			c12,2.4,17.2,14.8,13.7,32.6c-5.2,26.4-24.7,42.7-46.1,38.5c-10.7-2.1-19.6-8.9-24.2-18.8c-4.2-8.5-5-18.5-2.6-31.1
			c3-15.4,10-24.4,22.8-29.5L499.9,974.2z"/>
	</g>
	<g>
		<path class="st0" d="M738.4,1929c-4.8,10-5.5,19.1-1.6,26.5c3.7,7.1,7.3,7.8,16.8,2.8l36.8-19c7.1-3.7,8.2-6.7,4.9-13.1
			c-2.9-5.6-6.1-8.9-10.3-10.6c1.5,1.7,2.1,2.6,2.6,3.6c3,5.8,0.2,13.1-6.4,16.5c-6.7,3.4-14.2,0.8-17.9-6.5
			c-3.7-7.1-1.4-14.6,5.9-18.4c10.9-5.6,22.7,0.9,31,17c12.3,23.9,7.2,48.8-12.2,58.8c-9.7,5-20.9,5.2-30.7,0.3
			c-8.6-4-15.5-11.4-21.3-22.7c-7.2-13.9-7.3-25.3-0.5-37.3L738.4,1929z"/>
	</g>
	<g>
		<path class="st0" d="M498.4,1442.2c4.7-10,5.3-19.2,1.4-26.5c-3.7-7.1-7.3-7.7-16.8-2.7l-36.6,19.3c-7.1,3.7-8.2,6.8-4.8,13.1
			c2.9,5.6,6.2,8.9,10.3,10.5c-1.5-1.7-2.1-2.5-2.7-3.6c-3-5.7-0.3-13.1,6.3-16.6s14.1-0.9,18,6.3c3.7,7.1,1.5,14.6-5.7,18.4
			c-10.9,5.7-22.7-0.7-31.1-16.7c-12.5-23.8-7.6-48.7,11.7-58.9c9.6-5.1,20.8-5.4,30.7-0.6c8.6,3.9,15.6,11.3,21.5,22.6
			c7.3,13.9,7.5,25.3,0.8,37.3L498.4,1442.2z"/>
	</g>
	<g>
		<path class="st1" d="M463.4,1289.1l2.8,19.6l-2.3,0.3c-1.3-5.2-3.3-7-7.1-6.4c-1.5,0.2-3.3,1.1-5.4,2.6l-4.9,3.5l18.4,7.1
			l-0.7-4.9l2.3-0.3l5.4,37.6l-2.3,0.3l-0.4-3l-48-18.9l-12.6,8.9c5.9,0.3,10,4,10.8,9.6c0.9,6.2-3.3,11.5-9.7,12.5
			c-6.3,0.9-11.5-3-12.4-9.4c-0.8-5.2,1.9-9.7,8.5-14.4l47.1-33c6-4.2,8.1-7,8.2-11.5L463.4,1289.1z"/>
	</g>
	<g>
		<path class="st1" d="M650.6,1757.5l8.9,17.7l-2.1,1c-2.9-4.5-5.4-5.6-8.8-3.9c-1.3,0.7-2.8,2.1-4.3,4.2l-3.5,4.8l19.7,1l-2.2-4.4
			l2.1-1l17,34l-2.1,1l-1.3-2.7l-51.5-2.9l-9.1,12.4c5.7-1.5,10.8,0.7,13.3,5.7c2.8,5.6,0.5,12-5.3,14.9c-5.7,2.8-11.9,0.8-14.7-5
			c-2.4-4.7-1.3-9.8,3.6-16.3l34.3-46.1c4.4-5.9,5.5-9.2,4.2-13.6L650.6,1757.5z"/>
	</g>
	<g>
		<path class="st0" d="M823.8,2209.9c-3.6-145-86.8-298.2-174.8-460.3c-72.2-132.9-146.9-270.3-173.5-402.8
			C434.8,1144.6,506,941.6,552,838.6l-5.5-2.5c-46.3,103.6-117.9,308-76.9,511.9c26.8,133.3,101.7,271.2,174.1,404.4
			c87.7,161.5,170.6,313.9,174.1,457.5L823.8,2209.9z"/>
	</g>
	<g>
		<path class="st0" d="M524,1387l2.2-5.6c-49.2-19.4-60.6-108.6-60.7-109.5l-6,0.7C460,1276.4,471.4,1366.2,524,1387z"/>
	</g>
	<g>
		<path class="st0" d="M471.7,1316.5l-0.6-0.6l-3.2-14.2l3.6-0.1c2.2-0.1,53.5-1.7,70.1,32.7l1.6,3.3l-3.5,1
			c-4.4,1.2-8.7,1.8-12.9,2C495.8,1341.6,472.8,1317.6,471.7,1316.5z M475.4,1307.5l1.2,5.4c4,3.9,28.4,26.1,57.7,20.5
			C520.5,1310.6,486.6,1307.8,475.4,1307.5z"/>
	</g>
	<g>
		<path class="st0" d="M528.1,1156.7l3-5.3c-46.1-26.1-44.8-116-44.8-116.9l-6-0.1C480.2,1038.2,478.9,1128.8,528.1,1156.7z"/>
	</g>
	<g>
		<path class="st0" d="M486.1,1079.5l-0.5-0.7l-1.1-14.5l3.6,0.4c2.2,0.2,53.2,5.8,64.8,42.1l1.1,3.5l-3.6,0.4
			c-1.7,0.2-3.3,0.3-4.9,0.4C510,1112.6,487.1,1080.9,486.1,1079.5z M491.1,1071.2l0.4,5.5c3.4,4.4,24.2,29.6,53.9,28.4
			c0.1,0,0.3,0,0.4,0C535.3,1080.6,502.1,1073.1,491.1,1071.2z"/>
	</g>
	<g>
		<path class="st0" d="M737.5,1807.3c0.3,0,0.6,0,1,0l-0.3-6c-0.3,0-0.6,0-0.8,0c-52.5,2.1-99.6-73.4-100.1-74.1l-5.1,3.2
			C634,1733.6,681.4,1809.6,737.5,1807.3z"/>
	</g>
	<g>
		<path class="st0" d="M661.4,1765.2l-0.8-0.3l-8.8-11.6l3.2-1.6c1.9-1,47.9-23.9,77.3,0.3l2.8,2.3l-2.8,2.3
			c-12,10-25.6,13.4-37.7,13.9C676.9,1771.2,662.4,1765.6,661.4,1765.2z M661.1,1755.5l3.3,4.4c5.2,1.9,36.7,11.9,61-5.5
			C703.3,1739.4,671.3,1751,661.1,1755.5z"/>
	</g>
	<g>
		<path class="st2" d="M447.2,1000.5l12.7,21.7l-2.9,1.7l-4.5-7.7l-44.3,25.8c-2.1-5.7-3.8-9.5-9.3-19l-2.1-3.6l2.9-1.7l4.6,7.8
			l23-13.4c5.7-3.3,7.4-5,9.1-8c2.2-4.1,2.2-9.6,0.2-13.1c-1-1.8-2.6-2.9-4.4-3.1c-1.9-0.3-2.9,0.1-7.7,2.9l-34.4,20
			c-2.1-5.7-3.8-9.5-9.3-19l-2.1-3.6l2.9-1.7l4.6,7.8l27.5-16c6.9-4,10.4-5.1,14.3-4.4c3.9,0.5,7.5,3.5,10.3,8.3
			c4.3,7.4,4.6,13.5,1,22.9L447.2,1000.5z"/>
	</g>
	<g>
		<path class="st2" d="M559.7,1414.7l4.2-7.8l3.2,1.7l-15.7,29.4l-3.2-1.7l3-5.7l-36.1-48.4l1.8-3.4l51.3,5.3
			c6.9,0.8,7.4,0.4,10.1-4.3l1.6-2.9l3.2,1.7l-11.5,21.5l-3.2-1.7l2.5-4.7c1.6-3,1.7-4.3,0.3-5.1c-0.6-0.3-1.3-0.6-3.5-0.7
			l-30.4-3.1L559.7,1414.7z"/>
	</g>
	<g>
		<g>
			<path class="st2" d="M789.9,1814.2c-3,16.3-17.3,26.9-32.3,24.2c-15.3-2.8-24.7-17.8-21.6-34.3c3-16.3,17.2-27.1,32.1-24.3
				C783.6,1782.6,793,1797.4,789.9,1814.2z M786.4,1813.4c0.8-4.3-0.2-8.2-3-10.7c-2.4-2.3-7.4-3.9-18.4-6c-9.4-1.7-15-2.1-18-1.3
				c-3.9,1.2-6.7,4.6-7.5,9.3c-0.8,4.3,0.2,8.2,3,10.7c2.4,2.3,7.5,4,18.1,5.9c9.8,1.8,15.3,2.2,18.3,1.4
				C782.7,1821.5,785.5,1818.1,786.4,1813.4z"/>
		</g>
	</g>
	<g>
		<path class="st0" d="M884.1,2186.7l1-5.9c-52.1-9.1-81.1-94.2-81.4-95.1l-5.7,1.9C799.2,2091.2,828.4,2177,884.1,2186.7z"/>
	</g>
	<g>
		<path class="st0" d="M818.7,2128.2l-0.7-0.5l-5.9-13.3l3.5-0.9c2.1-0.5,52.1-12.4,75.2,17.9l2.2,2.9l-3.2,1.6
			c-8.2,4.1-16.4,5.9-24.2,6.2C840.5,2143.2,819.8,2129,818.7,2128.2z M820.6,2118.7l2.2,5c4.7,3,32.9,20,60.7,8.5
			C865.3,2112.7,831.6,2116.7,820.6,2118.7z"/>
	</g>
	<g>
		<path class="st0" d="M439.6,994.4c59.4-5.6,87.4-93.8,88.5-97.6l-6.1-1.9c-0.3,0.9-27.9,87.9-83,93.1L439.6,994.4z"/>
	</g>
	<g>
		<path class="st0" d="M433.2,940l-3.1-1.7l2.2-2.8c23.6-30.1,77.4-13.5,79.7-12.7l3.2,1l-5.8,13.3l-0.8,0.5
			c-1,0.6-16.9,10.4-38.3,11.3C459.1,949.3,446.2,947.3,433.2,940z M507,927.6c-11.2-2.9-48.6-10.6-67.5,8.8
			c30.2,14.8,60-0.6,65.2-3.5L507,927.6z"/>
	</g>
	<g>
		<path class="st0" d="M499.2,1578.5c41.7-42.7,6.1-128.1,4.5-131.7l-5.9,2.5c0.4,0.8,35.5,85.1-3.2,124.7L499.2,1578.5z"/>
	</g>
	<g>
		<path class="st0" d="M455.6,1538.3c-1.5-38.3,50.4-60.3,52.6-61.2l3.1-1.3l4.2,13.9l-0.3,0.9c-0.6,1.7-14,42.5-56,50.6l-3.5,0.7
			L455.6,1538.3z M507.5,1484c-10.4,5-43.9,23.3-45.8,50.4c32.6-8.2,45.4-39.3,47.5-44.8L507.5,1484z"/>
	</g>
	<g>
		<path class="st3" d="M658.6,2004.9l7.9,4.1l-1.6,3.2l-29.6-15.3l1.6-3.2l5.7,3l47.9-36.8l3.4,1.8l-4.6,51.4
			c-0.7,6.9-0.3,7.4,4.5,10.1l2.9,1.5l-1.6,3.2l-21.7-11.2l1.6-3.2l4.7,2.4c3.1,1.6,4.3,1.6,5.1,0.2c0.3-0.6,0.5-1.3,0.7-3.5
			l2.7-30.5L658.6,2004.9z"/>
	</g>
	<g>
		<path class="st3" d="M889.9,2171.2l13.6-21.2l2.9,1.8l-4.8,7.5l43.2,27.6c-4.1,4.4-6.7,7.8-12.6,17l-2.3,3.5l-2.9-1.8l4.9-7.6
			l-22.5-14.4c-5.6-3.6-7.8-4.4-11.3-4.5c-4.6-0.1-9.6,2.4-11.7,5.8c-1.1,1.7-1.4,3.6-0.7,5.3c0.6,1.8,1.4,2.5,6.1,5.5l33.5,21.4
			c-4.1,4.4-6.7,7.8-12.6,17l-2.3,3.5l-2.9-1.8l4.9-7.6l-26.8-17.1c-6.7-4.3-9.3-6.9-10.5-10.7c-1.3-3.7-0.3-8.3,2.6-12.9
			c4.6-7.2,9.9-10.2,19.9-11.3L889.9,2171.2z"/>
	</g>
	<g>
		<g>
			<path class="st3" d="M567.7,1190.3c-11.4,12.1-29.1,13.3-40.2,2.8c-11.3-10.7-11.1-28.3,0.3-40.5c11.4-12.1,29.1-13.5,40.1-3.1
				C579.4,1160.3,579.3,1177.9,567.7,1190.3z M565.1,1187.8c3-3.2,4.2-7,3.2-10.6c-0.8-3.3-4.1-7.3-12.2-14.9
				c-7-6.6-11.5-9.9-14.4-10.8c-3.9-1.1-8.1,0.2-11.4,3.7c-3,3.2-4.2,7-3.2,10.6c0.8,3.3,4.2,7.4,12,14.8c7.3,6.8,11.7,10.1,14.6,11
				C557.7,1192.6,561.9,1191.3,565.1,1187.8z"/>
		</g>
	</g>
	<g>
		<path class="st3" d="M508.9,1578.3l23.7,8.4l-1.1,3.2l-8.4-3l-17.1,48.3c-5.2-3-9.1-4.8-19.4-8.5l-4-1.4l1.1-3.2l8.5,3l8.9-25.1
			c2.2-6.2,2.5-8.6,1.8-12c-1-4.5-4.5-8.8-8.3-10.1c-1.9-0.7-3.8-0.5-5.4,0.5c-1.6,1-2.1,2-4,7.2l-13.3,37.5
			c-5.2-3-9.1-4.8-19.4-8.5l-4-1.4l1.1-3.2l8.5,3l10.6-30c2.7-7.5,4.6-10.6,8.1-12.6c3.3-2.1,8-2.2,13.2-0.3
			c8,2.8,12.2,7.3,15.6,16.9L508.9,1578.3z"/>
	</g>
	<g>
		<path class="st0" d="M691.7,1968.1c41.7-42.7,6.1-128.1,4.5-131.7l-5.9,2.5c0.4,0.8,35.5,85.1-3.2,124.7L691.7,1968.1z"/>
	</g>
	<g>
		<path class="st0" d="M648.1,1927.8c-1.5-38.3,50.4-60.3,52.6-61.2l3.1-1.3l4.2,13.9l-0.3,0.9c-0.6,1.7-14,42.5-56,50.5l-3.5,0.7
			L648.1,1927.8z M699.9,1873.6c-10.4,5-43.9,23.2-45.8,50.3c32.6-8.2,45.4-39.3,47.5-44.8L699.9,1873.6z"/>
	</g>
	<g>
		<g>
			<path class="st0" d="M600,945.7c-52.6-16.9-54.3-104.5-54.4-108.2l-0.1-5.3l17.1,9.6l0.4,0.2c0.5,0.4,50.9,40,40.9,101.2
				l-0.6,3.5L600,945.7z M551.9,842.7c1.2,18.6,8.2,80.3,46.6,96c6.6-53.9-36.1-89.3-39-91.7L551.9,842.7z"/>
		</g>
		<g>
			<path class="st0" d="M567.8,895.3c3.2-8.6,3.6-16.2,1.2-26.3c-1.2-4.9-3-9.5-5.7-14.4c-2.5-4.5-4.2-6.6-7.7-9.8l0.8-1.2
				c11.1,5.7,17.6,13.1,20,22.9c2.3,9.4-0.1,19.2-7.2,29.6L567.8,895.3z"/>
		</g>
	</g>
	<g>
		<g>
			<path class="st0" d="M397.6,1248c-13.8-53.5,59.3-101.8,62.4-103.8l4.4-2.9l1,19.6l0,0.4c-0.1,0.6-6.7,64.4-63.7,88.7l-3.2,1.4
				L397.6,1248z M458.9,1152.3c-15.1,11-63.5,49.8-56.3,90.6c49.1-23.2,56.3-78.2,56.7-82L458.9,1152.3z"/>
		</g>
		<g>
			<path class="st0" d="M423,1193.8c9-1.9,15.7-5.6,22.8-13.1c3.5-3.6,6.4-7.6,9.1-12.5c2.4-4.5,3.4-7.1,4.2-11.7l1.5,0
				c1.1,12.4-1.7,21.9-8.7,29.1c-6.7,6.9-16.3,10.2-28.8,9.7L423,1193.8z"/>
		</g>
	</g>
	<g>
		<g>
			<path class="st0" d="M741.9,2116.2c-30.3-46.2,23.3-115.5,25.6-118.4l3.2-4.1l7.2,18.2l0.1,0.4c0.2,0.6,14.5,63.1-31.7,104.5
				l-2.6,2.3L741.9,2116.2z M769.1,2005.8c-10.7,15.3-44,67.6-24,103.9c39-37.8,28-92.2,27.2-95.9L769.1,2005.8z"/>
		</g>
		<g>
			<path class="st0" d="M748.5,2056.7c7.9-4.7,13-10.4,17.4-19.7c2.1-4.6,3.6-9.3,4.5-14.8c0.9-5,0.9-7.8,0.1-12.4l1.4-0.5
				c5.1,11.4,5.5,21.3,1.2,30.3c-4.1,8.7-12.2,14.9-24.2,18.5L748.5,2056.7z"/>
		</g>
	</g>
	<g>
		<g>
			<path class="st0" d="M553,1582.4l-2.8-4.6l20.2-0.5l0.4,0c0.7,0.1,66,8.5,89.5,68l1.3,3.4l-3.5,0.8c-3.5,0.8-6.9,1.3-10.4,1.4
				C596.9,1652.9,554.9,1585.4,553,1582.4z M570.2,1583.5l-8.9,0.2c10.9,15.9,49.3,67,91.7,60.4
				C630.5,1592.8,574.1,1584,570.2,1583.5z"/>
		</g>
		<g>
			<path class="st0" d="M603.1,1621.8c-1.7-9.3-5.4-16.3-12.8-23.9c-3.6-3.7-7.7-6.8-12.6-9.7c-4.6-2.6-7.2-3.6-12-4.6l0.1-1.5
				c12.8-0.9,22.5,2.3,29.7,9.7c7,7.1,10.1,17.1,9.2,30L603.1,1621.8z"/>
		</g>
	</g>
	<g>
		<g>
			<path class="st0" d="M460.7,1206.4c25.1,7.8,41.1,22.8,46.7,43.6c5.6,20.8-0.6,35.4-16.6,39.7c-13.7,3.7-26.2-2.8-29.5-15.2
				c-3.2-11.9,3.4-23.9,14.8-27c4.1-1.1,9.1-0.7,12.7,1c3.6,1.5,3.9,1.7,4.8,1.4c1.4-0.4,1.7-1.9,1.1-4
				c-3.6-13.5-17.3-25.5-36.8-32.5L460.7,1206.4z"/>
		</g>
	</g>
	<g>
		<g>
			<path class="st0" d="M520.1,1489.2c26.3-0.6,46.2,8.6,58.1,26.6s10.7,33.8-3.1,42.9c-11.8,7.8-25.7,5.7-32.8-5
				c-6.8-10.3-4.4-23.8,5.5-30.3c3.5-2.3,8.4-3.6,12.4-3.1c3.9,0.3,4.2,0.3,5-0.2c1.2-0.8,1-2.4-0.2-4.1
				c-7.7-11.6-24.5-18.7-45.3-19.2L520.1,1489.2z"/>
		</g>
	</g>
	<g>
		<g>
			<path class="st0" d="M780.6,2021.3c26.3-0.6,46.2,8.6,58.1,26.6s10.7,33.8-3.1,42.9c-11.8,7.8-25.7,5.7-32.8-5
				c-6.8-10.3-4.4-23.8,5.5-30.3c3.5-2.3,8.4-3.6,12.4-3.1c3.9,0.3,4.2,0.3,5-0.2c1.2-0.8,1-2.4-0.2-4.1
				c-7.7-11.6-24.5-18.7-45.3-19.2L780.6,2021.3z"/>
		</g>
	</g>
	<g>
		<g>
			<path class="st0" d="M463.5,1136.9c-23.3-12.1-36.4-29.8-38.1-51.3c-1.7-21.5,6.9-34.7,23.5-36.1c14.2-1.1,25.3,7.5,26.3,20.2
				c1,12.3-7.6,22.9-19.4,23.9c-4.2,0.3-9.1-0.9-12.4-3.3c-3.3-2.1-3.5-2.3-4.5-2.3c-1.4,0.1-2,1.6-1.8,3.7
				c1.1,13.9,12.5,28.2,30.4,38.6L463.5,1136.9z"/>
		</g>
	</g>
	<g>
		<g>
			<path class="st0" d="M635.1,1732.5c-25.9,4.6-47-1.4-61.5-17.3c-14.5-15.9-15.7-31.7-3.5-42.9c10.5-9.5,24.6-9.5,33.2-0.1
				c8.3,9.1,8,22.8-0.8,30.8c-3.1,2.9-7.8,4.8-11.8,5c-3.9,0.3-4.2,0.3-4.9,0.9c-1.1,1-0.6,2.5,0.8,4.1c9.4,10.3,27.1,14.7,47.7,12
				L635.1,1732.5z"/>
		</g>
	</g>
	<g>
		<g>
			<path class="st2" d="M430.8,1181.2c2.6,0.2,2.8,0.1,3.7-0.5c0.9-0.7,1-1.2,0.7-2.2c-0.2-1.1-0.2-1.1-6.6-9.6l-7.3-9.9
				c-5.8-7.9-6.1-8.4-5.7-11.9c0.4-3.9,3.3-8.2,7.6-11.4c7.3-5.4,16.9-6,20.4-1.3c1.7,2.3,1.3,5.1-0.9,6.7c-2,1.5-4.8,1.1-6.5-1.2
				c-0.7-1-1-1.9-0.8-3.7c0-0.7,0-1-0.3-1.3c-1.3-1.8-6.3-1.2-9.5,1.2c-1.9,1.4-3.3,3.6-3.4,5.3c-0.1,1.9,0.4,2.9,4.2,8l4.6,6.2
				c5.9-4.3,10-6.3,14.2-7.5c6.8-1.7,12.2-0.3,15.4,4.1c3.6,4.9,2.4,11.1-3.1,15.2c-4.7,3.5-10.7,4.1-16.6,1.5
				c2.9,5,2.1,9.3-2.2,12.4c-2.3,1.7-4.6,2.3-8.1,1.8L430.8,1181.2z M433.6,1159c3.5,4.7,5.9,7,8.1,8c3.3,1.6,6.6,1.4,9.2-0.6
				c3.3-2.5,3.6-6.1,0.8-9.9c-2.2-3-5.2-4.2-9-3.9c-3.1,0.2-5.7,1.3-10.5,4.6L433.6,1159z"/>
		</g>
	</g>
	<g>
		<g>
			<path class="st2" d="M744.9,2043.1c2.6,0.2,2.8,0.1,3.7-0.5s1-1.2,0.7-2.2c-0.2-1.1-0.2-1.1-6.6-9.6l-7.3-9.9
				c-5.8-7.9-6.1-8.4-5.7-11.9c0.4-3.9,3.3-8.2,7.6-11.4c7.3-5.4,16.9-6,20.4-1.3c1.7,2.3,1.3,5.1-0.9,6.7c-2,1.5-4.8,1.1-6.5-1.2
				c-0.7-1-1-1.9-0.8-3.7c0-0.7,0-1-0.3-1.3c-1.3-1.8-6.3-1.2-9.5,1.2c-1.9,1.4-3.3,3.6-3.4,5.3c-0.1,1.9,0.4,2.9,4.2,8l4.6,6.2
				c5.9-4.3,10-6.3,14.2-7.5c6.8-1.7,12.2-0.3,15.4,4.1c3.6,4.9,2.4,11.1-3.1,15.2c-4.7,3.5-10.7,4.1-16.6,1.5
				c2.9,5,2.1,9.3-2.2,12.4c-2.3,1.7-4.6,2.3-8.1,1.8L744.9,2043.1z M747.7,2021c3.5,4.7,5.9,7,8.1,8c3.3,1.6,6.6,1.4,9.2-0.6
				c3.3-2.5,3.6-6.1,0.8-9.9c-2.2-3-5.2-4.2-9-3.9c-3.1,0.2-5.7,1.3-10.5,4.6L747.7,2021z"/>
		</g>
	</g>
	<g>
		<g>
			<path d="M551,1588.3l1.4,74.9c0.1,7.7,0.2,9,0.6,10.7c0.9,2.9,2.7,4.6,5,4.5c1.9,0,2.7-0.9,2.7-3.1c0-0.4,0-0.9-0.2-1.2
				c-0.5-2.5-0.5-2.6-0.5-3.5c-0.1-3.6,2.2-6.1,5.7-6.2c3.6-0.1,6,2.5,6.1,6.6c0.1,5.8-5.5,10.2-13,10.4c-6.2,0.1-12.4-3.2-15.9-8.8
				c-2.7-4.3-3.5-8.8-3.7-21.2l-1.2-65.7l22.7-0.4l0.1,2.9L551,1588.3z M544.2,1547.8c4.6-0.1,8,3.3,8.1,8c0.1,4.8-3.3,8.5-7.8,8.5
				c-4.5,0.1-8.2-3.5-8.3-8.1S539.7,1547.9,544.2,1547.8z"/>
		</g>
	</g>
	<g>
		<g>
			<path d="M817.4,2122.5l6.4,75.8c0.7,7.8,0.8,9.1,1.4,10.8c1.1,2.9,3,4.5,5.4,4.3c1.9-0.2,2.7-1.1,2.5-3.3c0-0.4-0.1-0.9-0.2-1.2
				c-0.6-2.5-0.7-2.6-0.7-3.5c-0.3-3.7,1.8-6.3,5.3-6.6c3.7-0.3,6.2,2.1,6.6,6.2c0.5,5.9-4.9,10.7-12.5,11.4
				c-6.3,0.5-12.8-2.5-16.8-7.9c-3-4.2-4.1-8.7-5.2-21.3l-5.6-66.6l23-1.9l0.2,2.9L817.4,2122.5z M807.8,2081.8
				c4.7-0.4,8.4,2.8,8.8,7.5c0.4,4.8-2.8,8.8-7.3,9.2c-4.5,0.4-8.5-3-8.9-7.7C799.9,2086.2,803.2,2082.2,807.8,2081.8z"/>
		</g>
	</g>
	<g>
		<g>
			<path d="M811.9,1930.1c24.3-19.7,43-41.7,64.2-75.9c10.3-16.7,19.2-33.7,27.6-52.9c7.7-17.7,10.9-27.1,14.4-42.9l3.8-2.2
				c-0.7,36.9-10.9,70.7-31.4,103.9c-19.7,31.9-46.1,56.9-79,74.7L811.9,1930.1z"/>
		</g>
		<g>
			<path d="M921.2,1760.8c-25.7,17.8-46,38.4-69.7,70.9c-11.5,15.9-21.7,32.1-31.5,50.7c-9.1,17.1-13,26.2-17.6,41.7l-4,1.9
				c3.4-36.7,16.2-69.7,39.1-101.2c22.1-30.3,50.3-53.2,84.4-68.5L921.2,1760.8z"/>
		</g>
		<g>
			<path d="M892.1,1818.6c-16.8,11.6-30,25-45.4,46.2c-7.5,10.3-14.1,20.9-20.6,33.1c-5.9,11.1-8.4,17.1-11.5,27.2l-2.6,1.2
				c2.2-24,10.6-45.4,25.5-66c14.4-19.8,32.8-34.7,55-44.7L892.1,1818.6z"/>
		</g>
	</g>
	<g>
		<g>
			<path d="M814.4,1962.5c28.7,12.4,56.9,18.8,97,21.6c19.6,1.4,38.7,1.4,59.7-0.1c19.3-1.4,29.1-2.9,44.7-7.1l3.7,2.4
				c-33,16.5-67.7,23.1-106.6,20.3c-37.4-2.7-71.8-14.5-102.8-35.4L814.4,1962.5z"/>
		</g>
		<g>
			<path d="M1015.1,1980.9c-27.7-14.5-55.4-23-95.1-28.9c-19.4-2.9-38.5-4.3-59.5-4.4c-19.3-0.1-29.2,0.7-45.1,3.7l-3.5-2.7
				c34.1-14,69.2-18,107.8-12.3c37.1,5.5,70.5,19.8,99.9,43L1015.1,1980.9z"/>
		</g>
		<g>
			<path d="M950.4,1981.9c-18.1-9.5-36.1-15-62-18.8c-12.7-1.9-25.1-2.8-38.8-2.9c-12.6-0.1-19.1,0.4-29.4,2.4l-2.3-1.7
				c22.3-9.1,45.1-11.7,70.3-8c24.2,3.6,46,12.9,65.1,28L950.4,1981.9z"/>
		</g>
	</g>
	<g>
		<path d="M406.6,1916c0.9-0.4,87.7-42.7,87.8-125.7c0-47.5-36.4-112-71.6-174.4c-27.1-48-52.7-93.4-62.4-130.6
			c-20.1-77.5,3.2-187.1,101.8-244.7c25.1-14.7,39.6-33.5,43-56c6.6-43.8-31-85.2-32.6-87l-4.4,4.1c0.4,0.4,37.2,41.1,31,82
			c-3.1,20.6-16.6,37.9-40,51.6c-101.3,59.2-125.3,171.8-104.6,251.4c9.8,38,35.6,83.7,62.9,132.1c34.8,61.7,70.8,125.5,70.8,171.5
			c0,79.2-83.5,119.9-84.3,120.3L406.6,1916z"/>
	</g>
</g>
<g>
	<g>
		<path class="st0" d="M457.1,4063.3c0,0-12.4-21.8,1-39c13.1,14,0.9,38.3,0.9,38.3L457.1,4063.3z"/>
	</g>
	<g>
		<path class="st0" d="M437.6,4090c0,0,18.1-17.5,38-8.7c-10.3,16.2-36.9,10.4-36.9,10.4L437.6,4090z"/>
	</g>
	<g>
		<path class="st0" d="M405.1,4164.9c0,0,13.4-21.3,34.9-17.4c-6.2,18.2-33.4,18.9-33.4,18.9L405.1,4164.9z"/>
	</g>
	<g>
		<path class="st0" d="M401,4235.6c0,0,9.1-23.4,30.9-23.8c-2.6,19-29.1,24.9-29.1,24.9L401,4235.6z"/>
	</g>
	<g>
		<path class="st0" d="M424.9,4320.7c0,0,2.4-25,23.3-31.2c2.6,19-21.4,31.8-21.4,31.8L424.9,4320.7z"/>
	</g>
	<g>
		<path class="st0" d="M469.6,4400.6c0,0-3.8-24.8,14.9-36c7.3,17.8-12.8,36.1-12.8,36.1L469.6,4400.6z"/>
	</g>
	<g>
		<path class="st0" d="M507.9,4473.3c0,0-3.8-24.8,14.9-36c7.3,17.8-12.8,36.1-12.8,36.1L507.9,4473.3z"/>
	</g>
	<g>
		<path class="st0" d="M537.1,4549.2c0,0-3.8-24.8,14.9-36c7.3,17.8-12.8,36.1-12.8,36.1L537.1,4549.2z"/>
	</g>
	<g>
		<path class="st0" d="M519.1,4642.4c0,0,12.8-21.6,34.4-18.3c-5.7,18.3-32.9,19.7-32.9,19.7L519.1,4642.4z"/>
	</g>
	<g>
		<path class="st0" d="M512,4019.9c0,0-12.4-21.8,1-39c13.1,14,0.9,38.3,0.9,38.3L512,4019.9z"/>
	</g>
	<g>
		<path class="st0" d="M549.7,3957.9c0,0-26.3-10.9-26.4-32.1c21.4,4.2,27.7,30.5,27.7,30.5L549.7,3957.9z"/>
	</g>
	<g>
		<path class="st0" d="M541.8,3996.8c0,0,22.8-17.1,41-6.4c-14.5,16.3-40.3,8.3-40.3,8.3L541.8,3996.8z"/>
	</g>
	<g>
		<path class="st0" d="M417.5,4128.5c0,0-18.8-16.7-11.5-37.2c16.9,9.1,13.2,36,13.2,36L417.5,4128.5z"/>
	</g>
	<g>
		<path class="st0" d="M397.4,4211.8c0,0-23.2-9.7-22.9-31.5c19,3.1,24.1,29.8,24.1,29.8L397.4,4211.8z"/>
	</g>
	<g>
		<path class="st0" d="M410.3,4289.3c0,0-24.1-7.2-26.2-28.9c19.2,1,27.2,27,27.2,27L410.3,4289.3z"/>
	</g>
	<g>
		<path class="st0" d="M453.1,4377.7c0,0-25-2.3-31.3-23.2c19-2.7,31.9,21.2,31.9,21.2L453.1,4377.7z"/>
	</g>
	<g>
		<path class="st0" d="M493.7,4448.5c0,0-25.1-0.9-32.6-21.4c18.8-3.8,33.1,19.4,33.1,19.4L493.7,4448.5z"/>
	</g>
	<g>
		<path class="st0" d="M526.8,4520.4c0,0-25.1-0.9-32.6-21.4c18.8-3.8,33.1,19.4,33.1,19.4L526.8,4520.4z"/>
	</g>
	<g>
		<path class="st0" d="M533.7,4606.2c0,0-21.1-13.6-17.1-35c18.1,6.4,18.6,33.6,18.6,33.6L533.7,4606.2z"/>
	</g>
	<g>
		<path class="st0" d="M493.1,4668.8c0,0-13.9-20.9-1.6-38.9c14.1,13.1,3.5,38.2,3.5,38.2L493.1,4668.8z"/>
	</g>
	<g>
		<path class="st0" d="M548.4,3759.6c-10,4.8-16.2,11.6-17.8,19.8c-1.5,7.9,0.9,10.6,11.4,12.7l40.6,8c7.9,1.5,10.6-0.2,12-7.2
			c1.2-6.2,0.7-10.8-1.4-14.7c0.1,2.3,0,3.3-0.2,4.5c-1.3,6.3-8,10.4-15.3,9c-7.4-1.4-11.6-8.2-10-16.2c1.5-7.9,8-12.3,16-10.7
			c12,2.4,17.2,14.8,13.7,32.6c-5.2,26.4-24.7,42.7-46.1,38.5c-10.7-2.1-19.6-8.9-24.2-18.8c-4.2-8.5-5-18.5-2.6-31.1
			c3-15.4,10-24.4,22.8-29.5L548.4,3759.6z"/>
	</g>
	<g>
		<path class="st0" d="M786.9,4714.3c-4.8,10-5.5,19.1-1.6,26.5c3.7,7.1,7.3,7.8,16.8,2.8l36.8-19c7.1-3.7,8.2-6.7,4.9-13.1
			c-2.9-5.6-6.1-8.9-10.3-10.6c1.5,1.7,2.1,2.6,2.6,3.6c3,5.8,0.2,13.1-6.4,16.5c-6.7,3.4-14.2,0.8-17.9-6.5
			c-3.7-7.1-1.4-14.6,5.9-18.4c10.9-5.6,22.7,0.9,31,17c12.3,23.9,7.2,48.8-12.2,58.8c-9.7,5-20.9,5.2-30.7,0.3
			c-8.6-4-15.5-11.4-21.3-22.7c-7.2-13.9-7.3-25.3-0.5-37.3L786.9,4714.3z"/>
	</g>
	<g>
		<path class="st0" d="M546.9,4227.6c4.7-10,5.3-19.2,1.4-26.5c-3.7-7.1-7.3-7.7-16.8-2.7l-36.6,19.3c-7.1,3.7-8.2,6.8-4.8,13.1
			c2.9,5.6,6.2,8.9,10.3,10.5c-1.5-1.7-2.1-2.5-2.7-3.6c-3-5.7-0.3-13.1,6.3-16.6c6.6-3.5,14.1-0.9,18,6.3
			c3.7,7.1,1.5,14.6-5.7,18.4c-10.9,5.7-22.7-0.7-31.1-16.7c-12.5-23.8-7.6-48.7,11.7-58.9c9.6-5.1,20.8-5.4,30.7-0.6
			c8.6,3.9,15.6,11.3,21.5,22.6c7.3,13.9,7.5,25.3,0.8,37.3L546.9,4227.6z"/>
	</g>
	<g>
		<path class="st1" d="M511.9,4074.4l2.8,19.6l-2.3,0.3c-1.3-5.2-3.3-7-7.1-6.4c-1.5,0.2-3.3,1.1-5.4,2.6l-4.9,3.5l18.4,7.1
			l-0.7-4.9l2.3-0.3l5.4,37.6l-2.3,0.3l-0.4-3l-48-18.9l-12.6,8.9c5.9,0.3,10,4,10.8,9.6c0.9,6.2-3.3,11.5-9.7,12.5
			c-6.3,0.9-11.5-3-12.4-9.4c-0.8-5.2,1.9-9.7,8.5-14.4l47.1-33c6-4.2,8.1-7,8.2-11.5L511.9,4074.4z"/>
	</g>
	<g>
		<path class="st1" d="M699.1,4542.8l8.9,17.7l-2.1,1c-2.9-4.5-5.4-5.6-8.8-3.9c-1.3,0.7-2.8,2.1-4.3,4.2l-3.5,4.8l19.7,1l-2.2-4.4
			l2.1-1l17,34l-2.1,1l-1.3-2.7l-51.5-2.9l-9.1,12.4c5.7-1.5,10.8,0.7,13.3,5.7c2.8,5.6,0.5,12-5.3,14.9c-5.7,2.8-11.9,0.8-14.7-5
			c-2.4-4.7-1.3-9.8,3.6-16.3l34.3-46.1c4.4-5.9,5.5-9.2,4.2-13.6L699.1,4542.8z"/>
	</g>
	<g>
		<path class="st0" d="M872.3,4995.2c-3.6-145-86.8-298.2-174.8-460.3c-72.2-132.9-146.9-270.3-173.5-402.8
			C483.3,3930,554.4,3727,600.5,3624l-5.5-2.5c-46.3,103.6-117.9,308-76.9,511.9c26.8,133.3,101.7,271.2,174.1,404.4
			c87.7,161.5,170.6,313.9,174.1,457.5L872.3,4995.2z"/>
	</g>
	<g>
		<path class="st0" d="M572.5,4172.3l2.2-5.6c-49.2-19.4-60.6-108.6-60.7-109.5l-6,0.7C508.5,4061.7,519.9,4151.6,572.5,4172.3z"/>
	</g>
	<g>
		<path class="st0" d="M520.1,4101.8l-0.6-0.6l-3.2-14.2l3.6-0.1c2.2-0.1,53.5-1.7,70.1,32.7l1.6,3.3l-3.5,1
			c-4.4,1.2-8.7,1.8-12.9,2C544.3,4127,521.2,4103,520.1,4101.8z M523.9,4092.9l1.2,5.4c4,3.9,28.4,26.1,57.7,20.5
			C569,4096,535.1,4093.2,523.9,4092.9z"/>
	</g>
	<g>
		<path class="st0" d="M576.6,3942l3-5.3c-46.1-26.1-44.8-116-44.8-116.9l-6-0.1C528.7,3823.6,527.4,3914.2,576.6,3942z"/>
	</g>
	<g>
		<path class="st0" d="M534.6,3864.9l-0.5-0.7l-1.1-14.5l3.6,0.4c2.2,0.2,53.2,5.8,64.8,42.1l1.1,3.5l-3.6,0.4
			c-1.7,0.2-3.3,0.3-4.9,0.4C558.5,3897.9,535.6,3866.3,534.6,3864.9z M539.6,3856.6l0.4,5.5c3.4,4.4,24.2,29.6,53.9,28.4
			c0.1,0,0.3,0,0.4,0C583.7,3865.9,550.6,3858.4,539.6,3856.6z"/>
	</g>
	<g>
		<path class="st0" d="M785.9,4592.7c0.3,0,0.6,0,1,0l-0.3-6c-0.3,0-0.6,0-0.8,0c-52.5,2.1-99.6-73.4-100.1-74.1l-5.1,3.2
			C682.5,4518.9,729.9,4594.9,785.9,4592.7z"/>
	</g>
	<g>
		<path class="st0" d="M709.9,4550.5l-0.8-0.3l-8.8-11.6l3.2-1.6c1.9-1,47.9-23.9,77.3,0.3l2.8,2.3l-2.8,2.3
			c-12,10-25.6,13.4-37.7,13.9C725.4,4556.6,710.9,4550.9,709.9,4550.5z M709.6,4540.8l3.3,4.4c5.2,1.9,36.7,11.9,61-5.5
			C751.8,4524.8,719.8,4536.4,709.6,4540.8z"/>
	</g>
	<g>
		<path class="st2" d="M495.7,3785.8l12.7,21.7l-2.9,1.7l-4.5-7.7l-44.3,25.8c-2.1-5.7-3.8-9.5-9.3-19l-2.1-3.6l2.9-1.7l4.6,7.8
			l23-13.4c5.7-3.3,7.4-5,9.1-8c2.2-4.1,2.2-9.6,0.2-13.1c-1-1.8-2.6-2.9-4.4-3.1c-1.9-0.3-2.9,0.1-7.7,2.9l-34.4,20
			c-2.1-5.7-3.8-9.5-9.3-19l-2.1-3.6l2.9-1.7l4.6,7.8l27.5-16c6.9-4,10.4-5.1,14.3-4.4c3.9,0.5,7.5,3.5,10.3,8.3
			c4.3,7.4,4.6,13.5,1,22.9L495.7,3785.8z"/>
	</g>
	<g>
		<path class="st2" d="M608.2,4200.1l4.2-7.8l3.2,1.7l-15.7,29.4l-3.2-1.7l3-5.7l-36.1-48.4l1.8-3.4l51.3,5.3
			c6.9,0.8,7.4,0.4,10.1-4.3l1.6-2.9l3.2,1.7l-11.5,21.5l-3.2-1.7l2.5-4.7c1.6-3,1.7-4.3,0.3-5.1c-0.6-0.3-1.3-0.6-3.5-0.7
			l-30.4-3.1L608.2,4200.1z"/>
	</g>
	<g>
		<g>
			<path class="st2" d="M838.4,4599.5c-3,16.3-17.3,26.9-32.3,24.2c-15.3-2.8-24.7-17.8-21.6-34.3c3-16.3,17.2-27.1,32.1-24.3
				C832.1,4568,841.5,4582.8,838.4,4599.5z M834.9,4598.8c0.8-4.3-0.2-8.2-3-10.7c-2.4-2.3-7.4-3.9-18.4-6c-9.4-1.7-15-2.1-18-1.3
				c-3.9,1.2-6.7,4.6-7.5,9.3c-0.8,4.3,0.2,8.2,3,10.7c2.4,2.3,7.5,4,18.1,5.9c9.8,1.8,15.3,2.2,18.3,1.4
				C831.2,4606.9,834,4603.5,834.9,4598.8z"/>
		</g>
	</g>
	<g>
		<path class="st0" d="M932.6,4972.1l1-5.9c-52.1-9.1-81.1-94.2-81.4-95.1l-5.7,1.9C847.7,4876.6,876.9,4962.4,932.6,4972.1z"/>
	</g>
	<g>
		<path class="st0" d="M867.2,4913.5l-0.7-0.5l-5.9-13.3l3.5-0.9c2.1-0.5,52.1-12.4,75.2,17.9l2.2,2.9l-3.2,1.6
			c-8.2,4.1-16.4,5.9-24.2,6.2C889,4928.6,868.3,4914.3,867.2,4913.5z M869.1,4904l2.2,5c4.7,3,32.9,20,60.7,8.5
			C913.8,4898,880.1,4902.1,869.1,4904z"/>
	</g>
	<g>
		<path class="st0" d="M488.1,3779.8c59.4-5.6,87.4-93.8,88.5-97.6l-6.1-1.9c-0.3,0.9-27.9,87.9-83,93.1L488.1,3779.8z"/>
	</g>
	<g>
		<path class="st0" d="M481.7,3725.3l-3.1-1.7l2.2-2.8c23.6-30.1,77.4-13.5,79.7-12.7l3.2,1l-5.8,13.3l-0.8,0.5
			c-1,0.6-16.9,10.4-38.3,11.3C507.5,3734.7,494.7,3732.6,481.7,3725.3z M555.5,3713c-11.2-2.9-48.6-10.6-67.5,8.8
			c30.2,14.8,60-0.6,65.2-3.5L555.5,3713z"/>
	</g>
	<g>
		<path class="st0" d="M547.7,4363.9c41.7-42.7,6.1-128.1,4.5-131.7l-5.9,2.5c0.4,0.8,35.5,85.1-3.2,124.7L547.7,4363.9z"/>
	</g>
	<g>
		<path class="st0" d="M504.1,4323.6c-1.5-38.3,50.4-60.3,52.6-61.2l3.1-1.3l4.2,13.9l-0.3,0.9c-0.6,1.7-14,42.5-56,50.6l-3.5,0.7
			L504.1,4323.6z M556,4269.4c-10.4,5-43.9,23.3-45.8,50.4c32.6-8.2,45.4-39.3,47.5-44.8L556,4269.4z"/>
	</g>
	<g>
		<path class="st3" d="M707.1,4790.3l7.9,4.1l-1.6,3.2l-29.6-15.3l1.6-3.2l5.7,3l47.9-36.8l3.4,1.8l-4.6,51.4
			c-0.7,6.9-0.3,7.4,4.5,10.1l2.9,1.5l-1.6,3.2L722,4802l1.6-3.2l4.7,2.4c3.1,1.6,4.3,1.6,5.1,0.2c0.3-0.6,0.5-1.3,0.7-3.5l2.7-30.5
			L707.1,4790.3z"/>
	</g>
	<g>
		<path class="st3" d="M938.4,4956.6l13.6-21.2l2.9,1.8l-4.8,7.5l43.2,27.6c-4.1,4.4-6.7,7.8-12.6,17l-2.3,3.5l-2.9-1.8l4.9-7.6
			l-22.5-14.4c-5.6-3.6-7.8-4.4-11.3-4.5c-4.6-0.1-9.6,2.4-11.7,5.8c-1.1,1.7-1.4,3.6-0.7,5.3c0.6,1.8,1.4,2.5,6.1,5.5l33.5,21.4
			c-4.1,4.4-6.7,7.8-12.6,17l-2.3,3.5l-2.9-1.8l4.9-7.6l-26.8-17.1c-6.7-4.3-9.3-6.9-10.5-10.7c-1.3-3.7-0.3-8.3,2.6-12.9
			c4.6-7.2,9.9-10.2,19.9-11.3L938.4,4956.6z"/>
	</g>
	<g>
		<g>
			<path class="st3" d="M616.2,3975.7c-11.4,12.1-29.1,13.3-40.2,2.8c-11.3-10.7-11.1-28.3,0.3-40.5c11.4-12.1,29.1-13.5,40.1-3.1
				C627.9,3945.7,627.8,3963.3,616.2,3975.7z M613.6,3973.1c3-3.2,4.2-7,3.2-10.6c-0.8-3.3-4.1-7.3-12.2-14.9
				c-7-6.6-11.5-9.9-14.4-10.8c-3.9-1.1-8.1,0.2-11.4,3.7c-3,3.2-4.2,7-3.2,10.6c0.8,3.3,4.2,7.4,12,14.8c7.3,6.8,11.7,10.1,14.6,11
				C606.2,3978,610.3,3976.6,613.6,3973.1z"/>
		</g>
	</g>
	<g>
		<path class="st3" d="M557.4,4363.7l23.7,8.4l-1.1,3.2l-8.4-3l-17.1,48.3c-5.2-3-9.1-4.8-19.4-8.5l-4-1.4l1.1-3.2l8.5,3l8.9-25.1
			c2.2-6.2,2.5-8.6,1.8-12c-1-4.5-4.5-8.8-8.3-10.1c-1.9-0.7-3.8-0.5-5.4,0.5c-1.6,1-2.1,2-4,7.2l-13.3,37.5
			c-5.2-3-9.1-4.8-19.4-8.5l-4-1.4l1.1-3.2l8.5,3l10.6-30c2.7-7.5,4.6-10.6,8.1-12.6c3.3-2.1,8-2.2,13.2-0.3
			c8,2.8,12.2,7.3,15.6,16.9L557.4,4363.7z"/>
	</g>
	<g>
		<path class="st0" d="M740.2,4753.4c41.7-42.7,6.1-128.1,4.5-131.7l-5.9,2.5c0.4,0.8,35.5,85.1-3.2,124.7L740.2,4753.4z"/>
	</g>
	<g>
		<path class="st0" d="M696.6,4713.1c-1.5-38.3,50.4-60.3,52.6-61.2l3.1-1.3l4.2,13.9l-0.3,0.9c-0.6,1.7-14,42.5-56,50.5l-3.5,0.7
			L696.6,4713.1z M748.4,4658.9c-10.4,5-43.9,23.2-45.8,50.3c32.6-8.2,45.4-39.3,47.5-44.8L748.4,4658.9z"/>
	</g>
	<g>
		<g>
			<path class="st0" d="M648.5,3731.1c-52.6-16.9-54.3-104.5-54.4-108.2l-0.1-5.3l17.1,9.6l0.4,0.2c0.5,0.4,50.9,40,40.9,101.2
				l-0.6,3.5L648.5,3731.1z M600.3,3628.1c1.2,18.6,8.2,80.3,46.6,96c6.6-53.9-36.1-89.3-39-91.7L600.3,3628.1z"/>
		</g>
		<g>
			<path class="st0" d="M616.3,3680.6c3.2-8.6,3.6-16.2,1.2-26.3c-1.2-4.9-3-9.5-5.7-14.4c-2.5-4.5-4.2-6.6-7.7-9.8l0.8-1.2
				c11.1,5.7,17.6,13.1,20,22.9c2.3,9.4-0.1,19.2-7.2,29.6L616.3,3680.6z"/>
		</g>
	</g>
	<g>
		<g>
			<path class="st0" d="M446.1,4033.4c-13.8-53.5,59.3-101.8,62.4-103.8l4.4-2.9l1,19.6l0,0.4c-0.1,0.6-6.7,64.4-63.7,88.7l-3.2,1.4
				L446.1,4033.4z M507.4,3937.7c-15.1,11-63.5,49.8-56.3,90.6c49.1-23.2,56.3-78.2,56.7-82L507.4,3937.7z"/>
		</g>
		<g>
			<path class="st0" d="M471.5,3979.2c9-1.9,15.7-5.6,22.8-13.1c3.5-3.6,6.4-7.6,9.1-12.5c2.4-4.5,3.4-7.1,4.2-11.7l1.5,0
				c1.1,12.4-1.7,21.9-8.7,29.1c-6.7,6.9-16.3,10.2-28.8,9.7L471.5,3979.2z"/>
		</g>
	</g>
	<g>
		<g>
			<path class="st0" d="M790.4,4901.5c-30.3-46.2,23.3-115.5,25.6-118.4l3.2-4.1l7.2,18.2l0.1,0.4c0.2,0.6,14.5,63.1-31.7,104.5
				l-2.6,2.3L790.4,4901.5z M817.6,4791.2c-10.7,15.3-44,67.6-24,103.9c39-37.8,28-92.2,27.2-95.9L817.6,4791.2z"/>
		</g>
		<g>
			<path class="st0" d="M797,4842.1c7.9-4.7,13-10.4,17.4-19.7c2.1-4.6,3.6-9.3,4.5-14.8c0.9-5,0.9-7.8,0.1-12.4l1.4-0.5
				c5.1,11.4,5.5,21.3,1.2,30.3c-4.1,8.7-12.2,14.9-24.2,18.5L797,4842.1z"/>
		</g>
	</g>
	<g>
		<g>
			<path class="st0" d="M601.5,4367.7l-2.8-4.6l20.2-0.5l0.4,0c0.7,0.1,66,8.5,89.5,68l1.3,3.4l-3.5,0.8c-3.5,0.8-6.9,1.3-10.4,1.4
				C645.4,4438.3,603.4,4370.8,601.5,4367.7z M618.7,4368.8l-8.9,0.2c10.9,15.9,49.3,67,91.7,60.4
				C679,4378.2,622.6,4369.4,618.7,4368.8z"/>
		</g>
		<g>
			<path class="st0" d="M651.6,4407.2c-1.7-9.3-5.4-16.3-12.8-23.9c-3.6-3.7-7.7-6.8-12.6-9.7c-4.6-2.6-7.2-3.6-12-4.6l0.1-1.5
				c12.8-0.9,22.5,2.3,29.7,9.7c7,7.1,10.1,17.1,9.2,30L651.6,4407.2z"/>
		</g>
	</g>
	<g>
		<g>
			<path class="st0" d="M509.2,3991.7c25.1,7.8,41.1,22.8,46.7,43.6c5.6,20.8-0.6,35.4-16.6,39.7c-13.7,3.7-26.2-2.8-29.5-15.2
				c-3.2-11.9,3.4-23.9,14.8-27c4.1-1.1,9.1-0.7,12.7,1c3.6,1.5,3.9,1.7,4.8,1.4c1.4-0.4,1.7-1.9,1.1-4
				c-3.6-13.5-17.3-25.5-36.8-32.5L509.2,3991.7z"/>
		</g>
	</g>
	<g>
		<g>
			<path class="st0" d="M568.6,4274.6c26.3-0.6,46.2,8.6,58.1,26.6c11.9,18,10.7,33.8-3.1,42.9c-11.8,7.8-25.7,5.7-32.8-5
				c-6.8-10.3-4.4-23.8,5.5-30.3c3.5-2.3,8.4-3.6,12.4-3.1c3.9,0.3,4.2,0.3,5-0.2c1.2-0.8,1-2.4-0.2-4.1
				c-7.7-11.6-24.5-18.7-45.3-19.2L568.6,4274.6z"/>
		</g>
	</g>
	<g>
		<g>
			<path class="st0" d="M829.1,4806.7c26.3-0.6,46.2,8.6,58.1,26.6s10.7,33.8-3.1,42.9c-11.8,7.8-25.7,5.7-32.8-5
				c-6.8-10.3-4.4-23.8,5.5-30.3c3.5-2.3,8.4-3.6,12.4-3.1c3.9,0.3,4.2,0.3,5-0.2c1.2-0.8,1-2.4-0.2-4.1
				c-7.7-11.6-24.5-18.7-45.3-19.2L829.1,4806.7z"/>
		</g>
	</g>
	<g>
		<g>
			<path class="st0" d="M512,3922.3c-23.3-12.1-36.4-29.8-38.1-51.3c-1.7-21.5,6.9-34.7,23.5-36.1c14.2-1.1,25.3,7.5,26.3,20.2
				c1,12.3-7.6,22.9-19.4,23.9c-4.2,0.3-9.1-0.9-12.4-3.3c-3.3-2.1-3.5-2.3-4.5-2.3c-1.4,0.1-2,1.6-1.8,3.7
				c1.1,13.9,12.5,28.2,30.4,38.6L512,3922.3z"/>
		</g>
	</g>
	<g>
		<g>
			<path class="st0" d="M683.6,4517.9c-25.9,4.6-47-1.4-61.5-17.3c-14.5-15.9-15.7-31.7-3.5-42.9c10.5-9.5,24.6-9.5,33.2-0.1
				c8.3,9.1,8,22.8-0.8,30.8c-3.1,2.9-7.8,4.8-11.8,5c-3.9,0.3-4.2,0.3-4.9,0.9c-1.1,1-0.6,2.5,0.8,4.1c9.4,10.3,27.1,14.7,47.7,12
				L683.6,4517.9z"/>
		</g>
	</g>
	<g>
		<g>
			<path class="st2" d="M479.3,3966.5c2.6,0.2,2.8,0.1,3.7-0.5c0.9-0.7,1-1.2,0.7-2.2c-0.2-1.1-0.2-1.1-6.6-9.6l-7.3-9.9
				c-5.8-7.9-6.1-8.4-5.7-11.9c0.4-3.9,3.3-8.2,7.6-11.4c7.3-5.4,16.9-6,20.4-1.3c1.7,2.3,1.3,5.1-0.9,6.7c-2,1.5-4.8,1.1-6.5-1.2
				c-0.7-1-1-1.9-0.8-3.7c0-0.7,0-1-0.3-1.3c-1.3-1.8-6.3-1.2-9.5,1.2c-1.9,1.4-3.3,3.6-3.4,5.3c-0.1,1.9,0.4,2.9,4.2,8l4.6,6.2
				c5.9-4.3,10-6.3,14.2-7.5c6.8-1.7,12.2-0.3,15.4,4.1c3.6,4.9,2.4,11.1-3.1,15.2c-4.7,3.5-10.7,4.1-16.6,1.5
				c2.9,5,2.1,9.3-2.2,12.4c-2.3,1.7-4.6,2.3-8.1,1.8L479.3,3966.5z M482,3944.4c3.5,4.7,5.9,7,8.1,8c3.3,1.6,6.6,1.4,9.2-0.6
				c3.3-2.5,3.6-6.1,0.8-9.9c-2.2-3-5.2-4.2-9-3.9c-3.1,0.2-5.7,1.3-10.5,4.6L482,3944.4z"/>
		</g>
	</g>
	<g>
		<g>
			<path class="st2" d="M793.4,4828.5c2.6,0.2,2.8,0.1,3.7-0.5c0.9-0.7,1-1.2,0.7-2.2c-0.2-1.1-0.2-1.1-6.6-9.6l-7.3-9.9
				c-5.8-7.9-6.1-8.4-5.7-11.9c0.4-3.9,3.3-8.2,7.6-11.4c7.3-5.4,16.9-6,20.4-1.3c1.7,2.3,1.3,5.1-0.9,6.7c-2,1.5-4.8,1.1-6.5-1.2
				c-0.7-1-1-1.9-0.8-3.7c0-0.7,0-1-0.3-1.3c-1.3-1.8-6.3-1.2-9.5,1.2c-1.9,1.4-3.3,3.6-3.4,5.3c-0.1,1.9,0.4,2.9,4.2,8l4.6,6.2
				c5.9-4.3,10-6.3,14.2-7.5c6.8-1.7,12.2-0.3,15.4,4.1c3.6,4.9,2.4,11.1-3.1,15.2c-4.7,3.5-10.7,4.1-16.6,1.5
				c2.9,5,2.1,9.3-2.2,12.4c-2.3,1.7-4.6,2.3-8.1,1.8L793.4,4828.5z M796.2,4806.3c3.5,4.7,5.9,7,8.1,8c3.3,1.6,6.6,1.4,9.2-0.6
				c3.3-2.5,3.6-6.1,0.8-9.9c-2.2-3-5.2-4.2-9-3.9c-3.1,0.2-5.7,1.3-10.5,4.6L796.2,4806.3z"/>
		</g>
	</g>
	<g>
		<g>
			<path d="M599.5,4373.7l1.4,74.9c0.1,7.7,0.2,9,0.6,10.7c0.9,2.9,2.7,4.6,5,4.5c1.9,0,2.7-0.9,2.7-3.1c0-0.4,0-0.9-0.2-1.2
				c-0.5-2.5-0.5-2.6-0.5-3.5c-0.1-3.6,2.2-6.1,5.7-6.2c3.6-0.1,6,2.5,6.1,6.6c0.1,5.8-5.5,10.2-13,10.4c-6.2,0.1-12.4-3.2-15.9-8.8
				c-2.7-4.3-3.5-8.8-3.7-21.2l-1.2-65.7l22.7-0.4l0.1,2.9L599.5,4373.7z M592.6,4333.1c4.6-0.1,8,3.3,8.1,8
				c0.1,4.8-3.3,8.5-7.8,8.5c-4.5,0.1-8.2-3.5-8.3-8.1C584.6,4336.9,588.2,4333.2,592.6,4333.1z"/>
		</g>
	</g>
	<g>
		<g>
			<path d="M865.9,4907.8l6.4,75.8c0.7,7.8,0.8,9.1,1.4,10.8c1.1,2.9,3,4.5,5.4,4.3c1.9-0.2,2.7-1.1,2.5-3.3c0-0.4-0.1-0.9-0.2-1.2
				c-0.6-2.5-0.7-2.6-0.7-3.5c-0.3-3.7,1.8-6.3,5.3-6.6c3.7-0.3,6.2,2.1,6.6,6.2c0.5,5.9-4.9,10.7-12.5,11.4
				c-6.3,0.5-12.8-2.5-16.8-7.9c-3-4.2-4.1-8.7-5.2-21.3l-5.6-66.6l23-1.9l0.2,2.9L865.9,4907.8z M856.3,4867.2
				c4.7-0.4,8.4,2.8,8.8,7.5c0.4,4.8-2.8,8.8-7.3,9.2c-4.5,0.4-8.5-3-8.9-7.7C848.4,4871.5,851.7,4867.5,856.3,4867.2z"/>
		</g>
	</g>
	<g>
		<g>
			<path d="M860.4,4715.5c24.3-19.7,43-41.7,64.2-75.9c10.3-16.7,19.2-33.6,27.6-52.9c7.7-17.7,10.9-27.1,14.4-42.9l3.8-2.2
				c-0.7,36.9-10.9,70.7-31.4,103.9c-19.7,31.9-46.1,56.9-79,74.7L860.4,4715.5z"/>
		</g>
		<g>
			<path d="M969.7,4546.2c-25.7,17.8-46,38.4-69.7,70.9c-11.5,15.9-21.7,32.1-31.5,50.7c-9.1,17.1-13,26.2-17.6,41.7l-4,1.9
				c3.4-36.7,16.2-69.7,39.1-101.2c22.1-30.3,50.3-53.2,84.4-68.5L969.7,4546.2z"/>
		</g>
		<g>
			<path d="M940.6,4604c-16.8,11.6-30,25-45.4,46.2c-7.5,10.3-14.1,20.9-20.6,33.1c-5.9,11.1-8.4,17.1-11.5,27.2l-2.6,1.2
				c2.2-24,10.6-45.4,25.5-66c14.4-19.8,32.8-34.7,55-44.7L940.6,4604z"/>
		</g>
	</g>
	<g>
		<g>
			<path d="M862.9,4747.9c28.7,12.4,56.9,18.8,97,21.6c19.6,1.4,38.7,1.4,59.7-0.1c19.3-1.4,29.1-2.9,44.7-7.1l3.7,2.4
				c-33,16.5-67.7,23.1-106.6,20.3c-37.4-2.7-71.8-14.5-102.8-35.4L862.9,4747.9z"/>
		</g>
		<g>
			<path d="M1063.6,4766.2c-27.7-14.5-55.4-23-95.1-28.9c-19.4-2.9-38.5-4.3-59.5-4.4c-19.3-0.1-29.2,0.7-45.1,3.7l-3.5-2.7
				c34.1-14,69.2-18,107.8-12.3c37.1,5.5,70.5,19.8,99.9,43L1063.6,4766.2z"/>
		</g>
		<g>
			<path d="M998.9,4767.2c-18.1-9.5-36.1-15-62-18.8c-12.7-1.9-25.1-2.8-38.8-2.9c-12.6-0.1-19.1,0.4-29.4,2.4l-2.3-1.7
				c22.3-9.1,45.1-11.7,70.3-8c24.2,3.6,46,12.9,65.1,28L998.9,4767.2z"/>
		</g>
	</g>
	<g>
		<path d="M455.1,4701.4c0.9-0.4,87.7-42.7,87.8-125.7c0-47.5-36.4-112-71.6-174.4c-27.1-48-52.7-93.4-62.4-130.6
			c-20.1-77.5,3.2-187.1,101.8-244.7c25.1-14.7,39.6-33.5,43-56c6.6-43.8-31-85.2-32.6-87l-4.4,4.1c0.4,0.4,37.2,41.1,31,82
			c-3.1,20.6-16.6,37.9-40,51.6c-101.3,59.2-125.3,171.8-104.6,251.4c9.8,38,35.6,83.7,62.9,132.1c34.8,61.7,70.8,125.5,70.8,171.5
			c0,79.2-83.5,119.9-84.3,120.3L455.1,4701.4z"/>
	</g>
</g>
<g>
	<g>
		<path class="st0" d="M1100.2,2658.7c0,0,12.4-21.8-1-39c-13.1,14-0.9,38.3-0.9,38.3L1100.2,2658.7z"/>
	</g>
	<g>
		<path class="st0" d="M1119.7,2685.5c0,0-18.1-17.5-38-8.7c10.3,16.2,36.9,10.4,36.9,10.4L1119.7,2685.5z"/>
	</g>
	<g>
		<path class="st0" d="M1152.2,2760.3c0,0-13.4-21.3-34.9-17.4c6.2,18.2,33.4,18.9,33.4,18.9L1152.2,2760.3z"/>
	</g>
	<g>
		<path class="st0" d="M1156.4,2831.1c0,0-9.1-23.4-30.9-23.8c2.6,19,29.1,24.9,29.1,24.9L1156.4,2831.1z"/>
	</g>
	<g>
		<path class="st0" d="M1132.4,2916.1c0,0-2.4-25-23.3-31.2c-2.6,19,21.4,31.8,21.4,31.8L1132.4,2916.1z"/>
	</g>
	<g>
		<path class="st0" d="M1087.7,2996c0,0,3.8-24.8-14.9-36c-7.3,17.8,12.8,36.1,12.8,36.1L1087.7,2996z"/>
	</g>
	<g>
		<path class="st0" d="M1049.4,3068.7c0,0,3.8-24.8-14.9-36c-7.3,17.8,12.8,36.1,12.8,36.1L1049.4,3068.7z"/>
	</g>
	<g>
		<path class="st0" d="M1020.3,3144.6c0,0,3.8-24.8-14.9-36c-7.3,17.8,12.8,36.1,12.8,36.1L1020.3,3144.6z"/>
	</g>
	<g>
		<path class="st0" d="M1038.2,3237.8c0,0-12.8-21.6-34.4-18.3c5.7,18.3,32.9,19.7,32.9,19.7L1038.2,3237.8z"/>
	</g>
	<g>
		<path class="st0" d="M1045.3,2615.4c0,0,12.4-21.8-1-39c-13.1,14-0.9,38.3-0.9,38.3L1045.3,2615.4z"/>
	</g>
	<g>
		<path class="st0" d="M1007.6,2553.3c0,0,26.3-10.9,26.4-32.1c-21.4,4.2-27.7,30.5-27.7,30.5L1007.6,2553.3z"/>
	</g>
	<g>
		<path class="st0" d="M1015.5,2592.2c0,0-22.8-17.1-41-6.4c14.5,16.3,40.3,8.3,40.3,8.3L1015.5,2592.2z"/>
	</g>
	<g>
		<path class="st0" d="M1139.9,2724c0,0,18.8-16.7,11.5-37.2c-16.9,9.1-13.2,36-13.2,36L1139.9,2724z"/>
	</g>
	<g>
		<path class="st0" d="M1159.9,2807.2c0,0,23.2-9.7,22.9-31.5c-19,3.1-24.1,29.8-24.1,29.8L1159.9,2807.2z"/>
	</g>
	<g>
		<path class="st0" d="M1147,2884.8c0,0,24.1-7.2,26.2-28.9c-19.2,1-27.2,27-27.2,27L1147,2884.8z"/>
	</g>
	<g>
		<path class="st0" d="M1104.3,2973.1c0,0,25-2.3,31.3-23.2c-19-2.7-31.9,21.2-31.9,21.2L1104.3,2973.1z"/>
	</g>
	<g>
		<path class="st0" d="M1063.6,3043.9c0,0,25.1-0.9,32.6-21.4c-18.8-3.8-33.1,19.4-33.1,19.4L1063.6,3043.9z"/>
	</g>
	<g>
		<path class="st0" d="M1030.5,3115.9c0,0,25.1-0.9,32.6-21.4c-18.8-3.8-33.1,19.4-33.1,19.4L1030.5,3115.9z"/>
	</g>
	<g>
		<path class="st0" d="M1023.7,3201.6c0,0,21.1-13.6,17.1-35c-18.1,6.4-18.6,33.6-18.6,33.6L1023.7,3201.6z"/>
	</g>
	<g>
		<path class="st0" d="M1064.3,3264.2c0,0,13.9-20.9,1.6-38.9c-14.1,13.1-3.5,38.2-3.5,38.2L1064.3,3264.2z"/>
	</g>
	<g>
		<path class="st0" d="M1010,2351.6c12.8,5.1,19.8,14.1,22.8,29.5c2.5,12.5,1.7,22.6-2.6,31.1c-4.6,9.9-13.5,16.7-24.2,18.8
			c-21.4,4.2-40.9-12.1-46.1-38.5c-3.5-17.7,1.7-30.2,13.7-32.6c8-1.6,14.5,2.9,16,10.7c1.6,8-2.6,14.8-10,16.2
			c-7.4,1.4-14.1-2.6-15.3-9c-0.2-1.2-0.3-2.2-0.2-4.5c-2.2,3.9-2.7,8.5-1.4,14.7c1.4,7,4.1,8.7,12,7.2l40.6-8
			c10.5-2.1,12.9-4.8,11.4-12.7c-1.6-8.2-7.8-14.9-17.8-19.8L1010,2351.6z"/>
	</g>
	<g>
		<path class="st0" d="M773.4,3307.8c6.9,12,6.7,23.4-0.5,37.3c-5.9,11.4-12.7,18.7-21.3,22.7c-9.8,4.9-21,4.7-30.7-0.3
			c-19.4-10-24.5-34.9-12.2-58.8c8.3-16,20.1-22.6,31-17c7.3,3.7,9.5,11.2,5.9,18.4c-3.7,7.3-11.2,9.9-17.9,6.5
			c-6.7-3.4-9.4-10.8-6.4-16.5c0.5-1.1,1.2-1.9,2.6-3.6c-4.1,1.7-7.4,5-10.3,10.6c-3.3,6.4-2.2,9.4,4.9,13.1l36.8,19
			c9.5,4.9,13.1,4.3,16.8-2.8c3.8-7.4,3.2-16.6-1.6-26.5L773.4,3307.8z"/>
	</g>
	<g>
		<path class="st0" d="M1007.5,2824.9c-6.8-12-6.5-23.4,0.8-37.3c5.9-11.3,12.9-18.6,21.5-22.6c9.8-4.8,21-4.5,30.7,0.6
			c19.3,10.1,24.3,35.1,11.7,58.9c-8.4,16-20.3,22.4-31.1,16.7c-7.2-3.8-9.4-11.3-5.7-18.4c3.8-7.2,11.3-9.8,18-6.3
			c6.6,3.5,9.3,10.9,6.3,16.6c-0.6,1.1-1.2,1.9-2.7,3.6c4.1-1.7,7.4-5,10.3-10.5c3.3-6.3,2.3-9.4-4.8-13.1l-36.6-19.3
			c-9.5-5-13.1-4.4-16.8,2.7c-3.9,7.4-3.3,16.5,1.4,26.5L1007.5,2824.9z"/>
	</g>
	<g>
		<path class="st1" d="M1047.7,2670.2c0.2,4.6,2.2,7.3,8.2,11.5l47.1,33c6.7,4.7,9.3,9.1,8.5,14.4c-0.9,6.4-6.1,10.3-12.4,9.4
			c-6.4-0.9-10.6-6.3-9.7-12.5c0.8-5.6,5-9.3,10.8-9.6l-12.6-8.9l-48,18.9l-0.4,3l-2.3-0.3l5.4-37.6l2.3,0.3l-0.7,4.9l18.4-7.1
			l-4.9-3.5c-2.1-1.6-4-2.4-5.4-2.6c-3.8-0.5-5.8,1.3-7.1,6.4l-2.3-0.3l2.8-19.6L1047.7,2670.2z"/>
	</g>
	<g>
		<path class="st1" d="M860.3,3139.3c-1.3,4.4-0.2,7.6,4.2,13.6l34.3,46.1c4.8,6.5,5.9,11.6,3.6,16.3c-2.9,5.8-9.1,7.8-14.7,5
			c-5.8-2.9-8.1-9.3-5.3-14.9c2.5-5.1,7.6-7.3,13.3-5.7l-9.1-12.4l-51.5,2.9l-1.3,2.7l-2.1-1l17-34l2.1,1l-2.2,4.4l19.7-1l-3.5-4.8
			c-1.5-2.2-3-3.6-4.3-4.2c-3.4-1.7-5.9-0.6-8.8,3.9l-2.1-1l8.9-17.7L860.3,3139.3z"/>
	</g>
	<g>
		<path class="st0" d="M685,3590.7c3.6-145,86.8-298.2,174.8-460.3c72.2-132.9,146.9-270.3,173.5-402.8
			c40.7-202.3-30.5-405.3-76.5-508.2l5.5-2.5c46.3,103.6,117.9,308,76.9,511.9c-26.8,133.3-101.7,271.2-174.1,404.4
			c-87.7,161.5-170.6,313.9-174.1,457.5L685,3590.7z"/>
	</g>
	<g>
		<path class="st0" d="M984.8,2767.7l-2.2-5.6c49.2-19.4,60.6-108.6,60.7-109.5l6,0.7C1048.8,2657.1,1037.5,2747,984.8,2767.7z"/>
	</g>
	<g>
		<path class="st0" d="M982,2721.1c-4.1-0.2-8.5-0.8-12.9-2l-3.5-1l1.6-3.3c16.6-34.4,67.9-32.8,70.1-32.7l3.6,0.1l-3.2,14.2
			l-0.6,0.6C1036.1,2698.4,1013,2722.4,982,2721.1z M974.5,2714.2c29.3,5.6,53.8-16.6,57.7-20.5l1.2-5.4
			C1022.2,2688.6,988.4,2691.4,974.5,2714.2z"/>
	</g>
	<g>
		<path class="st0" d="M980.7,2537.4l-3-5.3c46.1-26.1,44.8-116,44.8-116.9l6-0.1C1028.7,2419,1029.9,2509.6,980.7,2537.4z"/>
	</g>
	<g>
		<path class="st0" d="M963.3,2491.9c-1.6-0.1-3.3-0.2-4.9-0.4l-3.6-0.4l1.1-3.5c11.6-36.4,62.7-41.9,64.8-42.1l3.6-0.4l-1.1,14.5
			l-0.5,0.7C1021.7,2461.7,998.8,2493.4,963.3,2491.9z M963,2485.8c0.1,0,0.3,0,0.4,0c29.7,1.2,50.5-24,53.9-28.4l0.4-5.5
			C1006.7,2453.9,973.6,2461.4,963,2485.8z"/>
	</g>
	<g>
		<path class="st0" d="M771.4,3188.1c-0.3,0-0.6,0-1,0l0.3-6c0.3,0,0.6,0,0.8,0c52.5,2.1,99.6-73.4,100.1-74.1l5.1,3.2
			C874.8,3114.4,827.4,3190.4,771.4,3188.1z"/>
	</g>
	<g>
		<path class="st0" d="M814.2,3151.3c-12.1-0.5-25.7-3.9-37.7-13.9l-2.8-2.3l2.8-2.3c29.4-24.3,75.4-1.3,77.3-0.3l3.2,1.6l-8.8,11.6
			l-0.8,0.3C846.4,3146.3,832,3152,814.2,3151.3z M783.4,3135.1c24.4,17.4,55.8,7.4,61,5.5l3.3-4.4
			C837.5,3131.8,805.5,3120.2,783.4,3135.1z"/>
	</g>
	<g>
		<path class="st2" d="M1069.7,2386c-3.6-9.5-3.3-15.6,1-22.9c2.8-4.8,6.4-7.7,10.3-8.3c4-0.7,7.4,0.4,14.3,4.4l27.5,16l4.6-7.8
			l2.9,1.7l-2.1,3.6c-5.5,9.5-7.3,13.3-9.3,19l-34.4-20c-4.8-2.8-5.8-3.2-7.7-2.9c-1.8,0.2-3.4,1.3-4.4,3.1c-2,3.5-2,9,0.2,13.1
			c1.7,3,3.4,4.6,9.1,8l23,13.4l4.6-7.8l2.9,1.7l-2.1,3.6c-5.5,9.5-7.3,13.3-9.3,19l-44.3-25.8l-4.5,7.7l-2.9-1.7l12.7-21.7
			L1069.7,2386z"/>
	</g>
	<g>
		<path class="st2" d="M971.5,2765.5l-30.4,3.1c-2.2,0.2-2.9,0.4-3.5,0.7c-1.4,0.7-1.4,2,0.3,5.1l2.5,4.7l-3.2,1.7l-11.5-21.5
			l3.2-1.7l1.6,2.9c2.7,4.7,3.2,5.1,10.1,4.3l51.3-5.3l1.8,3.4l-36.1,48.4l3,5.7l-3.2,1.7l-15.7-29.4l3.2-1.7l4.2,7.8L971.5,2765.5z
			"/>
	</g>
	<g>
		<g>
			<path class="st2" d="M740.8,3160.5c14.9-2.8,29,8,32.1,24.3c3,16.5-6.3,31.4-21.6,34.3c-15,2.8-29.3-7.8-32.3-24.2
				C715.8,3178.2,725.2,3163.4,740.8,3160.5z M729.9,3203.5c3,0.8,8.5,0.5,18.3-1.4c10.6-2,15.7-3.6,18.1-5.9
				c2.8-2.5,3.8-6.4,3-10.7c-0.9-4.7-3.7-8.1-7.5-9.3c-3-0.8-8.6-0.4-18,1.3c-11,2-16,3.6-18.4,6c-2.8,2.5-3.8,6.4-3,10.7
				C723.3,3198.9,726.1,3202.3,729.9,3203.5z"/>
		</g>
	</g>
	<g>
		<path class="st0" d="M624.7,3567.5l-1-5.9c52.1-9.1,81.1-94.2,81.4-95.1l5.7,1.9C709.6,3472,680.4,3557.8,624.7,3567.5z"/>
	</g>
	<g>
		<path class="st0" d="M643.3,3523c-7.8-0.3-16-2.1-24.2-6.2l-3.2-1.6l2.2-2.9c23.1-30.4,73.1-18.4,75.2-17.9l3.5,0.9l-5.9,13.3
			l-0.7,0.5C689,3509.8,668.3,3524,643.3,3523z M625.3,3513c27.8,11.5,56-5.5,60.7-8.5l2.2-5C677.2,3497.5,643.5,3493.4,625.3,3513z
			"/>
	</g>
	<g>
		<path class="st0" d="M1069.2,2375.2c-59.4-5.6-87.4-93.8-88.5-97.6l6.1-1.9c0.3,0.9,27.9,87.9,83,93.1L1069.2,2375.2z"/>
	</g>
	<g>
		<path class="st0" d="M1038.4,2329.7c-21.3-0.9-37.3-10.7-38.3-11.3l-0.8-0.5l-5.8-13.3l3.2-1c2.3-0.7,56.1-17.4,79.7,12.7l2.2,2.8
			l-3.1,1.7C1062.6,2328.1,1049.8,2330.1,1038.4,2329.7z M1004.1,2313.7c5.2,2.9,35,18.3,65.2,3.5c-18.9-19.5-56.3-11.7-67.5-8.8
			L1004.1,2313.7z"/>
	</g>
	<g>
		<path class="st0" d="M1009.6,2959.3c-41.7-42.7-6.1-128.1-4.5-131.7l5.9,2.5c-0.4,0.8-35.5,85.1,3.2,124.7L1009.6,2959.3z"/>
	</g>
	<g>
		<path class="st0" d="M1053.1,2922.6l-3.5-0.7c-42.1-8-55.5-48.8-56-50.6l-0.3-0.9l4.2-13.9l3.1,1.3c2.2,0.9,54.1,22.9,52.6,61.2
			L1053.1,2922.6z M999.6,2870.4c2.1,5.5,14.9,36.6,47.5,44.8c-1.9-27.1-35.4-45.3-45.8-50.4L999.6,2870.4z"/>
	</g>
	<g>
		<path class="st3" d="M820.5,3362.9l2.7,30.5c0.1,2.2,0.4,2.9,0.7,3.5c0.7,1.4,2,1.4,5.1-0.2l4.7-2.4l1.6,3.2l-21.7,11.2l-1.6-3.2
			l2.9-1.5c4.8-2.6,5.2-3.1,4.5-10.1l-4.6-51.4l3.4-1.8l47.9,36.8l5.7-3l1.6,3.2l-29.6,15.3l-1.6-3.2l7.9-4.1L820.5,3362.9z"/>
	</g>
	<g>
		<path class="st3" d="M611.1,3557c10,1.1,15.4,4.2,19.9,11.3c3,4.7,4,9.2,2.6,12.9c-1.2,3.8-3.8,6.4-10.5,10.7l-26.8,17.1l4.9,7.6
			l-2.9,1.8l-2.3-3.5c-5.9-9.2-8.5-12.6-12.6-17l33.5-21.4c4.7-3,5.5-3.7,6.1-5.5c0.7-1.7,0.4-3.6-0.7-5.3
			c-2.2-3.4-7.1-5.9-11.7-5.8c-3.5,0.1-5.7,0.9-11.3,4.5l-22.5,14.4l4.9,7.6l-2.9,1.8l-2.3-3.5c-5.9-9.2-8.5-12.6-12.6-17l43.2-27.6
			l-4.8-7.5l2.9-1.8l13.6,21.2L611.1,3557z"/>
	</g>
	<g>
		<g>
			<path class="st3" d="M940.9,2530.3c11-10.4,28.8-9,40.1,3.1c11.5,12.2,11.7,29.9,0.3,40.5c-11.1,10.5-28.9,9.3-40.2-2.8
				C929.5,2558.7,929.4,2541.1,940.9,2530.3z M955,2572.3c2.9-0.9,7.4-4.2,14.6-11c7.8-7.4,11.3-11.5,12-14.8
				c1-3.6-0.2-7.4-3.2-10.6c-3.3-3.5-7.5-4.8-11.4-3.7c-2.9,0.9-7.5,4.3-14.4,10.8c-8.1,7.6-11.5,11.7-12.2,14.9
				c-1,3.6,0.2,7.4,3.2,10.6C947,2572,951.2,2573.4,955,2572.3z"/>
		</g>
	</g>
	<g>
		<path class="st3" d="M1003,2967.9c3.4-9.5,7.5-14,15.6-16.9c5.2-1.9,9.9-1.8,13.2,0.3c3.5,2.1,5.4,5.1,8.1,12.6l10.6,30l8.5-3
			l1.1,3.2l-4,1.4c-10.3,3.7-14.1,5.4-19.4,8.5l-13.3-37.5c-1.9-5.2-2.3-6.2-4-7.2c-1.5-1-3.4-1.2-5.4-0.5
			c-3.8,1.4-7.3,5.6-8.3,10.1c-0.7,3.4-0.4,5.7,1.8,12l8.9,25.1l8.5-3l1.1,3.2l-4,1.4c-10.3,3.7-14.1,5.4-19.4,8.5l-17.1-48.3
			l-8.4,3l-1.1-3.2l23.7-8.4L1003,2967.9z"/>
	</g>
	<g>
		<path class="st0" d="M817.2,3348.9c-41.7-42.7-6.1-128.1-4.5-131.7l5.9,2.5c-0.4,0.8-35.5,85.1,3.2,124.7L817.2,3348.9z"/>
	</g>
	<g>
		<path class="st0" d="M860.6,3312.1l-3.5-0.7c-42.1-8-55.5-48.8-56-50.5l-0.3-0.9l4.2-13.9l3.1,1.3c2.2,0.9,54.1,22.9,52.6,61.2
			L860.6,3312.1z M807.2,3259.9c2.1,5.5,14.9,36.6,47.5,44.8c-1.9-27.1-35.4-45.3-45.8-50.3L807.2,3259.9z"/>
	</g>
	<g>
		<g>
			<path class="st0" d="M905.5,2327.6l-0.6-3.5c-9.9-61.2,40.4-100.8,40.9-101.2l0.4-0.2l17.1-9.6l-0.1,5.3
				c-0.1,3.7-1.8,91.3-54.4,108.2L905.5,2327.6z M949.4,2227.8c-3,2.4-45.6,37.8-39,91.7c38.4-15.7,45.3-77.3,46.6-96L949.4,2227.8z
				"/>
		</g>
		<g>
			<path class="st0" d="M939.8,2276.8c-7.1-10.3-9.5-20.2-7.2-29.6c2.4-9.7,8.9-17.2,20-22.9l0.8,1.2c-3.5,3.2-5.2,5.3-7.7,9.8
				c-2.7,4.8-4.5,9.5-5.7,14.4c-2.4,10-2.1,17.7,1.2,26.3L939.8,2276.8z"/>
		</g>
	</g>
	<g>
		<g>
			<path class="st0" d="M1110.4,2632.2l-3.2-1.4c-57-24.3-63.6-88-63.7-88.7l0-0.4l1-19.6l4.4,2.9c3.1,2,76.2,50.3,62.4,103.8
				L1110.4,2632.2z M1049.5,2541.8c0.4,3.8,7.6,58.8,56.7,82c7.3-40.8-41.2-79.6-56.3-90.6L1049.5,2541.8z"/>
		</g>
		<g>
			<path class="st0" d="M1085.8,2576.1c-12.5,0.5-22.1-2.8-28.8-9.7c-7-7.2-9.8-16.7-8.7-29.1l1.5,0c0.8,4.7,1.7,7.2,4.2,11.7
				c2.6,4.9,5.6,8.9,9.1,12.5c7.2,7.4,13.8,11.2,22.8,13.1L1085.8,2576.1z"/>
		</g>
	</g>
	<g>
		<g>
			<path class="st0" d="M765,3499.9l-2.6-2.3c-46.1-41.4-31.8-103.9-31.7-104.5l0.1-0.4l7.2-18.2l3.2,4.1
				c2.3,2.9,55.9,72.2,25.6,118.4L765,3499.9z M736.5,3394.6c-0.8,3.7-11.8,58.1,27.2,95.9c20.1-36.3-13.2-88.7-24-103.9
				L736.5,3394.6z"/>
		</g>
		<g>
			<path class="st0" d="M759.8,3438.9c-12-3.6-20.1-9.8-24.2-18.5c-4.3-9.1-3.9-18.9,1.2-30.3l1.4,0.5c-0.8,4.7-0.7,7.4,0.1,12.4
				c0.9,5.5,2.4,10.2,4.5,14.8c4.4,9.3,9.5,15.1,17.4,19.7L759.8,3438.9z"/>
		</g>
	</g>
	<g>
		<g>
			<path class="st0" d="M861.1,3031.7c-3.4-0.1-6.9-0.6-10.4-1.4l-3.5-0.8l1.3-3.4c23.5-59.5,88.9-67.9,89.5-68l0.4,0l20.2,0.5
				l-2.8,4.6C954,2966.2,911.9,3033.7,861.1,3031.7z M855.8,3024.9c42.4,6.6,80.8-44.6,91.7-60.4l-8.9-0.2
				C934.7,2964.8,878.3,2973.6,855.8,3024.9z"/>
		</g>
		<g>
			<path class="st0" d="M904.2,3002.6c-0.8-12.9,2.3-22.9,9.2-30c7.2-7.4,16.9-10.5,29.7-9.7l0.1,1.5c-4.8,0.9-7.4,2-12,4.6
				c-5,2.9-9,6-12.6,9.7c-7.5,7.6-11.2,14.6-12.8,23.9L904.2,3002.6z"/>
		</g>
	</g>
	<g>
		<g>
			<path class="st0" d="M1050.9,2594.3c-19.5,7-33.2,19.1-36.8,32.5c-0.5,2.1-0.2,3.6,1.1,4c0.9,0.2,1.2,0.1,4.8-1.4
				c3.6-1.7,8.6-2.1,12.7-1c11.4,3.1,18,15.1,14.8,27c-3.3,12.3-15.8,18.8-29.5,15.2c-16-4.3-22.2-18.9-16.6-39.7
				c5.6-20.8,21.6-35.9,46.7-43.6L1050.9,2594.3z"/>
		</g>
	</g>
	<g>
		<g>
			<path class="st0" d="M989.1,2877.6c-20.7,0.5-37.6,7.5-45.3,19.2c-1.2,1.8-1.4,3.3-0.2,4.1c0.8,0.5,1.1,0.5,5,0.2
				c4-0.5,8.9,0.8,12.4,3.1c9.9,6.5,12.3,20,5.5,30.3c-7,10.7-20.9,12.8-32.8,5c-13.8-9.1-15-25-3.1-42.9
				c11.9-18,31.9-27.2,58.1-26.6L989.1,2877.6z"/>
		</g>
	</g>
	<g>
		<g>
			<path class="st0" d="M728.6,3409.7c-20.7,0.5-37.6,7.5-45.3,19.2c-1.2,1.8-1.4,3.3-0.2,4.1c0.8,0.5,1.1,0.5,5,0.2
				c4-0.5,8.9,0.8,12.4,3.1c9.9,6.5,12.3,20,5.5,30.3c-7,10.7-20.9,12.8-32.8,5c-13.8-9.1-15-25-3.1-42.9
				c11.9-18,31.9-27.2,58.1-26.6L728.6,3409.7z"/>
		</g>
	</g>
	<g>
		<g>
			<path class="st0" d="M1041.4,2511.2c17.9-10.4,29.3-24.7,30.4-38.6c0.2-2.1-0.4-3.6-1.8-3.7c-0.9-0.1-1.2,0.1-4.5,2.3
				c-3.3,2.4-8.1,3.6-12.4,3.3c-11.8-1-20.4-11.6-19.4-23.9c1-12.7,12.1-21.3,26.3-20.2c16.5,1.3,25.2,14.6,23.5,36.1
				s-14.8,39.2-38.1,51.3L1041.4,2511.2z"/>
		</g>
	</g>
	<g>
		<g>
			<path class="st0" d="M874.5,3105.7c20.6,2.7,38.3-1.7,47.7-12c1.4-1.6,1.9-3.1,0.8-4.1c-0.7-0.6-1-0.6-4.9-0.9
				c-4-0.1-8.6-2.1-11.8-5c-8.8-8-9.1-21.7-0.8-30.8c8.6-9.5,22.7-9.5,33.2,0.1c12.3,11.1,11,27-3.5,42.9s-35.6,22-61.5,17.3
				L874.5,3105.7z"/>
		</g>
	</g>
	<g>
		<g>
			<path class="st2" d="M1078.1,2564.1c-3.5,0.5-5.8-0.1-8.1-1.8c-4.3-3.2-5.1-7.5-2.2-12.4c-5.9,2.6-11.8,2-16.6-1.5
				c-5.5-4.1-6.8-10.3-3.1-15.2c3.3-4.4,8.7-5.8,15.4-4.1c4.2,1.2,8.2,3.2,14.2,7.5l4.6-6.2c3.8-5.1,4.3-6.1,4.2-8
				c-0.1-1.7-1.5-3.9-3.4-5.3c-3.2-2.3-8.1-3-9.5-1.2c-0.3,0.4-0.3,0.6-0.3,1.3c0.2,1.8-0.1,2.7-0.8,3.7c-1.7,2.2-4.4,2.7-6.5,1.2
				c-2.2-1.6-2.6-4.4-0.9-6.7c3.5-4.7,13.1-4.1,20.4,1.3c4.3,3.2,7.2,7.5,7.6,11.4c0.4,3.5,0.2,4-5.7,11.9l-7.3,9.9
				c-6.3,8.5-6.3,8.5-6.6,9.6c-0.3,1-0.2,1.5,0.7,2.2s1.1,0.7,3.7,0.5L1078.1,2564.1z M1076.6,2538c-4.8-3.3-7.4-4.4-10.5-4.6
				c-3.8-0.3-6.8,0.9-9,3.9c-2.8,3.8-2.5,7.4,0.8,9.9c2.6,1.9,5.9,2.1,9.2,0.6c2.2-1,4.7-3.3,8.1-8L1076.6,2538z"/>
		</g>
	</g>
	<g>
		<g>
			<path class="st2" d="M764,3426c-3.5,0.5-5.8-0.1-8.1-1.8c-4.3-3.2-5.1-7.5-2.2-12.4c-5.9,2.6-11.8,2-16.6-1.5
				c-5.5-4.1-6.8-10.3-3.1-15.2c3.3-4.4,8.7-5.8,15.4-4.1c4.2,1.2,8.2,3.2,14.2,7.5l4.6-6.2c3.8-5.1,4.3-6.1,4.2-8
				c-0.1-1.7-1.5-3.9-3.4-5.3c-3.2-2.3-8.1-3-9.5-1.2c-0.3,0.4-0.3,0.6-0.3,1.3c0.2,1.8-0.1,2.7-0.8,3.7c-1.7,2.2-4.4,2.7-6.5,1.2
				c-2.2-1.6-2.6-4.4-0.9-6.7c3.5-4.7,13.1-4.1,20.4,1.3c4.3,3.2,7.2,7.5,7.6,11.4c0.4,3.5,0.2,4-5.7,11.9l-7.3,9.9
				c-6.3,8.5-6.3,8.5-6.6,9.6c-0.3,1-0.2,1.5,0.7,2.2c0.9,0.7,1.1,0.7,3.7,0.5L764,3426z M762.5,3400c-4.8-3.3-7.4-4.4-10.5-4.6
				c-3.8-0.3-6.8,0.9-9,3.9c-2.8,3.8-2.5,7.4,0.8,9.9c2.6,1.9,5.9,2.1,9.2,0.6c2.2-1,4.7-3.3,8.1-8L762.5,3400z"/>
		</g>
	</g>
	<g>
		<g>
			<path d="M948.1,2968.9l0.1-2.9l22.7,0.4l-1.2,65.7c-0.2,12.4-1,16.9-3.7,21.2c-3.6,5.6-9.7,8.9-15.9,8.8
				c-7.5-0.1-13.1-4.6-13-10.4c0.1-4.1,2.4-6.6,6.1-6.6c3.5,0.1,5.7,2.6,5.7,6.2c0,0.9,0,1-0.5,3.5c-0.2,0.3-0.2,0.7-0.2,1.2
				c0,2.2,0.8,3.1,2.7,3.1c2.3,0,4.1-1.7,5-4.5c0.5-1.7,0.5-3,0.6-10.7l1.4-74.9L948.1,2968.9z M972.6,2937
				c-0.1,4.6-3.8,8.2-8.3,8.1c-4.5-0.1-7.9-3.8-7.8-8.5c0.1-4.6,3.5-8,8.1-8C969.2,2928.6,972.7,2932.3,972.6,2937z"/>
		</g>
	</g>
	<g>
		<g>
			<path d="M681.6,3502.4l0.2-2.9l23,1.9l-5.6,66.6c-1.1,12.6-2.2,17.1-5.2,21.3c-4,5.4-10.5,8.4-16.8,7.9
				c-7.6-0.6-13-5.5-12.5-11.4c0.3-4.1,2.9-6.5,6.6-6.2c3.5,0.3,5.7,3,5.3,6.6c-0.1,0.9-0.1,1-0.7,3.5c-0.2,0.3-0.2,0.7-0.2,1.2
				c-0.2,2.2,0.6,3.2,2.5,3.3c2.3,0.2,4.3-1.4,5.4-4.3c0.6-1.7,0.7-3,1.4-10.8l6.4-75.8L681.6,3502.4z M708.5,3471.6
				c-0.4,4.7-4.4,8-8.9,7.7c-4.5-0.4-7.8-4.3-7.3-9.2c0.4-4.7,4.1-7.9,8.8-7.5C705.6,3463,708.9,3467,708.5,3471.6z"/>
		</g>
	</g>
	<g>
		<g>
			<path d="M697.3,3315.5c-32.9-17.8-59.3-42.8-79-74.7c-20.5-33.2-30.8-67-31.4-103.9l3.8,2.2c3.5,15.8,6.7,25.2,14.4,42.9
				c8.4,19.3,17.3,36.2,27.6,52.9c21.1,34.2,39.9,56.2,64.2,75.9L697.3,3315.5z"/>
		</g>
		<g>
			<path d="M586.9,3137c34.2,15.3,62.3,38.2,84.4,68.5c22.9,31.5,35.7,64.4,39.1,101.2l-4-1.9c-4.7-15.5-8.6-24.6-17.6-41.7
				c-9.8-18.6-20-34.8-31.5-50.7c-23.7-32.5-44-53-69.7-70.9L586.9,3137z"/>
		</g>
		<g>
			<path d="M616.3,3196.5c22.3,10,40.6,24.9,55,44.7c15,20.6,23.3,42,25.5,66l-2.6-1.2c-3-10.1-5.6-16-11.5-27.2
				c-6.4-12.1-13-22.7-20.6-33.1c-15.4-21.2-28.7-34.6-45.4-46.2L616.3,3196.5z"/>
		</g>
	</g>
	<g>
		<g>
			<path d="M698.7,3345.1c-31,20.9-65.4,32.7-102.8,35.4c-38.9,2.8-73.6-3.8-106.6-20.3l3.7-2.4c15.6,4.2,25.4,5.8,44.7,7.1
				c21,1.5,40.1,1.5,59.7,0.1c40.1-2.9,68.3-9.2,97-21.6L698.7,3345.1z"/>
		</g>
		<g>
			<path d="M489.3,3360.2c29.4-23.2,62.8-37.5,99.9-43c38.6-5.7,73.7-1.7,107.8,12.3l-3.5,2.7c-15.9-3-25.8-3.8-45.1-3.7
				c-21,0.1-40.1,1.6-59.5,4.4c-39.8,5.9-67.4,14.4-95.1,28.9L489.3,3360.2z"/>
		</g>
		<g>
			<path d="M555.6,3361.7c19.2-15.1,40.9-24.5,65.1-28c25.1-3.7,48-1.1,70.3,8l-2.3,1.7c-10.4-2-16.8-2.5-29.4-2.4
				c-13.7,0.1-26.2,1-38.8,2.9c-25.9,3.8-43.9,9.4-62,18.8L555.6,3361.7z"/>
		</g>
	</g>
	<g>
		<path d="M1102.3,3296.8c-0.9-0.4-87.7-42.7-87.8-125.7c0-47.5,36.4-112,71.6-174.4c27.1-48,52.7-93.4,62.4-130.6
			c20.1-77.5-3.2-187.1-101.8-244.7c-25.1-14.7-39.6-33.5-43-56c-6.6-43.8,31-85.2,32.6-87l4.4,4.1c-0.4,0.4-37.2,41.1-31,82
			c3.1,20.6,16.6,37.9,40,51.6c101.3,59.2,125.3,171.8,104.6,251.4c-9.8,38-35.6,83.7-62.9,132.1c-34.8,61.7-70.8,125.5-70.8,171.5
			c0,79.2,83.5,119.9,84.3,120.3L1102.3,3296.8z"/>
	</g>
</g>
<path id="Path_103" class="st4" d="M-0.1,912.4c0,0,142.9,47.5,219.6-69.5c95.4,143.3,403.7,175.1,496.9-35.8
	c131.9,69.3,404.4,17.8,386.8-215c203.3-90.7,232.1-272.3,88.2-348c144.9-113,45.9-244.5,45.9-244.5H-0.1V912.4z"/>
</svg>
