<?xml version="1.0" encoding="utf-8"?>
<!-- Generator: Adobe Illustrator 24.3.0, SVG Export Plug-In . SVG Version: 6.00 Build 0)  -->
<svg version="1.1" xmlns="http://www.w3.org/2000/svg" xmlns:xlink="http://www.w3.org/1999/xlink" x="0px" y="0px"
	 viewBox="0 0 612 756" style="enable-background:new 0 0 612 756;" xml:space="preserve">
<style type="text/css">
	.st0{display:none;}
	.st1{display:inline;}
	.st2{fill:#C25627;}
	.st3{fill:#A3795D;}
	.st4{fill:#353535;}
	.st5{fill:#262626;}
	.st6{opacity:0.63;fill:#1C1C1C;}
	.st7{fill:#141414;}
	.st8{opacity:0.52;fill:#1C1C1C;}
	.st9{opacity:0.59;fill:#1C1C1C;}
	.st10{fill:#C1753D;}
	.st11{fill:#F5CAAB;}
	.st12{opacity:0.14;fill:#D19E82;}
	.st13{opacity:0.31;fill:#D19E82;}
	.st14{opacity:0.17;fill:#FEE8D4;}
	.st15{fill:#42290E;}
	.st16{fill:#F7E7DC;}
	.st17{fill:#748D88;}
	.st18{fill:none;stroke:#647A76;stroke-miterlimit:10;}
	.st19{fill:#BD7B67;}
	.st20{fill:#2B1B07;}
	.st21{fill:none;stroke:#2B1B07;stroke-linecap:round;stroke-miterlimit:10;}
	.st22{fill:#D19E82;}
	.st23{fill:#D5957F;}
	.st24{fill:#FF5264;}
	.st25{fill:#D72C3B;}
	.st26{fill:#EBB47B;}
	.st27{opacity:0.27;fill:#7DBAAE;}
	.st28{opacity:0.34;fill:#FFFFFF;}
	.st29{fill:#DB893E;}
	.st30{fill:none;stroke:#EBB47B;stroke-linecap:round;stroke-miterlimit:10;}
	.st31{fill:#E09251;}
	.st32{fill:#D38240;}
	.st33{fill:#E29052;}
	.st34{fill:#D1A08B;}
	.st35{fill:#422920;}
	.st36{fill:#DA977A;}
</style>
<g id="Layer_1" class="st0">
	<g class="st1">
		
			<image style="overflow:visible;" width="2316" height="3088" xlink:href="../../Portfolio Site/Portrait_Picture2.jpg"  transform="matrix(0.2534 0 0 0.2534 -653.0753 5.7715)">
		</image>
	</g>
</g>
<g id="Layer_12">
	<rect x="-0.5" y="-0.6" class="st2" width="612.6" height="756.8"/>
</g>
<g id="Layer_11">
	<polygon class="st3" points="229.3,311.3 229.3,393.3 346,378.9 317.2,337.5 	"/>
</g>
<g id="Layer_8">
	<path class="st4" d="M506.3,426.7c0,0,8.3-8.7,18.5-0.6s16.5,24.5,21.4,26.2c4.9,1.8,30.2,51.2,30.2,53.8c0,2.7-2.1,19.2-10.8,22.7
		c0.8,10.1-16.3,51.6-28.8,61.6c-12.5,10-39.1,22.6-39.1,22.6L506.3,426.7z"/>
	<polygon points="226.5,435.7 391.6,405 358.2,656.8 219.7,701.8 	"/>
	<path class="st5" d="M130.9,359c0,0-56.3,27.4-60.1,35.8c-13.1,5.2-13.1,5.2-13.1,5.2s-9.6-8.6-22.5-5.4s-25.7,3.2-33.9,37.5
		S0.1,781.8,0.1,781.8l262.3-2c0,0-15.7-175.2-26.4-213.3C225.1,528.4,130.9,359,130.9,359z"/>
	<polygon class="st5" points="349,423.6 247.9,689.6 261.3,779.9 470.1,786.8 502.5,449.4 	"/>
	<path d="M231.5,357c0,0,37.9,25.5,71.1,5.9c33.2-19.5,71.6-52.7,71.6-52.7l12.4,72.8c0,0-45,49.1-66.9,54.5s-48,4.7-57.4,4.7
		C252.8,442.3,231.5,357,231.5,357z"/>
	<path class="st6" d="M0.5,586.4c0,0-23.4,153.3-17.4,179.8c27,70.3,54.3,1.4,54.3,1.4s3.3-151.8-6.7-171
		C19,592.5-0.3,580.6,0.5,586.4z"/>
	<path class="st7" d="M64.4,421.5c0,0-16.7,0.1-23.3,6.3c-6.6,6.3-12.5,22.6,0.7,25.1c-5.6-9.1-7.3-14.3,1.4-15.7
		C51.8,435.8,66.5,428.5,64.4,421.5z"/>
	<g>
		<path class="st7" d="M62.2,408c-1-2.8-2.3-5.8-4.9-7.2c-1.6-0.8-3.4-0.8-5.1-0.9c-6-0.1-11.9,0-17.9,0.1c2.6,0.1,4.9,1.2,7.4,1.7
			c3.4,0.7,6.9,0.4,10.4,0.3c1.5-0.1,3-0.1,4.3,0.4c2.3,0.8,3.9,3,5.3,5"/>
	</g>
	<g>
		<path class="st7" d="M64.5,418.1c-0.2-3.5-0.5-7.5-3.2-9.8c-1.9-1.7-4.7-2.1-7.2-2.4c-3.8-0.4-7.6-0.6-11.3-0.5
			c-2.8,0-5.6,0.2-8.2,1.1c-2.3,0.8-4.3,2.1-6.4,3.5c-2.6,1.7-5.1,3.5-7.5,5.4c6.6-0.2,12-5.5,18.4-7.2c4.6-1.3,9.5-0.7,14.2,0.1
			c2.7,0.5,5.4,1,7.7,2.5s1.1,4.6,3.3,7.5"/>
	</g>
	<g>
		<path class="st7" d="M64.4,421.5c0.3,7.6,0.9,16-2.2,23c-2,4.5-5.3,8.2-8.6,11.9c-0.6-3.1,1.4-4.5,2.9-6.4
			c1.2-1.6,3.1-2.9,3.7-4.7c2.4-7,3.7-14.5,3.7-21.9"/>
	</g>
	<path class="st6" d="M-6.1,446.1c0,0,15.5-76,63.4-45.4S33.1,599.5,33.1,599.5l-33.6-7.7L-6.1,446.1z"/>
	<polygon class="st8" points="223.6,485.5 168.4,573.1 222.5,792.1 270.7,783.8 	"/>
	<g>
		<g>
			<path class="st7" d="M235.4,733.1c32,0,64,0,96,0c9,0,18,0,27,0c4.5,0,8.7-3.9,8.5-8.5c-0.2-4.6-3.7-8.5-8.5-8.5c-32,0-64,0-96,0
				c-9,0-18,0-27,0c-4.5,0-8.7,3.9-8.5,8.5C227.1,729.2,230.7,733.1,235.4,733.1L235.4,733.1z"/>
		</g>
	</g>
	<path class="st9" d="M342.6,446.2c0,0,38.8,131.8,35.9,152.2c-2.9,20.4-18.4,94-18.4,94l100.8-23.3l-31-193.8L342.6,446.2z"/>
	<polygon class="st7" points="368.1,452.8 290.6,683.3 290.6,720.7 264.7,718.8 263.7,681.5 354,437.2 	"/>
</g>
<g id="Layer_9">
</g>
<g id="Layer_10">
	<polygon class="st10" points="374.3,286 379.9,362.1 433.8,328.8 430.7,208.2 	"/>
</g>
<g id="Layer_2">
	<path class="st11" d="M236.3,336.9c0,0,10,8.9,15.3,11.7c5.3,2.8,31.3,12.8,51.6,11.7c20.3-1.1,34.5-16.7,42.4-18.9
		c7.8-2.1,38.8-31.3,52-64.4c16-34.2,24.2-62.3,24.2-62.3S455.9,65.4,377.3-1c-86.9-0.7-95.7,5.5-120.4,48.6
		S143.2,304.8,236.3,336.9z"/>
</g>
<g id="Layer_7">
	<path class="st12" d="M207.6,225.6"/>
	<path class="st13" d="M300.8,98.8l-25.7-5.1C300.4,49.8,349.7-2,349.7-2l-70,33.2l-95,136.3l35.4,144.4c0,0-2.2-35.4-1.5-42.7
		s18.4-72.9,18.4-72.9s16.9-23.6,27.3-64.1c0.4-1.4,0.8-2.9,1.3-4.4c9.9,2.8,23.6,8.7,34,20.8c0,0,6.8,3.3,6.5,11.9
		c-0.3,8.6-18.7,50.4-17.3,52.8c0,0,32.3-47.6,30.6-75.3C317.2,102.1,300.8,98.8,300.8,98.8z"/>
	<path class="st14" d="M418.3,165.8c3.4-11.1,6.8-32.9-15.5-39.3c-64.8-18.7-48.7,29-48.7,29c0.1,0,0.1-0.1,0.2-0.1
		c0,0.2,0,0.5,0,0.7c-1.3,28.3-0.7,71.3-10.5,77c-1.2,0.7-1.7,2.3-1.5,4.5l-16-2.4c0,0-13.3,19.5-10.2,24.6
		c3.1,5.1,15,6.3,25.5,25.4c11.2,20.5,30.3,31.4,30.3,31.4l1.1,0c6.3-4.9,20.7-31.1,20.7-31.1l26.6-61.5l-0.6-58.7
		C419.7,165.1,419.2,165.4,418.3,165.8z M404.8,170.4l1.8,0.3c-6.2,2.2-13.4,4.2-19,3.8c-7.4-0.5-17.7-13.3-24.9-19.7
		C378.5,156.8,404.8,170.4,404.8,170.4z"/>
</g>
<g id="Layer_3">
	<path class="st15" d="M379.2,152.6c0,0,12-4.7,21.2,5.2c8,10.8,11.2,11,11.2,11s-3.7,1.9-6.7,1.9S398.2,154.7,379.2,152.6z"/>
	<path class="st16" d="M366.4,166.3c0,0,10.8,10.2,25.6,8.2c6.6-1.7,8.1-4.1,8.1-4.1s-7.6-20.1-29.3-16.1
		c-11.6,2.1-17.5,4.4-14.4,8.6C358.3,165.5,364.2,164.4,366.4,166.3z"/>
	<path class="st17" d="M371.5,154.2c-0.1,0-0.2,0-0.3,0.1c-1.7,2-2.8,4.7-2.8,7.4c0,3.2,1.2,6.3,3.3,8.4c1.7,1.1,4,2.1,6.5,3
		c0.5,0.1,1,0,1.5-0.1c6.2-0.7,11.3-5,11.3-11.3c0-1.4-0.2-2.3-0.7-3.6C385.9,155,379.5,152.7,371.5,154.2z"/>
	<path class="st18" d="M371.3,154.1c-0.1,0-0.2,0-0.3,0.1c-1.7,2-2.8,4.7-2.8,7.4c0,3.2,1.2,6.3,3.3,8.4c1.7,1.1,4,2.1,6.5,3
		c0.5,0.1,1,0,1.5-0.1c6.2-0.7,11.3-5,11.3-11.3c0-1.4-0.2-2.3-0.7-3.6C385.7,154.9,379.4,152.6,371.3,154.1z"/>
	<path class="st19" d="M361.3,164.9c0,0-2.2-4.9-1.2-7.9c-3.4,1.3-6,2.8-3.7,6C357.7,164.8,361.3,164.9,361.3,164.9z"/>
	<path class="st20" d="M367.1,155c0,0,22.1-8,33,15.4c2.1,4.3,8,7.1,8,7.1s-5-15.9-16.4-21.5S372.2,152.4,367.1,155z"/>
	<path class="st20" d="M386.3,154.5c0,0,8.7,0.5,14.1-5.6c-5.9,6.3-11.2,7-11.2,7L386.3,154.5z"/>
	<path class="st20" d="M391.2,158.5c0,0,7.3,0.3,11.8-4.2c-5.1,5-9.3,5.3-9.3,5.3L391.2,158.5z"/>
	<path class="st20" d="M392.7,159.9c0,0,6.8,0.3,10.9-3.9c-4.8,4.6-8.6,4.9-8.6,4.9L392.7,159.9z"/>
	<path class="st20" d="M384.2,153.3c0,0,3.4-0.3,10.5-4.4c-5.6,4.1-7.8,5.4-7.8,5.4L384.2,153.3z"/>
	<path class="st20" d="M386.5,154.4c0,0,7.4-3,8.3-4.6c-1.1,2.8-7.7,5.3-7.7,5.3L386.5,154.4z"/>
	<path class="st20" d="M391.6,157.2c0,0,6.2-1.7,8-5.1c-1.2,3.7-7.4,5.5-7.4,5.5L391.6,157.2z"/>
	<path class="st20" d="M396.5,160.5c0,0,9.6,0.1,13.1-3.2c-3.8,3.9-12.2,4.2-12.2,4.2L396.5,160.5z"/>
	<path class="st20" d="M395.6,159.6c0,0,8.2,0.1,11.2-2.7c-3.2,3.3-10.4,3.6-10.4,3.6L395.6,159.6z"/>
	<path class="st20" d="M402.7,171.8c0,0,7,4.4,10.5,4.4c0,0-8.1-3.6-9.8-5.7C401.7,168.3,402.7,171.8,402.7,171.8z"/>
	<path class="st20" d="M402.9,169.1c0,0,6.5,4.3,9.9,3.2c-1.9,1.4-9.3-1.9-9.3-1.9L402.9,169.1z"/>
	<path class="st20" d="M399.2,162.7c0,0,7.2,1.4,11.9-2c-5.9,4-12.1,3.2-12.1,3.2L399.2,162.7z"/>
	<path class="st20" d="M399.9,165.4c0,0,6.1,1.4,10-2c-5,4.1-10.2,3.2-10.2,3.2L399.9,165.4z"/>
	<path class="st20" d="M397.1,161.7c0,0,7.2,1.4,11.9-2c-5.9,4-12.1,3.2-12.1,3.2L397.1,161.7z"/>
	<path class="st20" d="M402.5,167.3c0,0,5,3.6,10.4,3.3c-2.7,1.2-10-0.6-10-0.6L402.5,167.3z"/>
	<path class="st20" d="M401.1,166.9c0,0,6.7,1.7,10.1,0.6c-2.2,2-9.6,1.2-9.6,1.2L401.1,166.9z"/>
	<path class="st20" d="M403.3,173.7c0,0,2.9,6.8,6,8.8c-2.6-3.5-5.3-9-5.3-9L403.3,173.7z"/>
	<path class="st20" d="M405.5,174.5c0,0,3.1,6.9,5.1,7.3c-1.3-1.6-4.5-7.2-4.5-7.2L405.5,174.5z"/>
	<path class="st20" d="M402.7,171.8c0,0,1.4,9.1,6.4,13.4c-3.5-5.4-5.4-11.2-5.6-13.1C403.4,170.2,402.7,171.8,402.7,171.8z"/>
	<path class="st20" d="M403.1,171.4c0,0,5.1,7.8,9.1,7.9c-2.6,0.2-7.1-3.3-8.8-6.3C401.6,170,403.1,171.4,403.1,171.4z"/>
	<path class="st20" d="M381.1,153.2c0,0,3.3,0.2,5.7-3.6c-1.8,3.7-4.5,4.4-4.5,4.4L381.1,153.2z"/>
	<path class="st20" d="M383.5,153.3c0,0,3.4,0,5.4-5.8c-1.4,5.5-4.1,6.8-4.1,6.8L383.5,153.3z"/>
	<path class="st20" d="M379.7,153.4c0,0,3.3-0.1,5.3-4.2c-1.4,3.8-4,4.8-4,4.8L379.7,153.4z"/>
	<path class="st20" d="M377.3,153.1c0,0,3.3,0.2,5.7-3.6c-1.8,3.7-4.5,4.4-4.5,4.4L377.3,153.1z"/>
	<g>
		<path class="st20" d="M399.7,176.8c1.1,0.7,2.2,1.5,3.1,2.4c0.5,0.4,0.9,0.9,1.3,1.5c0.4,0.5,0.7,1.1,0.8,1.8
			c-0.1-0.6-0.5-1.2-0.9-1.7c-0.4-0.5-0.9-1-1.3-1.4c-1-0.8-2.1-1.5-3.2-2.1l0,0c-0.1-0.1-0.2-0.2-0.1-0.3
			C399.4,176.8,399.5,176.8,399.7,176.8C399.6,176.8,399.6,176.8,399.7,176.8z"/>
	</g>
	<g>
		<path class="st20" d="M397,176.7c0.5,0.5,0.9,1,1.3,1.6c0.3,0.6,0.6,1.2,0.6,1.9c-0.1-0.7-0.5-1.3-0.9-1.8c-0.4-0.5-0.9-1-1.4-1.4
			l0,0c-0.1-0.1-0.1-0.2,0-0.4C396.7,176.6,396.9,176.6,397,176.7C397,176.7,397,176.7,397,176.7z"/>
	</g>
	<g>
		<path class="st20" d="M389.7,176.7c0.6,0.7,1.1,1.5,1.5,2.3c0.4,0.8,0.7,1.7,0.7,2.6c-0.1-0.9-0.5-1.7-1-2.5
			c-0.5-0.7-1.1-1.4-1.7-2l0,0c-0.1-0.1-0.1-0.3,0-0.5S389.5,176.5,389.7,176.7C389.6,176.7,389.7,176.7,389.7,176.7z"/>
	</g>
	<g>
		<path class="st20" d="M380,175.2c0.2,0.8,0.3,1.6,0.3,2.4c0,0.8-0.1,1.6-0.5,2.3c0.2-0.8,0.3-1.6,0.2-2.3
			c-0.1-0.8-0.3-1.5-0.6-2.2l0,0c-0.1-0.1,0-0.3,0.2-0.4C379.8,175,380,175.1,380,175.2C380,175.2,380,175.2,380,175.2z"/>
	</g>
	<g>
		<path class="st20" d="M378.6,175.6c0,0.8-0.1,1.6-0.3,2.4c-0.2,0.8-0.5,1.5-1,2.2c0.4-0.7,0.6-1.5,0.7-2.2c0.1-0.8,0.1-1.6,0-2.3
			l0,0c0-0.2,0.1-0.3,0.2-0.3C378.5,175.3,378.6,175.4,378.6,175.6C378.6,175.6,378.6,175.6,378.6,175.6z"/>
	</g>
	<g>
		<path class="st20" d="M377,175.3c0,0.8-0.1,1.6-0.3,2.4c-0.2,0.8-0.5,1.5-1,2.2c0.4-0.7,0.6-1.5,0.7-2.2c0.1-0.8,0.1-1.6,0-2.3
			l0,0c0-0.2,0.1-0.3,0.2-0.3S377,175.2,377,175.3C377,175.3,377,175.3,377,175.3z"/>
	</g>
	<g>
		<path class="st20" d="M385.5,176c0.5,0.5,0.8,1.1,1.1,1.6c0.3,0.6,0.5,1.2,0.6,1.9c-0.2-1.3-1.1-2.3-2-3.2l0,0
			c-0.1-0.1-0.1-0.2,0-0.3C385.3,175.9,385.4,175.8,385.5,176C385.5,175.9,385.5,175.9,385.5,176z"/>
	</g>
	<g>
		<path class="st20" d="M375.5,173.8c-0.1,0.5-0.2,0.9-0.4,1.3c-0.2,0.4-0.4,0.8-0.8,1.1c0.6-0.7,0.7-1.6,0.8-2.5l0,0
			c0-0.1,0.1-0.2,0.2-0.2C375.4,173.6,375.5,173.7,375.5,173.8C375.5,173.8,375.5,173.8,375.5,173.8z"/>
	</g>
	<g>
		<path class="st20" d="M371.8,173.2c-0.4,0.3-0.7,0.7-1,1.1c-0.3,0.4-0.6,0.9-0.5,1.4c-0.1-0.5,0.1-1,0.4-1.5
			c0.3-0.5,0.5-0.9,0.9-1.3c0.1-0.1,0.2-0.1,0.3,0C371.9,173,371.9,173.1,371.8,173.2C371.8,173.2,371.8,173.2,371.8,173.2
			L371.8,173.2z"/>
	</g>
	<g>
		<path class="st20" d="M373.4,173.5c-0.4,0.3-0.7,0.7-1,1.1c-0.3,0.4-0.6,0.9-0.5,1.4c-0.1-0.5,0.1-1,0.4-1.5
			c0.3-0.5,0.5-0.9,0.9-1.3c0.1-0.1,0.2-0.1,0.3,0S373.5,173.4,373.4,173.5C373.4,173.5,373.4,173.5,373.4,173.5L373.4,173.5z"/>
	</g>
	<g>
		<path class="st20" d="M388,177.1c0.7,1.1,1.2,2.3,1.7,3.5c0.4,1.2,0.7,2.5,0.7,3.8c-0.1-1.3-0.5-2.5-1.1-3.6
			c-0.5-1.1-1.2-2.2-2-3.2l0,0c-0.1-0.2-0.1-0.5,0.1-0.6C387.5,176.8,387.8,176.9,388,177.1C387.9,177.1,387.9,177.1,388,177.1z"/>
	</g>
	<g>
		<path class="st20" d="M384.2,175.8c0.7,1.4,1.2,2.9,1.6,4.4c0.4,1.5,0.6,3,0.6,4.6c-0.1-1.5-0.5-3-1-4.4c-0.5-1.4-1.2-2.8-2-4l0,0
			c-0.1-0.2-0.1-0.5,0.1-0.7S384.1,175.6,384.2,175.8C384.2,175.8,384.2,175.8,384.2,175.8z"/>
	</g>
	<g>
		<path class="st20" d="M394.7,176.8c1,1,1.8,2.1,2.5,3.3c0.7,1.2,1.2,2.5,1.3,3.8c-0.2-1.3-0.8-2.6-1.5-3.7c-0.8-1.1-1.6-2.1-2.6-3
			l0,0c-0.1-0.1-0.1-0.3,0-0.4C394.4,176.7,394.6,176.7,394.7,176.8C394.7,176.8,394.7,176.8,394.7,176.8z"/>
	</g>
	<g>
		<path class="st20" d="M393.1,176.5c1.1,0.9,2,2,2.9,3.1c0.8,1.1,1.5,2.4,1.9,3.7c-0.5-1.3-1.3-2.5-2.2-3.5c-0.9-1-1.9-2-3-2.8l0,0
			c-0.2-0.1-0.2-0.4-0.1-0.5C392.6,176.4,392.9,176.4,393.1,176.5C393,176.5,393,176.5,393.1,176.5z"/>
	</g>
	<g>
		<path class="st20" d="M382,176c0.8,1.2,1.4,2.5,1.9,3.8c0.5,1.3,0.8,2.7,0.8,4.1c-0.1-1.4-0.5-2.7-1.1-4c-0.6-1.2-1.3-2.4-2.1-3.5
			l0,0c-0.1-0.2-0.1-0.4,0.1-0.5C381.6,175.8,381.9,175.8,382,176C382,176,382,176,382,176z"/>
	</g>
	<path class="st21" d="M392.4,176.9"/>
	<g>
		<path class="st22" d="M358.6,153.9c4.1-3.2,8.6-5.8,13.4-7.7c2.4-0.9,5-1.6,7.6-1.8c0.7,0,1.3-0.1,2,0c0.7,0,1.3,0.1,2,0.2
			c1.3,0.2,2.6,0.4,3.8,0.7c2.5,0.6,5,1.4,7.4,2.5c2.4,1.1,4.7,2.3,6.7,4c2,1.7,3.8,3.7,4.9,6.1c1.1,2.4,1.7,5,1.6,7.5
			c-0.2-2.6-0.8-5.1-2.1-7.3c-1.2-2.2-2.9-4.1-5-5.7c-4.1-3.1-8.9-5-13.9-6.1c-2.5-0.6-5-1.1-7.5-0.9c-2.5,0.1-5,0.8-7.4,1.6
			c-2.4,0.8-4.8,1.9-7,3.1C363,151.1,360.7,152.4,358.6,153.9z"/>
	</g>
	<path class="st15" d="M285.1,135.3c0,0-10.7-16.7-25.8-11.8c-3.4,6.5-3.8,7.5-3.8,7.5S272.2,126.1,285.1,135.3z"/>
	<path class="st16" d="M255.4,131.2c0,0,15.4-7.3,37.7,10.9c4.7,3.9,7.6,6.1,6,7.1s-7.5,0.1-9.4-0.4s-14,0.2-18.1,0.3
		c-4.2,0.1-14.6-1.7-18.5-4.9C249.2,140.9,255.4,131.2,255.4,131.2z"/>
	<path class="st23" d="M294.5,142.9c0,0,0.5,4.3-2.7,6c3.3,0.7,7.3,0.8,7.8-0.4C300.2,147.1,294.5,142.9,294.5,142.9z"/>
	<path class="st17" d="M261.1,129.7c-1.8,2-3,4.9-3,7.8c0,5.1,3.3,9.4,7.9,11c1.9,0.3,3.6,0.5,4.9,0.5c5.8-0.6,10.3-5.5,10.3-11.5
		c0-1.3-0.2-2.6-0.6-3.8C272.2,129.6,265.4,129.1,261.1,129.7z"/>
	<path class="st18" d="M261.1,129.8c-1.8,2-3,4.9-3,7.8c0,5.1,3.3,9.4,7.9,11c1.9,0.3,3.6,0.5,4.9,0.5c5.8-0.6,10.3-5.5,10.3-11.5
		c0-1.3-0.2-2.6-0.6-3.8C272.2,129.7,265.4,129.2,261.1,129.8z"/>
	<path class="st20" d="M271.7,129.8c0,0-3.2-4-4-12.1c0.3,10.5,3.4,12.7,3.4,12.7L271.7,129.8z"/>
	<path class="st20" d="M265.7,129.2c0,0-3.1-2.8-4.2-7.2c0.7,5.9,2.9,7.7,2.9,7.7L265.7,129.2z"/>
	<path class="st20" d="M267.4,129.3c0,0-3.3-3.9-3.7-6.7c0.1,3.8,2.9,6.9,2.9,6.9L267.4,129.3z"/>
	<path class="st20" d="M263.7,129.1c0,0-3.3-3.9-3.7-6.7c0.1,3.8,2.9,6.9,2.9,6.9L263.7,129.1z"/>
	<path class="st20" d="M273.4,130.6c0,0-1.9-3.1-1.9-4.3c0.3,2.4,1.3,4.1,1.3,4.1L273.4,130.6z"/>
	<path class="st20" d="M274.1,130.4c0,0,0.8-8,0.8-9.4c-0.9,6.3-1.4,9.5-1.4,9.5L274.1,130.4z"/>
	<path class="st20" d="M274.6,131.3c0,0,1.7-3,1.8-7c0.2,5.8,0.6,8,0.6,8L274.6,131.3z"/>
	<path class="st20" d="M277.2,132c0,0,1.3-5.4,1.3-7.9c0.1,5.6-0.5,8.4-0.5,8.4h-0.7"/>
	<path class="st20" d="M278.9,132.1c0,0,2.4-3.9,2.4-5.2c-0.1,2.2-1.9,5.7-1.9,5.7L278.9,132.1z"/>
	<g>
		<path class="st20" d="M280.5,133.4c0.3,0,0.6,0,1-0.1c0.3,0,0.6-0.1,0.9-0.2c0.3-0.1,0.6-0.2,0.9-0.4c0.3-0.2,0.5-0.4,0.8-0.6
			c-0.2,0.3-0.4,0.5-0.7,0.7c-0.3,0.2-0.6,0.4-0.9,0.5C281.8,133.5,281.1,133.6,280.5,133.4z"/>
	</g>
	<path class="st20" d="M269.6,129.1c0,0-3.2-1.6-3.8-4.9C266.1,127.3,266.5,129.7,269.6,129.1z"/>
	<path class="st20" d="M263,128.8c0,0-3.2-0.1-5.5-2.4c0.6,3.2,5.4,3.3,5.4,3.3L263,128.8z"/>
	<path class="st20" d="M281.7,134.5c0,0,1.9,2,3.7-0.4C284.7,135.9,282.8,136.3,281.7,134.5z"/>
	<path class="st20" d="M285.4,136.2c0,0,0.7,3.9,2.5,4.1C286.7,139.4,285.5,136.6,285.4,136.2z"/>
	<path class="st20" d="M285.9,136.5c0,0,1.6,4.6,3.6,4.5C288,140.2,286.2,137,285.9,136.5z"/>
	<path class="st20" d="M284.6,135.7c0,0-0.7,2.1,0.2,3.3c-0.2-1.4,0.2-3.1,0.2-3.1L284.6,135.7z"/>
	<path class="st20" d="M294.5,142.9c0,0-20.2-18.1-39-11.9C261.1,126.9,277,123.5,294.5,142.9z"/>
	<g>
		<path class="st20" d="M278.5,149.6c0.3,0.4,0.5,0.8,0.7,1.2c0.2,0.4,0.3,0.8,0.4,1.3c0.2,0.9,0.1,1.8-0.1,2.6
			c0.1-0.9,0.1-1.7-0.1-2.6c-0.1-0.4-0.3-0.8-0.5-1.2c-0.2-0.4-0.4-0.7-0.7-1l0,0c-0.1-0.1-0.1-0.3,0-0.4
			C278.3,149.5,278.4,149.5,278.5,149.6C278.5,149.6,278.5,149.6,278.5,149.6z"/>
	</g>
	<g>
		<path class="st20" d="M272.1,150.5c0.1,0.6,0.1,1.2,0.1,1.8c0,0.6-0.1,1.2-0.3,1.7c-0.3,1.1-0.8,2.2-1.4,3.2
			c0.5-1,0.9-2.1,1.1-3.2c0.1-0.6,0.1-1.1,0.1-1.7c0-0.6-0.1-1.1-0.2-1.6l0,0c0-0.2,0.1-0.3,0.2-0.4
			C271.9,150.2,272.1,150.3,272.1,150.5C272.1,150.5,272.1,150.5,272.1,150.5z"/>
	</g>
	<g>
		<path class="st20" d="M270.8,150.4c0.2,0.7,0.2,1.4,0.1,2.1c-0.1,0.7-0.4,1.3-0.8,1.9c0.3-0.6,0.6-1.2,0.6-1.9
			c0.1-0.7,0-1.3-0.3-1.9l0,0c0-0.1,0-0.2,0.1-0.3C270.6,150.2,270.7,150.2,270.8,150.4C270.8,150.3,270.8,150.3,270.8,150.4z"/>
	</g>
	<g>
		<path class="st20" d="M282.2,150.5c0.5,0.4,0.9,1,1.1,1.6c0.2,0.6,0.2,1.3,0,1.9c0.1-0.6,0.1-1.2-0.2-1.8c-0.2-0.5-0.7-1-1.1-1.3
			l0,0c-0.1-0.1-0.1-0.2-0.1-0.3C282,150.4,282.1,150.4,282.2,150.5C282.2,150.4,282.2,150.5,282.2,150.5z"/>
	</g>
	<g>
		<path class="st20" d="M266.9,150.4c-0.3,0.2-0.5,0.6-0.7,1c-0.2,0.4-0.3,0.7-0.4,1.1c-0.2,0.8-0.2,1.6-0.1,2.5
			c-0.2-0.8-0.2-1.7-0.1-2.5c0.1-0.4,0.1-0.8,0.3-1.3c0.2-0.4,0.3-0.8,0.7-1.2c0.1-0.1,0.2-0.1,0.4,0
			C267.1,150.1,267.1,150.3,266.9,150.4C267,150.4,267,150.4,266.9,150.4L266.9,150.4z"/>
	</g>
	<g>
		<path class="st20" d="M264.5,150.6c-0.3,0.1-0.7,0.4-0.9,0.7c-0.3,0.3-0.5,0.6-0.8,0.9c-0.4,0.7-0.8,1.5-0.9,2.3
			c0.1-0.8,0.3-1.6,0.7-2.4c0.2-0.4,0.4-0.7,0.7-1.1c0.3-0.3,0.6-0.6,1-0.9c0.1-0.1,0.3,0,0.3,0.1
			C264.7,150.3,264.7,150.5,264.5,150.6C264.6,150.5,264.6,150.5,264.5,150.6L264.5,150.6z"/>
	</g>
	<g>
		<path class="st20" d="M262.5,150.3c-0.3,0.1-0.7,0.4-0.9,0.7c-0.3,0.3-0.5,0.6-0.8,0.9c-0.4,0.7-0.8,1.5-0.9,2.3
			c0.1-0.8,0.3-1.6,0.7-2.4c0.2-0.4,0.4-0.7,0.7-1.1c0.3-0.3,0.6-0.6,1-0.9c0.1-0.1,0.3,0,0.3,0.1
			C262.7,150.1,262.6,150.2,262.5,150.3C262.5,150.3,262.5,150.3,262.5,150.3L262.5,150.3z"/>
	</g>
	<g>
		<path class="st20" d="M259.2,148.5c-0.5,0.1-1.1,0.3-1.6,0.6c-0.5,0.3-1,0.7-1.3,1.1c-0.4,0.5-0.7,1-0.9,1.5
			c-0.2,0.6-0.3,1.1-0.4,1.7c0-0.6,0.1-1.2,0.3-1.8c0.2-0.6,0.5-1.1,0.8-1.6c0.4-0.5,0.8-0.9,1.3-1.3c0.5-0.3,1.1-0.6,1.7-0.8
			c0.1,0,0.3,0,0.3,0.2C259.5,148.3,259.4,148.5,259.2,148.5C259.3,148.5,259.3,148.5,259.2,148.5L259.2,148.5z"/>
	</g>
	<g>
		<path class="st20" d="M259.8,149.2c-0.9,0.1-1.9,0.4-2.6,1c-0.4,0.3-0.7,0.7-0.8,1.2c-0.2,0.4-0.3,0.9-0.3,1.4c0-0.5,0-1,0.2-1.5
			c0.2-0.5,0.4-0.9,0.8-1.3c0.4-0.4,0.8-0.7,1.3-0.9c0.5-0.2,1-0.4,1.5-0.4c0.1,0,0.2,0.1,0.2,0.2
			C260,149.1,259.9,149.2,259.8,149.2C259.8,149.2,259.8,149.2,259.8,149.2L259.8,149.2z"/>
	</g>
	<g>
		<path class="st20" d="M257.5,148.3c-0.9,0.1-1.9,0.4-2.6,1c-0.4,0.3-0.7,0.7-0.8,1.2c-0.2,0.4-0.3,0.9-0.3,1.4c0-0.5,0-1,0.2-1.5
			c0.2-0.5,0.4-0.9,0.8-1.3c0.4-0.4,0.8-0.7,1.3-0.9c0.5-0.2,1-0.4,1.5-0.4c0.1,0,0.2,0.1,0.2,0.2
			C257.7,148.2,257.7,148.3,257.5,148.3C257.5,148.3,257.5,148.3,257.5,148.3L257.5,148.3z"/>
	</g>
	<g>
		<path class="st20" d="M268.8,150.9c-0.3,0.2-0.5,0.6-0.7,1c-0.2,0.4-0.3,0.7-0.4,1.1c-0.2,0.8-0.2,1.6-0.1,2.5
			c-0.2-0.8-0.2-1.7-0.1-2.5c0.1-0.4,0.1-0.8,0.3-1.3c0.2-0.4,0.3-0.8,0.7-1.2c0.1-0.1,0.2-0.1,0.4,0
			C268.9,150.6,268.9,150.8,268.8,150.9C268.8,150.9,268.8,150.9,268.8,150.9L268.8,150.9z"/>
	</g>
	<g>
		<path class="st20" d="M269,150.3l0.7,5.5l-1.3-5.4c0-0.2,0.1-0.3,0.2-0.3C268.8,150,268.9,150.1,269,150.3
			C269,150.2,269,150.3,269,150.3z"/>
	</g>
	<g>
		<path class="st22" d="M298.1,138.2c-1.4-1.8-2.8-3.6-4.3-5.3c-1.5-1.7-3.1-3.3-4.8-4.8c-3.4-3-7.1-5.6-11.2-7.3
			c-1-0.4-2.1-0.8-3.2-1.1l-1.6-0.4c-0.5-0.1-1.1-0.2-1.6-0.3c-2.2-0.3-4.5-0.4-6.7-0.3c-2.2,0.1-4.5,0.5-6.6,1.3
			c-2.1,0.8-4.1,2-5.5,3.8c1.2-1.9,3.2-3.3,5.3-4.2c2.1-0.9,4.4-1.4,6.7-1.6c1.1-0.1,2.3-0.2,3.5-0.1c1.2,0,2.3,0.1,3.4,0.3
			c0.6,0,1.1,0.2,1.7,0.3l1.7,0.4c0.6,0.2,1.1,0.4,1.7,0.5c0.5,0.2,1.1,0.3,1.6,0.6c4.2,1.8,8.1,4.5,11.4,7.7
			C292.8,130.8,295.7,134.3,298.1,138.2z"/>
	</g>
	<path class="st24" d="M263.5,267.3c0,0,14.7,16.2,46,20.6c26,3.7,29.1,2,32-2.8c-9.7-4.7-30.7-15.4-30.7-15.4l-23.8-2.1
		L263.5,267.3z"/>
	<path class="st25" d="M263.9,267.2c2.8-0.5,21.6-4.1,31.9-6.6c2.5-0.6,5.1-0.8,7.7-0.5c6.8,0.8,9.8,4.5,10.3,5.1
		c0,0.1,0.1,0.1,0.2,0.1c1.1-0.4,10.3-3.4,16.6,4.1c6.4,7.7,12.3,13.2,13.4,15.9c0,0.1-0.1,0.2-0.2,0.2c-1.3-0.2-2.7-0.3-3.6-0.4
		c-1.1-0.1-2.1-0.5-3-1c-3.6-2.1-13.5-7.6-17.4-7.7c-4.9-0.2-11.1,1.6-20.7-5.3c0,0,0,0,0,0c-3.9-1.7-28.1,1.6-35.1-3.4
		C263.7,267.4,263.7,267.3,263.9,267.2z"/>
	<path class="st26" d="M360.3,123.3c-0.9,0.1-1.5-0.9-1-1.7c2.4-3.5,7.8-10.4,12.2-10.4c5.9,0,34.3,8.2,39.1,17.2
		c3.2,6.1,2.5,8.8,1.6,10c-0.3,0.5-1,0.6-1.5,0.3C406.5,135.8,382.4,120.8,360.3,123.3z"/>
	<path class="st26" d="M307.8,109.3c0.6,0.1,5.2,1.3,4.9,0.7c-1.4-3.1-5.8-12.5-7.5-13.2c-2-0.8-33.4-4.8-38.4-5.6
		c-0.4-0.1-0.8,0.2-0.9,0.6l-2.4,10.4c-0.1,0.5,0.2,0.9,0.7,1L307.8,109.3z"/>
	<g>
		<path class="st26" d="M307.8,99.7c0.8,1.3,1.6,2.7,2.2,4.1c0.6,1.4,1.1,2.9,1.3,4.6c0,0.2-0.1,0.4-0.3,0.4c-0.2,0-0.4-0.1-0.4-0.3
			c0,0,0,0,0,0l0,0c0-1.5-0.4-3-0.9-4.5C309.2,102.5,308.6,101.1,307.8,99.7z"/>
	</g>
	<g>
		<path class="st26" d="M303,94.4c1.2,1,2.3,2.1,3.4,3.2c1,1.2,2,2.5,2.6,3.9c0.1,0.2,0,0.4-0.2,0.5s-0.4,0-0.5-0.2c0,0,0,0,0,0l0,0
			c-0.5-1.4-1.3-2.7-2.2-4C305.2,96.7,304.2,95.5,303,94.4z"/>
	</g>
	<g>
		<path class="st26" d="M307,96.4c1.2,1.7,2.2,3.5,3.2,5.4c0.9,1.9,1.8,3.8,2.4,5.9c0.1,0.2-0.1,0.5-0.3,0.5
			c-0.2,0.1-0.5-0.1-0.5-0.3c0,0,0,0,0,0l0,0c-0.4-2-1.1-4-1.9-5.9C309,100.1,308,98.2,307,96.4z"/>
	</g>
	<g>
		<path class="st26" d="M309.2,94.9c0.9,2.3,1.7,4.7,2.3,7.2c0.6,2.4,1.1,4.9,1.3,7.5c0,0.3-0.2,0.5-0.5,0.5s-0.5-0.2-0.5-0.5
			c0,0,0,0,0,0l0,0c0-2.5-0.3-4.9-0.8-7.4C310.6,99.8,310,97.3,309.2,94.9z"/>
	</g>
	<g>
		<path class="st26" d="M307.3,95c0.8,1.5,1.4,3.1,2,4.8c0.6,1.6,1,3.3,1.3,5.1c0,0.2-0.1,0.4-0.3,0.4c-0.2,0-0.4-0.1-0.4-0.3
			c0,0,0,0,0,0c-0.1-1.7-0.5-3.4-0.9-5C308.5,98.2,307.9,96.6,307.3,95z"/>
	</g>
	<g>
		<path class="st26" d="M288.3,93.7c-1.6,0-3.2-0.1-4.8-0.2c-0.8-0.1-1.6-0.1-2.4-0.1c-0.8,0-1.6,0-2.4,0.2c0.7-0.5,1.5-0.7,2.3-0.8
			c0.8-0.1,1.6-0.1,2.5,0C285.1,92.9,286.8,93.2,288.3,93.7z"/>
	</g>
	<g>
		<path class="st26" d="M302.4,95.9c-1.6,0-3.2-0.1-4.8-0.2c-0.8-0.1-1.6-0.1-2.4-0.1c-0.8,0-1.6,0-2.4,0.2c0.7-0.5,1.5-0.7,2.3-0.8
			c0.8-0.1,1.6-0.1,2.5,0C299.3,95,300.9,95.3,302.4,95.9z"/>
	</g>
	<g>
		<path class="st26" d="M284.6,92.1c-1.6,0.3-3.2,0.5-4.8,0.7c-0.8,0.1-1.6,0.2-2.4,0.3c-0.8,0.1-1.6,0.2-2.3,0.6
			c0.5-0.6,1.4-1,2.1-1.2c0.8-0.2,1.6-0.4,2.4-0.5C281.3,91.9,283,91.9,284.6,92.1z"/>
	</g>
	<g>
		<path class="st26" d="M282.3,91.7c-1.6,0.1-3.2,0.1-4.8,0.1c-0.8,0-1.6,0-2.4,0c-0.8,0.1-1.6,0.1-2.3,0.4c0.6-0.6,1.5-0.8,2.3-1
			c0.8-0.2,1.6-0.2,2.4-0.2C279.1,91.1,280.7,91.3,282.3,91.7z"/>
	</g>
	<g>
		<path class="st26" d="M277.4,92c-1.6,0.1-3.2,0.1-4.8,0.1c-0.8,0-1.6,0-2.4,0c-0.8,0.1-1.6,0.1-2.3,0.4c0.6-0.6,1.5-0.8,2.3-1
			c0.8-0.2,1.6-0.2,2.4-0.2C274.2,91.4,275.8,91.5,277.4,92z"/>
	</g>
	<g>
		<path class="st26" d="M275.7,91.3c-1.6,0.1-3.2,0.1-4.8,0.1c-0.8,0-1.6,0-2.4,0c-0.8,0.1-1.6,0.1-2.3,0.4c0.6-0.6,1.5-0.8,2.3-1
			c0.8-0.2,1.6-0.2,2.4-0.2C272.5,90.7,274.1,90.8,275.7,91.3z"/>
	</g>
	<g>
		<path class="st26" d="M296.6,94.7c-1.6,0-3.2-0.1-4.8-0.2c-0.8-0.1-1.6-0.1-2.4-0.1c-0.8,0-1.6,0-2.4,0.2c0.7-0.5,1.5-0.7,2.3-0.8
			c0.8-0.1,1.6-0.1,2.5,0C293.5,93.8,295.1,94.1,296.6,94.7z"/>
	</g>
	<g>
		<path class="st26" d="M357.8,120.8c1.3-2.1,2.9-3.9,4.6-5.5c0.9-0.8,1.8-1.6,2.8-2.3c1-0.7,2.1-1.4,3.3-1.6
			c-1,0.6-1.9,1.4-2.8,2.2c-0.9,0.8-1.7,1.6-2.6,2.4C361.4,117.6,359.7,119.3,357.8,120.8z"/>
	</g>
	<g>
		<path class="st26" d="M364.2,124.2c1.3-2.1,2.9-3.9,4.6-5.5c0.9-0.8,1.8-1.6,2.8-2.3c1-0.7,2.1-1.4,3.3-1.6
			c-1,0.6-1.9,1.4-2.8,2.2c-0.9,0.8-1.7,1.6-2.6,2.4C367.8,121,366.1,122.7,364.2,124.2z"/>
	</g>
	<g>
		<path class="st26" d="M362.5,124.5c1.3-2.1,2.9-3.9,4.6-5.5c0.9-0.8,1.8-1.6,2.8-2.3c1-0.7,2.1-1.4,3.3-1.6
			c-1,0.6-1.9,1.4-2.8,2.2c-0.9,0.8-1.7,1.6-2.6,2.4C366.1,121.3,364.4,123,362.5,124.5z"/>
	</g>
	<g>
		<path class="st26" d="M377,124.9c1.5-1.9,3.3-3.5,5.2-5c1-0.7,2-1.4,3-2c1.1-0.6,2.2-1.1,3.4-1.3c-1.1,0.5-2,1.2-3,1.9
			c-1,0.7-1.9,1.4-2.8,2.1C381,122.1,379.1,123.6,377,124.9z"/>
	</g>
	<g>
		<path class="st26" d="M373.7,125.7c1.5-1.9,3.3-3.5,5.2-5c1-0.7,2-1.4,3-2c1.1-0.6,2.2-1.1,3.4-1.3c-1.1,0.5-2,1.2-3,1.9
			c-1,0.7-1.9,1.4-2.8,2.1C377.6,122.9,375.8,124.3,373.7,125.7z"/>
	</g>
	<g>
		<path class="st26" d="M371.5,125.7c1.5-1.9,3.3-3.5,5.2-5c1-0.7,2-1.4,3-2c1.1-0.6,2.2-1.1,3.4-1.3c-1.1,0.5-2,1.2-3,1.9
			c-1,0.7-1.9,1.4-2.8,2.1C375.5,122.9,373.6,124.3,371.5,125.7z"/>
	</g>
	<g>
		<path class="st26" d="M383.8,126.9c1.5-1.9,3.3-3.5,5.2-5c1-0.7,2-1.4,3-2c1.1-0.6,2.2-1.1,3.4-1.3c-1.1,0.5-2,1.2-3,1.9
			c-1,0.7-1.9,1.4-2.8,2.1C387.8,124.2,385.9,125.6,383.8,126.9z"/>
	</g>
	<g>
		<path class="st26" d="M386.3,127.4c1.9-1.6,3.9-2.8,6.1-3.9c1.1-0.5,2.2-1,3.4-1.4c1.1-0.4,2.4-0.7,3.6-0.6
			c-1.2,0.3-2.2,0.8-3.3,1.3c-1.1,0.5-2.1,1-3.2,1.5C390.7,125.4,388.6,126.5,386.3,127.4z"/>
	</g>
	<g>
		<path class="st26" d="M389.7,129.3c1.9-1.6,3.9-2.8,6.1-3.9c1.1-0.5,2.2-1,3.4-1.4c1.1-0.4,2.4-0.7,3.6-0.6
			c-1.2,0.3-2.2,0.8-3.3,1.3c-1.1,0.5-2.1,1-3.2,1.5C394.1,127.4,391.9,128.4,389.7,129.3z"/>
	</g>
	<g>
		<path class="st26" d="M357.1,119.1c1-1.6,2.2-2.9,3.6-4.2c0.7-0.6,1.4-1.2,2.1-1.8c0.8-0.5,1.6-1,2.5-1.2
			c-0.8,0.5-1.4,1.1-2.1,1.7l-2,1.9C359.8,116.6,358.5,117.9,357.1,119.1z"/>
	</g>
	<circle class="st27" cx="379.5" cy="161.9" r="7"/>
	<circle class="st27" cx="269.3" cy="138.4" r="7"/>
	<circle cx="379.7" cy="161.9" r="2.9"/>
	<circle cx="269.4" cy="138" r="2.9"/>
	<path class="st28" d="M380.8,157.5c1-0.1,3.5,0,4.9,1.5c0.1,0.1,0.2,0.3,0.1,0.5c-0.5,1.3-0.9,2.3-1.1,2.8
		c-0.1,0.3-0.5,0.4-0.9,0.4l-4.6-0.8c-0.4-0.1-0.7-0.4-0.5-0.7l1.5-3.3C380.3,157.6,380.5,157.5,380.8,157.5z"/>
	<path class="st28" d="M269.9,133.7c1-0.1,3.5,0,4.9,1.5c0.1,0.1,0.2,0.3,0.1,0.5c-0.5,1.3-0.9,2.3-1.1,2.8
		c-0.1,0.3-0.5,0.4-0.9,0.4l-4.6-0.8c-0.4-0.1-0.7-0.4-0.5-0.7l1.5-3.3C269.3,133.9,269.6,133.7,269.9,133.7z"/>
</g>
<g id="Layer_5">
	<path class="st29" d="M238-4.2c0,0-56,51.3-75.2,106.2s-18.3,95.8-29.6,119.4S118.4,305,124.5,332c6.1,27-23.5,100.2-24.4,121.1
		c-0.9,20.9,23.5,48.8,20,68.8c-3.5,20-15.7,73.2,6.1,102.8c6.1,22.7-13.9,67.6-10.5,80.6c3.4,13,6.8,82.1,6.8,82.1l120.4-4.1
		c0,0-2.7-42.4-5.5-59.5c-2.7-17.1-14.4-34.2-13.7-48.6c0.7-14.4,9.6-39.7,5.5-52.7c-4.1-13-15-34.9-15-34.9s75.6-32.1,68.8-96.9
		c-6.9-64.8-36.4-133.8-43.8-146.4c-7.4-12.6-32.7-66.5-22.3-95.3S261.9-1.4,261.9-1.4L238-4.2z"/>
	<path class="st29" d="M416.4,227.5c0,0-4.9,67-15.5,84.1c-10.6,17.1-35.1,48.2-36.7,59.6s-45.7,37.6-29.4,58.8
		c16.3,21.2,31,24.5,31,39.2s15.5,93.1,19.6,107.8c4.1,14.7-14.7,84.9-26.1,104.5S356,784.4,356,784.4l187.8,1.6
		c0,0-10.6-67.8-26.1-92.3c-15.5-24.5-17.1-69.4-6.5-98.8c10.6-29.4-5.7-213.9-18.8-241.7C479.3,325.5,463,240.6,463,240.6
		L416.4,227.5z"/>
	<path class="st30" d="M4.2,117.5"/>
	<path class="st31" d="M210.5,226.6c0,0-50.1,112.6-17.4,170.8s72.7,132.8,55.5,155.5s-39.1,20-39.1,20s52.7,22.7,67.3-57.3
		s-83.7-212.8-68.2-248.3S210.5,226.6,210.5,226.6z"/>
	<path class="st32" d="M206.5,214.3c0,0-67.9,125-61.5,183.2c6.4,58.2,19.1,165.5,74.6,209.2c25.5,41.8-18.2,89.1-31.8,93.7
		C205,673,219.5,652.1,175.9,582s-78.9-251.9,10-356.5C204.1,228.3,206.5,214.3,206.5,214.3z"/>
	<path class="st32" d="M193.3,388.1c0,0,31.3,110-17.9,148.5c-9.8-16.1-9.8-16.1-9.8-16.1s31.3-24.5,21.8-67.5
		c-9.5-43-2.8-82.7-2.8-82.7L193.3,388.1z"/>
	<path class="st32" d="M175.9,582c0,0,5.8,53.8,15.6,71c9.8,17.2-11.5,82.7-21.3,96.6c-9.8,13.9-1.6,37.7-1.6,37.7l-46,0.1
		c0,0-8-50.8,4.3-63.9s28.1-40.4,26.2-70.9c-1.9-30.5-23.5-39.4-22.2-62.2c1.3-22.9,26.7-60.9,26.7-60.9L175.9,582z"/>
	<g>
		<path class="st33" d="M215.1,605.6c-2.2,5.2-1.2,11.3,1.2,16.3s6.3,9.3,10,13.5c9.6,10.6,19.7,21.6,33,27
			c-8.8,2.5-18.1-0.7-26.7-3.8c-5.9-2.2-12.4-5-14.3-11c-1.8-5.5,1.2-11.4,4.2-16.4"/>
	</g>
	<path class="st32" d="M426,260.7c0,0,23.2,101.9,16.1,126.1c-7.1,24.2-49.4,114-38.3,135.2c11.1,21.2,61.6,83.8,55.5,111
		c-6.1,27.2-36.3,63.6-38.3,76.7s21.2,75.7,21.2,75.7l22.2-1c0,0-32.3-57.5-19.2-81.7s45.4-64.6,13.1-125.1
		c-32.3-60.5-26.2-102.9,2-127.1c28.3-24.2,15.1-73.7,15.1-73.7l-22.2-96.9L426,260.7z"/>
	<path class="st31" d="M454,273.8c0,0-12.8,49.3,19.3,109.2c10.7,48.2-22.5,121,1.1,149.9c23.6,28.9,86.7,92.1,61,130.6
		c-25.7,38.5-64.2,25.7-64.2,25.7s15.4,24.6,56.7,0.3s15.1-92.8-6.1-115c-21.2-22.2-51.5-67.6-35.3-112
		c16.1-44.4-13.1-96.9-17.2-118.1s-6.1-73.7-6.1-73.7L454,273.8z"/>
	<g>
		<path class="st29" d="M126.6,293.3c3.3,11.7,0.4,24.4-5.4,35.1c-5.8,10.6-14.4,19.5-23.2,27.9c-6.5,6.2-13.1,12.2-20.5,17.3
			c-10.9,7.5-23.8,13.4-30.1,25c19.5-8.9,38.4-19.5,54.6-33.6c16.1-14.1,29.4-32,35.8-52.5c1.4-4.4,2.3-9.5-0.2-13.3
			c-3.5-5.4-11.5-5.2-17-8.7"/>
	</g>
	<g>
		<path class="st31" d="M509.2,514.8c28.6,11.4,27.3,40.6,28.5,71.4c1.3,30.8-7.2,61.1-9.4,91.9c-1.2,16.7-0.4,34.3,7.7,48.9
			c7,12.5,19,22,24.6,35.2c4.5,10.7,4.3,22.6,4.1,34.2c-14.1-51-74.4-81.3-82.2-133.6c-5.5-37,17.3-71.7,27.3-107.8
			c2.5-9,4.9-31.3-0.6-38.9"/>
	</g>
</g>
<g id="Layer_4">
	<path class="st32" d="M343.8-0.5c0,0-74.4,66.4-83.7,118.9c-9.3,52.5-52,111-83.2,125s-48.7,20-62.3,5.9
		c10.6,1.3,21.9,2.9,30.6-8.7c-18.4,2.3-37.6,1-38-5.7c30.5,2.3,74.1-22.1,83.5-39c-26.1,16.1-43.7,20.6-46,20.6
		c-2.3,0,33.5-28.3,44.6-66.9c9.8-34.3,35-132.2,74.6-152.3C315.5-1.8,343.8-0.5,343.8-0.5z"/>
	<path class="st33" d="M349.6-1c0,0,43.4,9.6,58.8,102.7c15.2,91.5-19,157,39.2,186c-7.6-11.3-7.8-31.8-7.8-31.8
		s21.3,32.9,44.6,40.2c30.6,8.1,31.3,1.4,31.3,1.4s-29.3-6.9-35.4-17c16.2,6.9,29.6,7.4,29.6,7.4s-34.4-8.9-42.4-59.2
		C456.1,179.2,465.6-36.5,349.6-1z"/>
</g>
<g id="Layer_6">
	<g>
		<path class="st34" d="M297.4,228.9c-2.8-1.8-5.2-4.2-7-7c-0.9-1.4-1.6-3-1.9-4.7c-0.3-1.7-0.2-3.5,0.3-5.1
			c0.3-0.8,0.6-1.6,1.1-2.3c0.4-0.7,0.9-1.4,1.4-2.1c0.9-1.4,1.8-2.7,2.8-4.1l2.8-4.1c1-1.3,1.9-2.7,2.9-4c-0.8,1.4-1.7,2.8-2.5,4.3
			l-2.6,4.2c-0.9,1.4-1.8,2.8-2.6,4.2c-0.4,0.7-0.9,1.4-1.3,2.1c-0.4,0.7-0.7,1.4-1,2.1c-0.5,1.5-0.6,3.1-0.4,4.6
			c0.2,1.6,0.9,3.1,1.6,4.5c0.8,1.4,1.8,2.7,2.8,4C294.9,226.7,296.1,227.8,297.4,228.9z"/>
	</g>
	<path class="st35" d="M300.4,224c0,0-3.6-1.9,0.4-4.1c5.3-2.9,12.5,8.8,12.5,8.8s-6-5.3-7.7-5.4C303.9,223.2,303.2,225.2,300.4,224
		z"/>
	<path class="st35" d="M323.4,235.7c0,0,8.7-2.1,12.8-4.6c2.3-1.4,3.9-1.3,4.7-0.7c0.8,0.7,0.3,2.1-0.7,2.2
		C336.1,233,323.4,235.7,323.4,235.7z"/>
	<g>
		<path class="st36" d="M350.2,204.8c0.9,3.5,1.4,7.1,1.5,10.7c0,3.6-0.4,7.3-1.8,10.7c-1.4,3.4-4,6.3-7.3,8.1
			c-1.6,0.9-3.4,1.5-5.2,1.7c-1.8,0.2-3.6,0.2-5.4-0.2c3.6,0.4,7.2-0.4,10.2-2.2c3-1.8,5.4-4.6,6.7-7.8c0.7-1.6,1.1-3.3,1.4-5.1
			c0.3-1.7,0.5-3.5,0.6-5.3C351,211.9,350.7,208.3,350.2,204.8z"/>
	</g>
	<g>
		<path class="st34" d="M316.4,121.9c0.5,0.9,1,1.9,1.4,2.9c0.4,1,0.7,2.1,1,3.1c0.6,2.1,0.9,4.3,1.1,6.4c0.2,2.2,0.2,4.4-0.1,6.5
			c-0.1,1.1-0.3,2.2-0.5,3.2c-0.2,1.1-0.5,2.1-0.9,3.1c0.2-2.2,0.5-4.3,0.6-6.4c0.1-2.1,0-4.3-0.1-6.4c-0.1-2.1-0.5-4.2-0.9-6.3
			C317.6,126,317.1,123.9,316.4,121.9z"/>
	</g>
	<g>
		<path class="st35" d="M311.3,225.9c1.2,1.3,2.2,2.7,3.1,4.2c0.9,1.5,1.6,3.1,1.9,4.8c-0.5-1.6-1.3-3.2-2.3-4.6
			c-1-1.4-2.1-2.7-3.3-3.9L311.3,225.9z"/>
	</g>
	<ellipse transform="matrix(0.3142 -0.9493 0.9493 0.3142 21.1084 448.3729)" class="st14" cx="320.9" cy="209.6" rx="5" ry="7.9"/>
</g>
</svg>
