<?xml version="1.0" encoding="utf-8"?>
<!-- Generator: Adobe Illustrator 24.3.0, SVG Export Plug-In . SVG Version: 6.00 Build 0)  -->
<svg version="1.1" id="Layer_1" xmlns="http://www.w3.org/2000/svg" xmlns:xlink="http://www.w3.org/1999/xlink" x="0px" y="0px"
	 viewBox="0 0 768 768" style="enable-background:new 0 0 768 768;" xml:space="preserve">
<style type="text/css">
	.st0{fill:#010101;}
	.st1{fill:#C24042;}
	.st2{fill:#FFFFFF;}
</style>
<g>
	<path d="M65.49,292.67l21.92,49.49l21.92-49.49h14.14L87.4,370.8l-36.06-78.12H65.49z"/>
	<path d="M143.25,255.91c4.95,0,9.01,4.07,9.01,9.01c0,4.95-4.06,9.01-9.01,9.01s-9.01-4.06-9.01-9.01
		C134.24,259.98,138.3,255.91,143.25,255.91z M149.62,292.67v73.35h-12.72v-73.35H149.62z"/>
	<path d="M203.87,309.64c-1.77-4.24-5.48-7.42-10.25-7.42c-4.6,0-8.84,2.65-8.84,8.31c0,5.3,3.53,6.89,11.84,10.43
		c10.6,4.42,15.55,7.78,18.38,11.31c3.18,3.89,3.89,7.78,3.89,11.84c0,15.38-11.13,24.04-25.27,24.04
		c-3.01,0-19.44-0.35-25.63-18.73l10.96-4.6c1.42,3.89,5.66,12.02,14.85,12.02c8.31,0,12.02-6.19,12.02-11.67
		c0-6.89-4.95-9.19-11.84-12.2c-8.84-3.89-14.49-6.72-17.85-10.78c-2.83-3.54-3.36-7.07-3.36-10.78c0-12.9,9.01-20.5,21.39-20.5
		c3.89,0,14.31,0.71,20.15,13.26L203.87,309.64z"/>
	<path d="M242.23,255.91c4.95,0,9.01,4.07,9.01,9.01c0,4.95-4.06,9.01-9.01,9.01s-9.01-4.06-9.01-9.01
		C233.21,259.98,237.28,255.91,242.23,255.91z M248.59,292.67v73.35h-12.72v-73.35H248.59z"/>
	<path d="M354.98,292.67h12.72v8.48c2.3-3,8.84-10.25,21.03-10.25c8.66,0,16.61,3.54,21.03,10.08c3.71,5.48,4.24,11.49,4.24,19.62
		v45.42h-12.73v-45.07c0-4.42-0.35-9.54-3.36-13.43c-2.47-3.18-6.36-5.3-12.02-5.3c-4.42,0-9.19,1.24-12.9,5.66
		c-4.95,5.83-5.3,14.49-5.3,19.8v38.35h-12.72V292.67z"/>
</g>
<g>
	<path d="M339.93,502.09H327.2V373.24h12.72v65.75c8.66-10.78,19.79-12.02,25.1-12.02c22.98,0,35.7,19.09,35.7,38.88
		c0,20.15-12.9,38.35-35.17,38.35c-11.84,0-20.15-5.3-25.63-12.37V502.09z M387.65,465.85c0-18.03-12.2-27.57-24.04-27.57
		c-11.84,0-24.39,9.72-24.39,27.4c0,15.02,9.54,27.22,24.57,27.22C378.63,492.9,387.65,480.53,387.65,465.85z"/>
	<path d="M415.57,465.68c0-22.27,16.44-38.71,38.88-38.71c22.45,0,38.88,16.44,38.88,38.71s-16.61,38.53-38.88,38.53
		C432.18,504.21,415.57,487.95,415.57,465.68z M428.65,465.68c0,18.03,12.72,27.22,25.8,27.22c13.26,0,25.8-9.37,25.8-27.22
		c0-18.03-12.37-27.4-25.8-27.4C441.02,438.28,428.65,447.83,428.65,465.68z"/>
	<path d="M568.98,428.74h12.72v73.35h-12.72v-10.25c-4.24,5.48-12.2,12.37-25.1,12.37c-18.56,0-35.7-13.08-35.7-38.88
		c0-25.27,16.97-38.35,35.7-38.35c14.14,0,21.74,7.78,25.1,12.2V428.74z M521.26,465.32c0,15.73,8.84,27.57,24.04,27.57
		c15.55,0,24.39-12.9,24.39-27.4c0-18.91-13.08-27.22-24.39-27.22C532.75,438.28,521.26,447.47,521.26,465.32z"/>
	<path d="M605.74,428.74h12.72v7.95c1.24-1.94,6.72-9.72,16.61-9.72c3.89,0,8.13,1.42,11.31,3.01l-6.01,11.49
		c-2.83-1.94-5.48-2.47-7.42-2.47c-5.13,0-8.31,2.12-10.25,4.6c-2.12,2.83-4.24,7.78-4.24,19.79v38.71h-12.72V428.74z"/>
	<path d="M710.01,373.24h12.72v128.85h-12.72v-10.25c-4.24,5.48-12.2,12.37-25.1,12.37c-18.56,0-35.7-13.08-35.7-38.88
		c0-25.27,16.97-38.35,35.7-38.35c14.14,0,21.74,7.78,25.1,12.2V373.24z M662.29,465.32c0,15.73,8.84,27.57,24.04,27.57
		c15.55,0,24.39-12.9,24.39-27.4c0-18.91-13.08-27.22-24.39-27.22C673.78,438.28,662.29,447.47,662.29,465.32z"/>
</g>
<g>
	<rect x="301.8" y="364.9" class="st0" width="6.63" height="137.11"/>
</g>
<g>
	<g>
		<path class="st1" d="M334.2,347.47c11.62-17.04,7.22-40.27-9.82-51.89c-17.04-11.62-40.27-7.22-51.89,9.82
			c-11.62,17.04-7.22,40.27,9.82,51.89c4.45,3.03,9.32,4.95,14.29,5.86c0.96,2.24,4.79,4.45,8.83,4.3c3.56-0.14,5.71-2.32,7.08-4.85
			C321.05,360.44,328.86,355.31,334.2,347.47z"/>
		<path class="st2" d="M305.06,368.93c-3.86,0-7.81-1.9-9.42-4.47c-5.11-1.03-9.87-3.03-14.15-5.95
			c-17.69-12.06-22.27-36.25-10.21-53.94c12.06-17.68,36.25-22.27,53.94-10.21c8.57,5.84,14.35,14.67,16.28,24.85
			c1.93,10.19-0.23,20.52-6.07,29.08c-5.2,7.63-12.97,13.14-21.92,15.56c-1.93,3.23-4.62,4.93-8,5.06
			C305.35,368.93,305.21,368.93,305.06,368.93z M303.4,290.59c-11.47,0-22.75,5.48-29.69,15.65c-11.14,16.34-6.91,38.7,9.43,49.83
			c4.14,2.82,8.76,4.72,13.72,5.62l0.78,0.14l0.31,0.73c0.65,1.51,3.78,3.55,7.42,3.4c2.5-0.09,4.41-1.43,5.84-4.08l0.31-0.57
			l0.63-0.16c8.51-2.16,15.9-7.31,20.82-14.52c5.4-7.92,7.39-17.46,5.61-26.87c-1.78-9.41-7.12-17.57-15.04-22.96
			C317.38,292.6,310.36,290.59,303.4,290.59z"/>
	</g>
</g>
<g>
	<circle class="st2" cx="290.48" cy="312.94" r="9.18"/>
</g>
</svg>
